<svg xmlns="http://www.w3.org/2000/svg" viewBox="0 0 1200 250" width="1200" height="250" role="img" aria-labelledby="art-title art-desc"><title id="art-title">OpenCode Watchdog — NOAERTH</title><desc id="art-desc">OpenCode Watchdog: Circuit breaker for runaway sessions. Containment before cost. Verified: 70 tests CI: green</desc><defs><linearGradient id="m-obsidian_compute-dark-prism" x1="0" y1="0" x2="1" y2="1"><stop offset="0%" stop-color="#5EE7D0"/><stop offset="52%" stop-color="#7C8CFF"/><stop offset="100%" stop-color="#C084FC"/></linearGradient><linearGradient id="m-obsidian_compute-dark-edge" x1="0" y1="0" x2="0" y2="1"><stop offset="0%" stop-color="#9FB4D0" stop-opacity="0.85"/><stop offset="40%" stop-color="#26303E" stop-opacity="1"/><stop offset="100%" stop-color="#26303E" stop-opacity="1"/></linearGradient><linearGradient id="m-obsidian_compute-dark-body" x1="0.08" y1="0" x2="0.92" y2="1"><stop offset="0%" stop-color="#1A2231" stop-opacity="0.95"/><stop offset="52%" stop-color="#121821" stop-opacity="0.88"/><stop offset="100%" stop-color="#0D121A" stop-opacity="0.92"/></linearGradient><linearGradient id="m-obsidian_compute-dark-core" x1="0" y1="0" x2="1" y2="1"><stop offset="0%" stop-color="#070A0F" stop-opacity="0.96"/><stop offset="70%" stop-color="#0D121A" stop-opacity="0.90"/><stop offset="100%" stop-color="#0A0E14" stop-opacity="0.94"/></linearGradient><linearGradient id="m-obsidian_compute-dark-bevel" x1="0" y1="0" x2="1" y2="0"><stop offset="0%" stop-color="#9FB4D0" stop-opacity="0.30"/><stop offset="100%" stop-color="#9FB4D0" stop-opacity="0"/></linearGradient></defs><defs><linearGradient id="m-optical_glass-dark-prism" x1="0" y1="0" x2="1" y2="1"><stop offset="0%" stop-color="#5EE7D0"/><stop offset="52%" stop-color="#7C8CFF"/><stop offset="100%" stop-color="#C084FC"/></linearGradient><linearGradient id="m-optical_glass-dark-edge" x1="0" y1="0" x2="0" y2="1"><stop offset="0%" stop-color="#9FB4D0" stop-opacity="0.85"/><stop offset="40%" stop-color="#26303E" stop-opacity="1"/><stop offset="100%" stop-color="#26303E" stop-opacity="1"/></linearGradient><linearGradient id="m-optical_glass-dark-body" x1="0.08" y1="0" x2="0.92" y2="1"><stop offset="0%" stop-color="#1A2231" stop-opacity="0.95"/><stop offset="52%" stop-color="#121821" stop-opacity="0.88"/><stop offset="100%" stop-color="#0D121A" stop-opacity="0.92"/></linearGradient><radialGradient id="m-optical_glass-dark-core" cx="0.3" cy="0.12" r="0.9"><stop offset="0%" stop-color="#9FB4D0" stop-opacity="0.20"/><stop offset="100%" stop-color="#0D121A" stop-opacity="0"/></radialGradient></defs><defs><linearGradient id="m-computational_material-dark-prism" x1="0" y1="0" x2="1" y2="1"><stop offset="0%" stop-color="#5EE7D0"/><stop offset="52%" stop-color="#7C8CFF"/><stop offset="100%" stop-color="#C084FC"/></linearGradient><linearGradient id="m-computational_material-dark-edge" x1="0" y1="0" x2="0" y2="1"><stop offset="0%" stop-color="#9FB4D0" stop-opacity="0.85"/><stop offset="40%" stop-color="#26303E" stop-opacity="1"/><stop offset="100%" stop-color="#26303E" stop-opacity="1"/></linearGradient><linearGradient id="m-computational_material-dark-body" x1="0.08" y1="0" x2="0.92" y2="1"><stop offset="0%" stop-color="#1A2231" stop-opacity="0.95"/><stop offset="52%" stop-color="#121821" stop-opacity="0.88"/><stop offset="100%" stop-color="#0D121A" stop-opacity="0.92"/></linearGradient><pattern id="m-computational_material-dark-measure" width="16" height="16" patternUnits="userSpaceOnUse"><path d="M16 0 L0 0 0 16" fill="none" stroke="#26303E" stroke-width="0.75" stroke-opacity="0.55"/><circle cx="0" cy="0" r="1" fill="#5EE7D0" fill-opacity="0.35"/></pattern><linearGradient id="m-computational_material-dark-core" x1="0" y1="0" x2="0.8" y2="1"><stop offset="0%" stop-color="#5EE7D0" stop-opacity="0.06"/><stop offset="100%" stop-color="#C084FC" stop-opacity="0.09"/></linearGradient></defs><rect x="0" y="0" width="1200" height="250" fill="#0A0E14"/><rect x="0" y="0" width="1200" height="250" fill="url(#m-obsidian_compute-dark-body)" opacity="0.40"/><g opacity="0.2"><g opacity="0.5"><line x1="40" y1="0" x2="40" y2="250" stroke="#161D28" stroke-width="1"/><line x1="80" y1="0" x2="80" y2="250" stroke="#161D28" stroke-width="1"/><line x1="120" y1="0" x2="120" y2="250" stroke="#161D28" stroke-width="1"/><line x1="160" y1="0" x2="160" y2="250" stroke="#161D28" stroke-width="1"/><line x1="200" y1="0" x2="200" y2="250" stroke="#161D28" stroke-width="1"/><line x1="240" y1="0" x2="240" y2="250" stroke="#161D28" stroke-width="1"/><line x1="280" y1="0" x2="280" y2="250" stroke="#161D28" stroke-width="1"/><line x1="320" y1="0" x2="320" y2="250" stroke="#161D28" stroke-width="1"/><line x1="360" y1="0" x2="360" y2="250" stroke="#161D28" stroke-width="1"/><line x1="400" y1="0" x2="400" y2="250" stroke="#161D28" stroke-width="1"/><line x1="440" y1="0" x2="440" y2="250" stroke="#161D28" stroke-width="1"/><line x1="480" y1="0" x2="480" y2="250" stroke="#161D28" stroke-width="1"/><line x1="520" y1="0" x2="520" y2="250" stroke="#161D28" stroke-width="1"/><line x1="560" y1="0" x2="560" y2="250" stroke="#161D28" stroke-width="1"/><line x1="600" y1="0" x2="600" y2="250" stroke="#161D28" stroke-width="1"/><line x1="640" y1="0" x2="640" y2="250" stroke="#161D28" stroke-width="1"/><line x1="680" y1="0" x2="680" y2="250" stroke="#161D28" stroke-width="1"/><line x1="720" y1="0" x2="720" y2="250" stroke="#161D28" stroke-width="1"/><line x1="760" y1="0" x2="760" y2="250" stroke="#161D28" stroke-width="1"/><line x1="800" y1="0" x2="800" y2="250" stroke="#161D28" stroke-width="1"/><line x1="840" y1="0" x2="840" y2="250" stroke="#161D28" stroke-width="1"/><line x1="880" y1="0" x2="880" y2="250" stroke="#161D28" stroke-width="1"/><line x1="920" y1="0" x2="920" y2="250" stroke="#161D28" stroke-width="1"/><line x1="960" y1="0" x2="960" y2="250" stroke="#161D28" stroke-width="1"/><line x1="1000" y1="0" x2="1000" y2="250" stroke="#161D28" stroke-width="1"/><line x1="1040" y1="0" x2="1040" y2="250" stroke="#161D28" stroke-width="1"/><line x1="1080" y1="0" x2="1080" y2="250" stroke="#161D28" stroke-width="1"/><line x1="1120" y1="0" x2="1120" y2="250" stroke="#161D28" stroke-width="1"/><line x1="1160" y1="0" x2="1160" y2="250" stroke="#161D28" stroke-width="1"/><line x1="0" y1="40" x2="1200" y2="40" stroke="#161D28" stroke-width="1"/><line x1="0" y1="80" x2="1200" y2="80" stroke="#161D28" stroke-width="1"/><line x1="0" y1="120" x2="1200" y2="120" stroke="#161D28" stroke-width="1"/><line x1="0" y1="160" x2="1200" y2="160" stroke="#161D28" stroke-width="1"/><line x1="0" y1="200" x2="1200" y2="200" stroke="#161D28" stroke-width="1"/><line x1="0" y1="240" x2="1200" y2="240" stroke="#161D28" stroke-width="1"/></g></g><rect x="0" y="0" width="2.5" height="250" fill="url(#m-obsidian_compute-dark-prism)"/><text x="58.00" y="52.00" font-family="-apple-system, BlinkMacSystemFont, 'Segoe UI', Inter, Helvetica, Arial, sans-serif" font-size="11.5" font-weight="500" fill="#7C8899" letter-spacing="4" opacity="0.6">OPENCODE WATCHDOG</text><text x="58.00" y="100.00" font-family="-apple-system, BlinkMacSystemFont, 'Segoe UI', Inter, Helvetica, Arial, sans-serif" font-size="27" font-weight="650" fill="#E8EEF6">Containment before cost</text><text x="58.00" y="128.00" font-family="-apple-system, BlinkMacSystemFont, 'Segoe UI', Inter, Helvetica, Arial, sans-serif" font-size="11" font-weight="500" fill="#7C8899" letter-spacing="0.2" opacity="0.52">Circuit breaker for runaway sessions. Containment before cost.</text><line x1="58" y1="152" x2="1160" y2="152" stroke="#26303E" stroke-width="1"/><rect x="58" y="168" width="73" height="26" rx="13" fill="#1A2231" fill-opacity="0.75" stroke="#26303E" stroke-width="1"/><text x="94.40" y="185.00" font-family="-apple-system, BlinkMacSystemFont, 'Segoe UI', Inter, Helvetica, Arial, sans-serif" font-size="11" font-weight="500" fill="#93A0B4" text-anchor="middle" letter-spacing="0.6" opacity="0.95">70 TESTS</text><rect x="140.8" y="168" width="50" height="26" rx="13" fill="#1A2231" fill-opacity="0.75" stroke="#26303E" stroke-width="1"/><text x="165.80" y="185.00" font-family="-apple-system, BlinkMacSystemFont, 'Segoe UI', Inter, Helvetica, Arial, sans-serif" font-size="11" font-weight="500" fill="#5EE7D0" text-anchor="middle" letter-spacing="0.6" opacity="0.95">GREEN</text><text x="58.00" y="218.00" font-family="-apple-system, BlinkMacSystemFont, 'Segoe UI', Inter, Helvetica, Arial, sans-serif" font-size="10" font-weight="500" fill="#7C8899" letter-spacing="2.6" opacity="0.38">NOAERTH // DUNG30N5</text><g transform="translate(1010,62.0)"><path d="M111.64 44.21 A54.00 54.00 0 0 1 8.36 75.79" fill="none" stroke="#F2777A" stroke-width="2.5" stroke-opacity="0.9"/><path d="M111.64 44.21 A54.00 54.00 0 0 1 8.36 75.79" fill="none" stroke="#9FB4D0" stroke-width="4" stroke-opacity="0.10"/><circle cx="111.64" cy="44.21" r="2.6" fill="#F2777A" opacity="0.95"/><circle cx="8.36" cy="75.79" r="2.6" fill="#F2777A" opacity="0.95"/></g></svg>