<svg xmlns="http://www.w3.org/2000/svg" viewBox="0 0 1200 560" width="1200" height="560" role="img" aria-labelledby="art-title art-desc"><title id="art-title">NOAERTH constellation</title><desc id="art-desc">Semantic grouping of the published systems into five families. These are categories of work, not runtime dependencies; the operating stack is the plate that shows documented relationships.</desc><defs><linearGradient id="m-computational_material-dark-prism" x1="0" y1="0" x2="1" y2="1"><stop offset="0%" stop-color="#5EE7D0"/><stop offset="52%" stop-color="#7C8CFF"/><stop offset="100%" stop-color="#C084FC"/></linearGradient><linearGradient id="m-computational_material-dark-edge" x1="0" y1="0" x2="0" y2="1"><stop offset="0%" stop-color="#9FB4D0" stop-opacity="0.85"/><stop offset="40%" stop-color="#26303E" stop-opacity="1"/><stop offset="100%" stop-color="#26303E" stop-opacity="1"/></linearGradient><linearGradient id="m-computational_material-dark-body" x1="0.08" y1="0" x2="0.92" y2="1"><stop offset="0%" stop-color="#1A2231" stop-opacity="0.95"/><stop offset="52%" stop-color="#121821" stop-opacity="0.88"/><stop offset="100%" stop-color="#0D121A" stop-opacity="0.92"/></linearGradient><pattern id="m-computational_material-dark-measure" width="16" height="16" patternUnits="userSpaceOnUse"><path d="M16 0 L0 0 0 16" fill="none" stroke="#26303E" stroke-width="0.75" stroke-opacity="0.55"/><circle cx="0" cy="0" r="1" fill="#5EE7D0" fill-opacity="0.35"/></pattern><linearGradient id="m-computational_material-dark-core" x1="0" y1="0" x2="0.8" y2="1"><stop offset="0%" stop-color="#5EE7D0" stop-opacity="0.06"/><stop offset="100%" stop-color="#C084FC" stop-opacity="0.09"/></linearGradient></defs><defs><linearGradient id="m-deep_glass-dark-prism" x1="0" y1="0" x2="1" y2="1"><stop offset="0%" stop-color="#5EE7D0"/><stop offset="52%" stop-color="#7C8CFF"/><stop offset="100%" stop-color="#C084FC"/></linearGradient><linearGradient id="m-deep_glass-dark-edge" x1="0" y1="0" x2="0" y2="1"><stop offset="0%" stop-color="#9FB4D0" stop-opacity="0.85"/><stop offset="40%" stop-color="#26303E" stop-opacity="1"/><stop offset="100%" stop-color="#26303E" stop-opacity="1"/></linearGradient><linearGradient id="m-deep_glass-dark-body" x1="0.08" y1="0" x2="0.92" y2="1"><stop offset="0%" stop-color="#1A2231" stop-opacity="0.95"/><stop offset="52%" stop-color="#121821" stop-opacity="0.88"/><stop offset="100%" stop-color="#0D121A" stop-opacity="0.92"/></linearGradient><radialGradient id="m-deep_glass-dark-core" cx="0.5" cy="0.0" r="1.0"><stop offset="0%" stop-color="#070A0F" stop-opacity="0.85"/><stop offset="55%" stop-color="#0D121A" stop-opacity="0.35"/><stop offset="100%" stop-color="#9FB4D0" stop-opacity="0.10"/></radialGradient><linearGradient id="m-deep_glass-dark-floor" x1="0" y1="0" x2="0" y2="1"><stop offset="0%" stop-color="#5EE7D0" stop-opacity="0"/><stop offset="100%" stop-color="#5EE7D0" stop-opacity="0.10"/></linearGradient></defs><rect x="0" y="0" width="1200" height="560" fill="#0A0E14"/><rect x="0" y="0" width="1200" height="560" fill="#0A0E14"/><g opacity="0.9"><path d="M133.54 88.12 L120.00 95.94 L120.00 105.64 L133.54 97.82Z" fill="#5EE7D0" fill-opacity="0.10"/><path d="M106.46 88.12 L120.00 95.94 L120.00 105.64 L106.46 97.82Z" fill="#5EE7D0" fill-opacity="0.14"/><path d="M120.00 80.30 L133.54 88.12 L120.00 95.94 L106.46 88.12Z" fill="#5EE7D0" fill-opacity="0.24"/><line x1="106.46" y1="88.12" x2="120.00" y2="95.94" stroke="#9FB4D0" stroke-width="0.75" stroke-opacity="0.30"/><path d="M133.54 71.12 L120.00 78.94 L120.00 88.64 L133.54 80.82Z" fill="#5EE7D0" fill-opacity="0.17"/><path d="M106.46 71.12 L120.00 78.94 L120.00 88.64 L106.46 80.82Z" fill="#5EE7D0" fill-opacity="0.24"/><path d="M120.00 63.30 L133.54 71.12 L120.00 78.94 L106.46 71.12Z" fill="#5EE7D0" fill-opacity="0.44"/><line x1="106.46" y1="71.12" x2="120.00" y2="78.94" stroke="#9FB4D0" stroke-width="0.75" stroke-opacity="0.30"/><path d="M133.54 54.12 L120.00 61.94 L120.00 71.64 L133.54 63.82Z" fill="#5EE7D0" fill-opacity="0.24"/><path d="M106.46 54.12 L120.00 61.94 L120.00 71.64 L106.46 63.82Z" fill="#5EE7D0" fill-opacity="0.34"/><path d="M120.00 46.30 L133.54 54.12 L120.00 61.94 L106.46 54.12Z" fill="#5EE7D0" fill-opacity="0.64"/><line x1="106.46" y1="54.12" x2="120.00" y2="61.94" stroke="#9FB4D0" stroke-width="0.75" stroke-opacity="0.30"/><path d="M74.65 122.12 L61.11 129.94 L61.11 139.64 L74.65 131.82Z" fill="#5EE7D0" fill-opacity="0.10"/><path d="M47.57 122.12 L61.11 129.94 L61.11 139.64 L47.57 131.82Z" fill="#5EE7D0" fill-opacity="0.14"/><path d="M61.11 114.30 L74.65 122.12 L61.11 129.94 L47.57 122.12Z" fill="#5EE7D0" fill-opacity="0.24"/><line x1="47.57" y1="122.12" x2="61.11" y2="129.94" stroke="#9FB4D0" stroke-width="0.75" stroke-opacity="0.30"/><path d="M74.65 105.12 L61.11 112.94 L61.11 122.64 L74.65 114.82Z" fill="#5EE7D0" fill-opacity="0.17"/><path d="M47.57 105.12 L61.11 112.94 L61.11 122.64 L47.57 114.82Z" fill="#5EE7D0" fill-opacity="0.24"/><path d="M61.11 97.30 L74.65 105.12 L61.11 112.94 L47.57 105.12Z" fill="#5EE7D0" fill-opacity="0.44"/><line x1="47.57" y1="105.12" x2="61.11" y2="112.94" stroke="#9FB4D0" stroke-width="0.75" stroke-opacity="0.30"/><path d="M74.65 156.12 L61.11 163.94 L61.11 173.64 L74.65 165.82Z" fill="#5EE7D0" fill-opacity="0.10"/><path d="M47.57 156.12 L61.11 163.94 L61.11 173.64 L47.57 165.82Z" fill="#5EE7D0" fill-opacity="0.14"/><path d="M61.11 148.30 L74.65 156.12 L61.11 163.94 L47.57 156.12Z" fill="#5EE7D0" fill-opacity="0.24"/><line x1="47.57" y1="156.12" x2="61.11" y2="163.94" stroke="#9FB4D0" stroke-width="0.75" stroke-opacity="0.30"/><path d="M162.99 139.12 L149.44 146.94 L149.44 156.64 L162.99 148.82Z" fill="#5EE7D0" fill-opacity="0.10"/><path d="M135.90 139.12 L149.44 146.94 L149.44 156.64 L135.90 148.82Z" fill="#5EE7D0" fill-opacity="0.14"/><path d="M149.44 131.30 L162.99 139.12 L149.44 146.94 L135.90 139.12Z" fill="#5EE7D0" fill-opacity="0.24"/><line x1="135.90" y1="139.12" x2="149.44" y2="146.94" stroke="#9FB4D0" stroke-width="0.75" stroke-opacity="0.30"/><path d="M162.99 122.12 L149.44 129.94 L149.44 139.64 L162.99 131.82Z" fill="#5EE7D0" fill-opacity="0.17"/><path d="M135.90 122.12 L149.44 129.94 L149.44 139.64 L135.90 131.82Z" fill="#5EE7D0" fill-opacity="0.24"/><path d="M149.44 114.30 L162.99 122.12 L149.44 129.94 L135.90 122.12Z" fill="#5EE7D0" fill-opacity="0.44"/><line x1="135.90" y1="122.12" x2="149.44" y2="129.94" stroke="#9FB4D0" stroke-width="0.75" stroke-opacity="0.30"/><path d="M162.99 105.12 L149.44 112.94 L149.44 122.64 L162.99 114.82Z" fill="#5EE7D0" fill-opacity="0.24"/><path d="M135.90 105.12 L149.44 112.94 L149.44 122.64 L135.90 114.82Z" fill="#5EE7D0" fill-opacity="0.34"/><path d="M149.44 97.30 L162.99 105.12 L149.44 112.94 L135.90 105.12Z" fill="#5EE7D0" fill-opacity="0.64"/><line x1="135.90" y1="105.12" x2="149.44" y2="112.94" stroke="#9FB4D0" stroke-width="0.75" stroke-opacity="0.30"/><path d="M221.88 139.12 L208.33 146.94 L208.33 156.64 L221.88 148.82Z" fill="#5EE7D0" fill-opacity="0.10"/><path d="M194.79 139.12 L208.33 146.94 L208.33 156.64 L194.79 148.82Z" fill="#5EE7D0" fill-opacity="0.14"/><path d="M208.33 131.30 L221.88 139.12 L208.33 146.94 L194.79 139.12Z" fill="#5EE7D0" fill-opacity="0.24"/><line x1="194.79" y1="139.12" x2="208.33" y2="146.94" stroke="#9FB4D0" stroke-width="0.75" stroke-opacity="0.30"/><path d="M192.43 156.12 L178.89 163.94 L178.89 173.64 L192.43 165.82Z" fill="#5EE7D0" fill-opacity="0.10"/><path d="M165.35 156.12 L178.89 163.94 L178.89 173.64 L165.35 165.82Z" fill="#5EE7D0" fill-opacity="0.14"/><path d="M178.89 148.30 L192.43 156.12 L178.89 163.94 L165.35 156.12Z" fill="#5EE7D0" fill-opacity="0.24"/><line x1="165.35" y1="156.12" x2="178.89" y2="163.94" stroke="#9FB4D0" stroke-width="0.75" stroke-opacity="0.30"/><path d="M162.99 173.12 L149.44 180.94 L149.44 190.64 L162.99 182.82Z" fill="#5EE7D0" fill-opacity="0.10"/><path d="M135.90 173.12 L149.44 180.94 L149.44 190.64 L135.90 182.82Z" fill="#5EE7D0" fill-opacity="0.14"/><path d="M149.44 165.30 L162.99 173.12 L149.44 180.94 L135.90 173.12Z" fill="#5EE7D0" fill-opacity="0.24"/><line x1="135.90" y1="173.12" x2="149.44" y2="180.94" stroke="#9FB4D0" stroke-width="0.75" stroke-opacity="0.30"/><path d="M162.99 156.12 L149.44 163.94 L149.44 173.64 L162.99 165.82Z" fill="#5EE7D0" fill-opacity="0.17"/><path d="M135.90 156.12 L149.44 163.94 L149.44 173.64 L135.90 165.82Z" fill="#5EE7D0" fill-opacity="0.24"/><path d="M149.44 148.30 L162.99 156.12 L149.44 163.94 L135.90 156.12Z" fill="#5EE7D0" fill-opacity="0.44"/><line x1="135.90" y1="156.12" x2="149.44" y2="163.94" stroke="#9FB4D0" stroke-width="0.75" stroke-opacity="0.30"/><path d="M133.54 190.12 L120.00 197.94 L120.00 207.64 L133.54 199.82Z" fill="#5EE7D0" fill-opacity="0.10"/><path d="M106.46 190.12 L120.00 197.94 L120.00 207.64 L106.46 199.82Z" fill="#5EE7D0" fill-opacity="0.14"/><path d="M120.00 182.30 L133.54 190.12 L120.00 197.94 L106.46 190.12Z" fill="#5EE7D0" fill-opacity="0.24"/><line x1="106.46" y1="190.12" x2="120.00" y2="197.94" stroke="#9FB4D0" stroke-width="0.75" stroke-opacity="0.30"/><path d="M133.54 173.12 L120.00 180.94 L120.00 190.64 L133.54 182.82Z" fill="#5EE7D0" fill-opacity="0.17"/><path d="M106.46 173.12 L120.00 180.94 L120.00 190.64 L106.46 182.82Z" fill="#5EE7D0" fill-opacity="0.24"/><path d="M120.00 165.30 L133.54 173.12 L120.00 180.94 L106.46 173.12Z" fill="#5EE7D0" fill-opacity="0.44"/><line x1="106.46" y1="173.12" x2="120.00" y2="180.94" stroke="#9FB4D0" stroke-width="0.75" stroke-opacity="0.30"/><path d="M133.54 156.12 L120.00 163.94 L120.00 173.64 L133.54 165.82Z" fill="#5EE7D0" fill-opacity="0.24"/><path d="M106.46 156.12 L120.00 163.94 L120.00 173.64 L106.46 165.82Z" fill="#5EE7D0" fill-opacity="0.34"/><path d="M120.00 148.30 L133.54 156.12 L120.00 163.94 L106.46 156.12Z" fill="#5EE7D0" fill-opacity="0.64"/><line x1="106.46" y1="156.12" x2="120.00" y2="163.94" stroke="#9FB4D0" stroke-width="0.75" stroke-opacity="0.30"/><path d="M251.32 156.12 L237.78 163.94 L237.78 173.64 L251.32 165.82Z" fill="#5EE7D0" fill-opacity="0.10"/><path d="M224.23 156.12 L237.78 163.94 L237.78 173.64 L224.23 165.82Z" fill="#5EE7D0" fill-opacity="0.14"/><path d="M237.78 148.30 L251.32 156.12 L237.78 163.94 L224.23 156.12Z" fill="#5EE7D0" fill-opacity="0.24"/><line x1="224.23" y1="156.12" x2="237.78" y2="163.94" stroke="#9FB4D0" stroke-width="0.75" stroke-opacity="0.30"/><path d="M133.54 224.12 L120.00 231.94 L120.00 241.64 L133.54 233.82Z" fill="#5EE7D0" fill-opacity="0.10"/><path d="M106.46 224.12 L120.00 231.94 L120.00 241.64 L106.46 233.82Z" fill="#5EE7D0" fill-opacity="0.14"/><path d="M120.00 216.30 L133.54 224.12 L120.00 231.94 L106.46 224.12Z" fill="#5EE7D0" fill-opacity="0.24"/><line x1="106.46" y1="224.12" x2="120.00" y2="231.94" stroke="#9FB4D0" stroke-width="0.75" stroke-opacity="0.30"/><path d="M221.88 207.12 L208.33 214.94 L208.33 224.64 L221.88 216.82Z" fill="#5EE7D0" fill-opacity="0.10"/><path d="M194.79 207.12 L208.33 214.94 L208.33 224.64 L194.79 216.82Z" fill="#5EE7D0" fill-opacity="0.14"/><path d="M208.33 199.30 L221.88 207.12 L208.33 214.94 L194.79 207.12Z" fill="#5EE7D0" fill-opacity="0.24"/><line x1="194.79" y1="207.12" x2="208.33" y2="214.94" stroke="#9FB4D0" stroke-width="0.75" stroke-opacity="0.30"/><path d="M221.88 190.12 L208.33 197.94 L208.33 207.64 L221.88 199.82Z" fill="#5EE7D0" fill-opacity="0.17"/><path d="M194.79 190.12 L208.33 197.94 L208.33 207.64 L194.79 199.82Z" fill="#5EE7D0" fill-opacity="0.24"/><path d="M208.33 182.30 L221.88 190.12 L208.33 197.94 L194.79 190.12Z" fill="#5EE7D0" fill-opacity="0.44"/><line x1="194.79" y1="190.12" x2="208.33" y2="197.94" stroke="#9FB4D0" stroke-width="0.75" stroke-opacity="0.30"/><path d="M221.88 173.12 L208.33 180.94 L208.33 190.64 L221.88 182.82Z" fill="#5EE7D0" fill-opacity="0.24"/><path d="M194.79 173.12 L208.33 180.94 L208.33 190.64 L194.79 182.82Z" fill="#5EE7D0" fill-opacity="0.34"/><path d="M208.33 165.30 L221.88 173.12 L208.33 180.94 L194.79 173.12Z" fill="#5EE7D0" fill-opacity="0.64"/><line x1="194.79" y1="173.12" x2="208.33" y2="180.94" stroke="#9FB4D0" stroke-width="0.75" stroke-opacity="0.30"/><path d="M192.43 224.12 L178.89 231.94 L178.89 241.64 L192.43 233.82Z" fill="#5EE7D0" fill-opacity="0.10"/><path d="M165.35 224.12 L178.89 231.94 L178.89 241.64 L165.35 233.82Z" fill="#5EE7D0" fill-opacity="0.14"/><path d="M178.89 216.30 L192.43 224.12 L178.89 231.94 L165.35 224.12Z" fill="#5EE7D0" fill-opacity="0.24"/><line x1="165.35" y1="224.12" x2="178.89" y2="231.94" stroke="#9FB4D0" stroke-width="0.75" stroke-opacity="0.30"/><path d="M192.43 207.12 L178.89 214.94 L178.89 224.64 L192.43 216.82Z" fill="#5EE7D0" fill-opacity="0.17"/><path d="M165.35 207.12 L178.89 214.94 L178.89 224.64 L165.35 216.82Z" fill="#5EE7D0" fill-opacity="0.24"/><path d="M178.89 199.30 L192.43 207.12 L178.89 214.94 L165.35 207.12Z" fill="#5EE7D0" fill-opacity="0.44"/><line x1="165.35" y1="207.12" x2="178.89" y2="214.94" stroke="#9FB4D0" stroke-width="0.75" stroke-opacity="0.30"/><path d="M310.21 190.12 L296.67 197.94 L296.67 207.64 L310.21 199.82Z" fill="#5EE7D0" fill-opacity="0.10"/><path d="M283.12 190.12 L296.67 197.94 L296.67 207.64 L283.12 199.82Z" fill="#5EE7D0" fill-opacity="0.14"/><path d="M296.67 182.30 L310.21 190.12 L296.67 197.94 L283.12 190.12Z" fill="#5EE7D0" fill-opacity="0.24"/><line x1="283.12" y1="190.12" x2="296.67" y2="197.94" stroke="#9FB4D0" stroke-width="0.75" stroke-opacity="0.30"/><path d="M310.21 173.12 L296.67 180.94 L296.67 190.64 L310.21 182.82Z" fill="#5EE7D0" fill-opacity="0.17"/><path d="M283.12 173.12 L296.67 180.94 L296.67 190.64 L283.12 182.82Z" fill="#5EE7D0" fill-opacity="0.24"/><path d="M296.67 165.30 L310.21 173.12 L296.67 180.94 L283.12 173.12Z" fill="#5EE7D0" fill-opacity="0.44"/><line x1="283.12" y1="173.12" x2="296.67" y2="180.94" stroke="#9FB4D0" stroke-width="0.75" stroke-opacity="0.30"/><path d="M251.32 224.12 L237.78 231.94 L237.78 241.64 L251.32 233.82Z" fill="#5EE7D0" fill-opacity="0.10"/><path d="M224.23 224.12 L237.78 231.94 L237.78 241.64 L224.23 233.82Z" fill="#5EE7D0" fill-opacity="0.14"/><path d="M237.78 216.30 L251.32 224.12 L237.78 231.94 L224.23 224.12Z" fill="#5EE7D0" fill-opacity="0.24"/><line x1="224.23" y1="224.12" x2="237.78" y2="231.94" stroke="#9FB4D0" stroke-width="0.75" stroke-opacity="0.30"/><path d="M251.32 207.12 L237.78 214.94 L237.78 224.64 L251.32 216.82Z" fill="#5EE7D0" fill-opacity="0.17"/><path d="M224.23 207.12 L237.78 214.94 L237.78 224.64 L224.23 216.82Z" fill="#5EE7D0" fill-opacity="0.24"/><path d="M237.78 199.30 L251.32 207.12 L237.78 214.94 L224.23 207.12Z" fill="#5EE7D0" fill-opacity="0.44"/><line x1="224.23" y1="207.12" x2="237.78" y2="214.94" stroke="#9FB4D0" stroke-width="0.75" stroke-opacity="0.30"/><path d="M251.32 190.12 L237.78 197.94 L237.78 207.64 L251.32 199.82Z" fill="#5EE7D0" fill-opacity="0.24"/><path d="M224.23 190.12 L237.78 197.94 L237.78 207.64 L224.23 199.82Z" fill="#5EE7D0" fill-opacity="0.34"/><path d="M237.78 182.30 L251.32 190.12 L237.78 197.94 L224.23 190.12Z" fill="#5EE7D0" fill-opacity="0.64"/><line x1="224.23" y1="190.12" x2="237.78" y2="197.94" stroke="#9FB4D0" stroke-width="0.75" stroke-opacity="0.30"/><path d="M251.32 258.12 L237.78 265.94 L237.78 275.64 L251.32 267.82Z" fill="#5EE7D0" fill-opacity="0.10"/><path d="M224.23 258.12 L237.78 265.94 L237.78 275.64 L224.23 267.82Z" fill="#5EE7D0" fill-opacity="0.14"/><path d="M237.78 250.30 L251.32 258.12 L237.78 265.94 L224.23 258.12Z" fill="#5EE7D0" fill-opacity="0.24"/><line x1="224.23" y1="258.12" x2="237.78" y2="265.94" stroke="#9FB4D0" stroke-width="0.75" stroke-opacity="0.30"/><path d="M221.88 275.12 L208.33 282.94 L208.33 292.64 L221.88 284.82Z" fill="#5EE7D0" fill-opacity="0.10"/><path d="M194.79 275.12 L208.33 282.94 L208.33 292.64 L194.79 284.82Z" fill="#5EE7D0" fill-opacity="0.14"/><path d="M208.33 267.30 L221.88 275.12 L208.33 282.94 L194.79 275.12Z" fill="#5EE7D0" fill-opacity="0.24"/><line x1="194.79" y1="275.12" x2="208.33" y2="282.94" stroke="#9FB4D0" stroke-width="0.75" stroke-opacity="0.30"/><path d="M221.88 258.12 L208.33 265.94 L208.33 275.64 L221.88 267.82Z" fill="#5EE7D0" fill-opacity="0.17"/><path d="M194.79 258.12 L208.33 265.94 L208.33 275.64 L194.79 267.82Z" fill="#5EE7D0" fill-opacity="0.24"/><path d="M208.33 250.30 L221.88 258.12 L208.33 265.94 L194.79 258.12Z" fill="#5EE7D0" fill-opacity="0.44"/><line x1="194.79" y1="258.12" x2="208.33" y2="265.94" stroke="#9FB4D0" stroke-width="0.75" stroke-opacity="0.30"/><path d="M221.88 241.12 L208.33 248.94 L208.33 258.64 L221.88 250.82Z" fill="#5EE7D0" fill-opacity="0.24"/><path d="M194.79 241.12 L208.33 248.94 L208.33 258.64 L194.79 250.82Z" fill="#5EE7D0" fill-opacity="0.34"/><path d="M208.33 233.30 L221.88 241.12 L208.33 248.94 L194.79 241.12Z" fill="#5EE7D0" fill-opacity="0.64"/><line x1="194.79" y1="241.12" x2="208.33" y2="248.94" stroke="#9FB4D0" stroke-width="0.75" stroke-opacity="0.30"/><path d="M339.66 241.12 L326.11 248.94 L326.11 258.64 L339.66 250.82Z" fill="#5EE7D0" fill-opacity="0.10"/><path d="M312.57 241.12 L326.11 248.94 L326.11 258.64 L312.57 250.82Z" fill="#5EE7D0" fill-opacity="0.14"/><path d="M326.11 233.30 L339.66 241.12 L326.11 248.94 L312.57 241.12Z" fill="#5EE7D0" fill-opacity="0.24"/><line x1="312.57" y1="241.12" x2="326.11" y2="248.94" stroke="#9FB4D0" stroke-width="0.75" stroke-opacity="0.30"/><path d="M339.66 224.12 L326.11 231.94 L326.11 241.64 L339.66 233.82Z" fill="#5EE7D0" fill-opacity="0.17"/><path d="M312.57 224.12 L326.11 231.94 L326.11 241.64 L312.57 233.82Z" fill="#5EE7D0" fill-opacity="0.24"/><path d="M326.11 216.30 L339.66 224.12 L326.11 231.94 L312.57 224.12Z" fill="#5EE7D0" fill-opacity="0.44"/><line x1="312.57" y1="224.12" x2="326.11" y2="231.94" stroke="#9FB4D0" stroke-width="0.75" stroke-opacity="0.30"/><path d="M310.21 258.12 L296.67 265.94 L296.67 275.64 L310.21 267.82Z" fill="#5EE7D0" fill-opacity="0.10"/><path d="M283.12 258.12 L296.67 265.94 L296.67 275.64 L283.12 267.82Z" fill="#5EE7D0" fill-opacity="0.14"/><path d="M296.67 250.30 L310.21 258.12 L296.67 265.94 L283.12 258.12Z" fill="#5EE7D0" fill-opacity="0.24"/><line x1="283.12" y1="258.12" x2="296.67" y2="265.94" stroke="#9FB4D0" stroke-width="0.75" stroke-opacity="0.30"/><path d="M280.77 275.12 L267.22 282.94 L267.22 292.64 L280.77 284.82Z" fill="#5EE7D0" fill-opacity="0.10"/><path d="M253.68 275.12 L267.22 282.94 L267.22 292.64 L253.68 284.82Z" fill="#5EE7D0" fill-opacity="0.14"/><path d="M267.22 267.30 L280.77 275.12 L267.22 282.94 L253.68 275.12Z" fill="#5EE7D0" fill-opacity="0.24"/><line x1="253.68" y1="275.12" x2="267.22" y2="282.94" stroke="#9FB4D0" stroke-width="0.75" stroke-opacity="0.30"/><path d="M280.77 258.12 L267.22 265.94 L267.22 275.64 L280.77 267.82Z" fill="#5EE7D0" fill-opacity="0.17"/><path d="M253.68 258.12 L267.22 265.94 L267.22 275.64 L253.68 267.82Z" fill="#5EE7D0" fill-opacity="0.24"/><path d="M267.22 250.30 L280.77 258.12 L267.22 265.94 L253.68 258.12Z" fill="#5EE7D0" fill-opacity="0.44"/><line x1="253.68" y1="258.12" x2="267.22" y2="265.94" stroke="#9FB4D0" stroke-width="0.75" stroke-opacity="0.30"/><path d="M280.77 241.12 L267.22 248.94 L267.22 258.64 L280.77 250.82Z" fill="#5EE7D0" fill-opacity="0.24"/><path d="M253.68 241.12 L267.22 248.94 L267.22 258.64 L253.68 250.82Z" fill="#5EE7D0" fill-opacity="0.34"/><path d="M267.22 233.30 L280.77 241.12 L267.22 248.94 L253.68 241.12Z" fill="#5EE7D0" fill-opacity="0.64"/><line x1="253.68" y1="241.12" x2="267.22" y2="248.94" stroke="#9FB4D0" stroke-width="0.75" stroke-opacity="0.30"/></g><circle cx="184.0" cy="330" r="74" fill="none" stroke="#C084FC" stroke-width="1" stroke-opacity="0.45"/><circle cx="184.0" cy="330" r="86" fill="none" stroke="#C084FC" stroke-width="1" stroke-opacity="0.18"/><circle cx="184.00" cy="290.00" r="5.00" fill="#C084FC" fill-opacity="0.9"/><circle cx="184.00" cy="290.00" r="9.00" fill="none" stroke="#C084FC" stroke-width="1" opacity="0.45"/><text x="184.00" y="448.00" font-family="-apple-system, BlinkMacSystemFont, 'Segoe UI', Inter, Helvetica, Arial, sans-serif" font-size="11" font-weight="500" fill="#C084FC" text-anchor="middle" letter-spacing="3.2" opacity="0.6">GOVERN</text><circle cx="392.0" cy="330" r="74" fill="none" stroke="#5EE7D0" stroke-width="1" stroke-opacity="0.45"/><circle cx="392.0" cy="330" r="86" fill="none" stroke="#5EE7D0" stroke-width="1" stroke-opacity="0.18"/><circle cx="392.00" cy="290.00" r="5.00" fill="#5EE7D0" fill-opacity="0.9"/><circle cx="392.00" cy="290.00" r="9.00" fill="none" stroke="#5EE7D0" stroke-width="1" opacity="0.45"/><text x="392.00" y="448.00" font-family="-apple-system, BlinkMacSystemFont, 'Segoe UI', Inter, Helvetica, Arial, sans-serif" font-size="11" font-weight="500" fill="#5EE7D0" text-anchor="middle" letter-spacing="3.2" opacity="0.6">EXECUTE</text><circle cx="600.0" cy="330" r="74" fill="none" stroke="#7C8CFF" stroke-width="1" stroke-opacity="0.45"/><circle cx="600.0" cy="330" r="86" fill="none" stroke="#7C8CFF" stroke-width="1" stroke-opacity="0.18"/><circle cx="600.00" cy="290.00" r="5.00" fill="#7C8CFF" fill-opacity="0.9"/><circle cx="600.00" cy="290.00" r="9.00" fill="none" stroke="#7C8CFF" stroke-width="1" opacity="0.45"/><circle cx="600.00" cy="370.00" r="5.00" fill="#7C8CFF" fill-opacity="0.9"/><circle cx="600.00" cy="370.00" r="9.00" fill="none" stroke="#7C8CFF" stroke-width="1" opacity="0.45"/><text x="600.00" y="448.00" font-family="-apple-system, BlinkMacSystemFont, 'Segoe UI', Inter, Helvetica, Arial, sans-serif" font-size="11" font-weight="500" fill="#7C8CFF" text-anchor="middle" letter-spacing="3.2" opacity="0.6">ECONOMISE</text><circle cx="808.0" cy="330" r="74" fill="none" stroke="#F2777A" stroke-width="1" stroke-opacity="0.45"/><circle cx="808.0" cy="330" r="86" fill="none" stroke="#F2777A" stroke-width="1" stroke-opacity="0.18"/><circle cx="808.00" cy="290.00" r="5.00" fill="#F2777A" fill-opacity="0.9"/><circle cx="808.00" cy="290.00" r="9.00" fill="none" stroke="#F2777A" stroke-width="1" opacity="0.45"/><circle cx="808.00" cy="370.00" r="5.00" fill="#F2777A" fill-opacity="0.9"/><circle cx="808.00" cy="370.00" r="9.00" fill="none" stroke="#F2777A" stroke-width="1" opacity="0.45"/><text x="808.00" y="448.00" font-family="-apple-system, BlinkMacSystemFont, 'Segoe UI', Inter, Helvetica, Arial, sans-serif" font-size="11" font-weight="500" fill="#F2777A" text-anchor="middle" letter-spacing="3.2" opacity="0.6">PROTECT</text><circle cx="1016.0" cy="330" r="74" fill="none" stroke="#93A0B4" stroke-width="1" stroke-opacity="0.45"/><circle cx="1016.0" cy="330" r="86" fill="none" stroke="#93A0B4" stroke-width="1" stroke-opacity="0.18"/><circle cx="1016.00" cy="290.00" r="5.00" fill="#93A0B4" fill-opacity="0.9"/><circle cx="1016.00" cy="290.00" r="9.00" fill="none" stroke="#93A0B4" stroke-width="1" opacity="0.45"/><circle cx="1016.00" cy="370.00" r="5.00" fill="#93A0B4" fill-opacity="0.9"/><circle cx="1016.00" cy="370.00" r="9.00" fill="none" stroke="#93A0B4" stroke-width="1" opacity="0.45"/><text x="1016.00" y="448.00" font-family="-apple-system, BlinkMacSystemFont, 'Segoe UI', Inter, Helvetica, Arial, sans-serif" font-size="11" font-weight="500" fill="#93A0B4" text-anchor="middle" letter-spacing="3.2" opacity="0.6">EMERGENT</text><text x="80.00" y="512.00" font-family="-apple-system, BlinkMacSystemFont, 'Segoe UI', Inter, Helvetica, Arial, sans-serif" font-size="11" font-weight="500" fill="#7C8899" letter-spacing="2.6" opacity="0.5">CATEGORIES OF WORK — NOT RUNTIME DEPENDENCIES</text><text x="1120.00" y="512.00" font-family="-apple-system, BlinkMacSystemFont, 'Segoe UI', Inter, Helvetica, Arial, sans-serif" font-size="11" font-weight="500" fill="#7C8899" text-anchor="end" letter-spacing="2.6" opacity="0.4">DOCUMENTED RELATIONSHIPS LIVE IN THE OPERATING STACK</text></svg>