<svg xmlns="http://www.w3.org/2000/svg" viewBox="0 0 460 440" width="460" height="440" role="img" aria-labelledby="art-title art-desc"><title id="art-title">DUNG30N5 — NOAERTH SYSTEMS LAB</title><desc id="art-desc">Identity plate for DUNG30N5, Noaerth systems lab. A stacked isometric structure and a faceted aperture sit to the right of the wordmark. Reads: build systems, prove them, compound what works. Handle @M4G3LL4N0, site noaerth.com.</desc><defs><linearGradient id="m-optical_glass-light-prism" x1="0" y1="0" x2="1" y2="1"><stop offset="0%" stop-color="#0E9E8C"/><stop offset="52%" stop-color="#3D4BC4"/><stop offset="100%" stop-color="#7C3AED"/></linearGradient><linearGradient id="m-optical_glass-light-edge" x1="0" y1="0" x2="0" y2="1"><stop offset="0%" stop-color="#FFFFFF" stop-opacity="0.85"/><stop offset="40%" stop-color="#D2DBE7" stop-opacity="1"/><stop offset="100%" stop-color="#D2DBE7" stop-opacity="1"/></linearGradient><linearGradient id="m-optical_glass-light-body" x1="0.08" y1="0" x2="0.92" y2="1"><stop offset="0%" stop-color="#EAF0F8" stop-opacity="0.95"/><stop offset="52%" stop-color="#F4F7FB" stop-opacity="0.88"/><stop offset="100%" stop-color="#FAFBFD" stop-opacity="0.92"/></linearGradient><radialGradient id="m-optical_glass-light-core" cx="0.3" cy="0.12" r="0.9"><stop offset="0%" stop-color="#FFFFFF" stop-opacity="0.20"/><stop offset="100%" stop-color="#FAFBFD" stop-opacity="0"/></radialGradient></defs><defs><linearGradient id="m-deep_glass-light-prism" x1="0" y1="0" x2="1" y2="1"><stop offset="0%" stop-color="#0E9E8C"/><stop offset="52%" stop-color="#3D4BC4"/><stop offset="100%" stop-color="#7C3AED"/></linearGradient><linearGradient id="m-deep_glass-light-edge" x1="0" y1="0" x2="0" y2="1"><stop offset="0%" stop-color="#FFFFFF" stop-opacity="0.85"/><stop offset="40%" stop-color="#D2DBE7" stop-opacity="1"/><stop offset="100%" stop-color="#D2DBE7" stop-opacity="1"/></linearGradient><linearGradient id="m-deep_glass-light-body" x1="0.08" y1="0" x2="0.92" y2="1"><stop offset="0%" stop-color="#EAF0F8" stop-opacity="0.95"/><stop offset="52%" stop-color="#F4F7FB" stop-opacity="0.88"/><stop offset="100%" stop-color="#FAFBFD" stop-opacity="0.92"/></linearGradient><radialGradient id="m-deep_glass-light-core" cx="0.5" cy="0.0" r="1.0"><stop offset="0%" stop-color="#F2F5F9" stop-opacity="0.85"/><stop offset="55%" stop-color="#FAFBFD" stop-opacity="0.35"/><stop offset="100%" stop-color="#FFFFFF" stop-opacity="0.10"/></radialGradient><linearGradient id="m-deep_glass-light-floor" x1="0" y1="0" x2="0" y2="1"><stop offset="0%" stop-color="#0E9E8C" stop-opacity="0"/><stop offset="100%" stop-color="#0E9E8C" stop-opacity="0.10"/></linearGradient></defs><defs><linearGradient id="m-computational_material-light-prism" x1="0" y1="0" x2="1" y2="1"><stop offset="0%" stop-color="#0E9E8C"/><stop offset="52%" stop-color="#3D4BC4"/><stop offset="100%" stop-color="#7C3AED"/></linearGradient><linearGradient id="m-computational_material-light-edge" x1="0" y1="0" x2="0" y2="1"><stop offset="0%" stop-color="#FFFFFF" stop-opacity="0.85"/><stop offset="40%" stop-color="#D2DBE7" stop-opacity="1"/><stop offset="100%" stop-color="#D2DBE7" stop-opacity="1"/></linearGradient><linearGradient id="m-computational_material-light-body" x1="0.08" y1="0" x2="0.92" y2="1"><stop offset="0%" stop-color="#EAF0F8" stop-opacity="0.95"/><stop offset="52%" stop-color="#F4F7FB" stop-opacity="0.88"/><stop offset="100%" stop-color="#FAFBFD" stop-opacity="0.92"/></linearGradient><pattern id="m-computational_material-light-measure" width="16" height="16" patternUnits="userSpaceOnUse"><path d="M16 0 L0 0 0 16" fill="none" stroke="#D2DBE7" stroke-width="0.75" stroke-opacity="0.55"/><circle cx="0" cy="0" r="1" fill="#0E9E8C" fill-opacity="0.35"/></pattern><linearGradient id="m-computational_material-light-core" x1="0" y1="0" x2="0.8" y2="1"><stop offset="0%" stop-color="#0E9E8C" stop-opacity="0.06"/><stop offset="100%" stop-color="#7C3AED" stop-opacity="0.09"/></linearGradient></defs><rect x="0" y="0" width="460" height="440" fill="#FCFDFE"/><g opacity="0.3"><g opacity="0.5"><line x1="40" y1="0" x2="40" y2="440" stroke="#E9EEF5" stroke-width="1"/><line x1="80" y1="0" x2="80" y2="440" stroke="#E9EEF5" stroke-width="1"/><line x1="120" y1="0" x2="120" y2="440" stroke="#E9EEF5" stroke-width="1"/><line x1="160" y1="0" x2="160" y2="440" stroke="#E9EEF5" stroke-width="1"/><line x1="200" y1="0" x2="200" y2="440" stroke="#E9EEF5" stroke-width="1"/><line x1="240" y1="0" x2="240" y2="440" stroke="#E9EEF5" stroke-width="1"/><line x1="280" y1="0" x2="280" y2="440" stroke="#E9EEF5" stroke-width="1"/><line x1="320" y1="0" x2="320" y2="440" stroke="#E9EEF5" stroke-width="1"/><line x1="360" y1="0" x2="360" y2="440" stroke="#E9EEF5" stroke-width="1"/><line x1="400" y1="0" x2="400" y2="440" stroke="#E9EEF5" stroke-width="1"/><line x1="440" y1="0" x2="440" y2="440" stroke="#E9EEF5" stroke-width="1"/><line x1="0" y1="40" x2="460" y2="40" stroke="#E9EEF5" stroke-width="1"/><line x1="0" y1="80" x2="460" y2="80" stroke="#E9EEF5" stroke-width="1"/><line x1="0" y1="120" x2="460" y2="120" stroke="#E9EEF5" stroke-width="1"/><line x1="0" y1="160" x2="460" y2="160" stroke="#E9EEF5" stroke-width="1"/><line x1="0" y1="200" x2="460" y2="200" stroke="#E9EEF5" stroke-width="1"/><line x1="0" y1="240" x2="460" y2="240" stroke="#E9EEF5" stroke-width="1"/><line x1="0" y1="280" x2="460" y2="280" stroke="#E9EEF5" stroke-width="1"/><line x1="0" y1="320" x2="460" y2="320" stroke="#E9EEF5" stroke-width="1"/><line x1="0" y1="360" x2="460" y2="360" stroke="#E9EEF5" stroke-width="1"/><line x1="0" y1="400" x2="460" y2="400" stroke="#E9EEF5" stroke-width="1"/></g></g><rect x="44" y="92" width="2.5" height="128" fill="url(#m-optical_glass-light-prism)"/><text x="62.00" y="112.00" font-family="-apple-system, BlinkMacSystemFont, 'Segoe UI', Inter, Helvetica, Arial, sans-serif" font-size="9.5" font-weight="500" fill="#6B7688" letter-spacing="3.0" opacity="0.6">NOAERTH // SYSTEMS LAB</text><text x="62.00" y="162.00" font-family="-apple-system, BlinkMacSystemFont, 'Segoe UI', Inter, Helvetica, Arial, sans-serif" font-size="52" font-weight="700" fill="#0A0E14" letter-spacing="3">DUNG30N5</text><text x="62.00" y="200.00" font-family="-apple-system, BlinkMacSystemFont, 'Segoe UI', Inter, Helvetica, Arial, sans-serif" font-size="15" font-weight="400" fill="#4A5567">Build systems.</text><text x="62.00" y="222.00" font-family="-apple-system, BlinkMacSystemFont, 'Segoe UI', Inter, Helvetica, Arial, sans-serif" font-size="15" font-weight="400" fill="#4A5567">Prove them.</text><text x="62.00" y="244.00" font-family="-apple-system, BlinkMacSystemFont, 'Segoe UI', Inter, Helvetica, Arial, sans-serif" font-size="15" font-weight="400" fill="#4A5567">Compound what works.</text><g opacity="0.9" transform="translate(300,318)"><path d="M42.09 0.00 L37.92 18.26 L41.44 19.96 L46.00 0.00Z" fill="#0E9E8C" fill-opacity="0.88"/><path d="M37.92 18.26 L26.24 32.91 L25.81 32.37 L37.30 17.96Z" fill="#0E9E8C" fill-opacity="0.63"/><path d="M26.24 32.91 L9.37 41.03 L10.24 44.85 L28.68 35.96Z" fill="#0E9E8C" fill-opacity="0.88"/><path d="M9.37 41.03 L-9.37 41.03 L-9.21 40.36 L9.21 40.36Z" fill="#0E9E8C" fill-opacity="0.63"/><path d="M-9.37 41.03 L-26.24 32.91 L-28.68 35.96 L-10.24 44.85Z" fill="#0E9E8C" fill-opacity="0.88"/><path d="M-26.24 32.91 L-37.92 18.26 L-37.30 17.96 L-25.81 32.37Z" fill="#0E9E8C" fill-opacity="0.63"/><path d="M-37.92 18.26 L-42.09 0.00 L-46.00 0.00 L-41.44 19.96Z" fill="#0E9E8C" fill-opacity="0.88"/><path d="M-42.09 0.00 L-37.92 -18.26 L-37.30 -17.96 L-41.40 0.00Z" fill="#0E9E8C" fill-opacity="0.63"/><path d="M-37.92 -18.26 L-26.24 -32.91 L-28.68 -35.96 L-41.44 -19.96Z" fill="#0E9E8C" fill-opacity="0.88"/><path d="M-26.24 -32.91 L-9.37 -41.03 L-9.21 -40.36 L-25.81 -32.37Z" fill="#0E9E8C" fill-opacity="0.63"/><path d="M-9.37 -41.03 L9.37 -41.03 L10.24 -44.85 L-10.24 -44.85Z" fill="#0E9E8C" fill-opacity="0.88"/><path d="M9.37 -41.03 L26.24 -32.91 L25.81 -32.37 L9.21 -40.36Z" fill="#0E9E8C" fill-opacity="0.63"/><path d="M26.24 -32.91 L37.92 -18.26 L41.44 -19.96 L28.68 -35.96Z" fill="#0E9E8C" fill-opacity="0.88"/><path d="M37.92 -18.26 L42.09 -0.00 L41.40 -0.00 L37.30 -17.96Z" fill="#0E9E8C" fill-opacity="0.63"/><path d="M32.47 7.60 L29.01 16.44 L32.42 18.37 L36.28 8.49Z" fill="#3D4BC4" fill-opacity="0.72"/><path d="M29.01 16.44 L23.21 23.95 L23.33 24.08 L29.17 16.53Z" fill="#3D4BC4" fill-opacity="0.52"/><path d="M23.21 23.95 L15.52 29.52 L17.34 32.98 L25.93 26.76Z" fill="#3D4BC4" fill-opacity="0.72"/><path d="M15.52 29.52 L6.57 32.70 L6.61 32.88 L15.60 29.68Z" fill="#3D4BC4" fill-opacity="0.52"/><path d="M6.57 32.70 L-2.90 33.22 L-3.24 37.12 L7.34 36.53Z" fill="#3D4BC4" fill-opacity="0.72"/><path d="M-2.90 33.22 L-12.15 31.06 L-12.21 31.23 L-2.92 33.41Z" fill="#3D4BC4" fill-opacity="0.52"/><path d="M-12.15 31.06 L-20.41 26.38 L-22.80 29.47 L-13.57 34.70Z" fill="#3D4BC4" fill-opacity="0.72"/><path d="M-20.41 26.38 L-27.01 19.56 L-27.16 19.67 L-20.52 26.52Z" fill="#3D4BC4" fill-opacity="0.52"/><path d="M-27.01 19.56 L-31.43 11.16 L-35.11 12.47 L-30.18 21.86Z" fill="#3D4BC4" fill-opacity="0.72"/><path d="M-31.43 11.16 L-33.30 1.85 L-33.48 1.86 L-31.60 11.22Z" fill="#3D4BC4" fill-opacity="0.52"/><path d="M-33.30 1.85 L-32.47 -7.60 L-36.28 -8.49 L-37.20 2.07Z" fill="#3D4BC4" fill-opacity="0.72"/><path d="M-32.47 -7.60 L-29.01 -16.44 L-29.17 -16.53 L-32.65 -7.64Z" fill="#3D4BC4" fill-opacity="0.52"/><path d="M-29.01 -16.44 L-23.21 -23.95 L-25.93 -26.76 L-32.42 -18.37Z" fill="#3D4BC4" fill-opacity="0.72"/><path d="M-23.21 -23.95 L-15.52 -29.52 L-15.60 -29.68 L-23.33 -24.08Z" fill="#3D4BC4" fill-opacity="0.52"/><path d="M-15.52 -29.52 L-6.57 -32.70 L-7.34 -36.53 L-17.34 -32.98Z" fill="#3D4BC4" fill-opacity="0.72"/><path d="M-6.57 -32.70 L2.90 -33.22 L2.92 -33.41 L-6.61 -32.88Z" fill="#3D4BC4" fill-opacity="0.52"/><path d="M2.90 -33.22 L12.15 -31.06 L13.57 -34.70 L3.24 -37.12Z" fill="#3D4BC4" fill-opacity="0.72"/><path d="M12.15 -31.06 L20.41 -26.38 L20.52 -26.52 L12.21 -31.23Z" fill="#3D4BC4" fill-opacity="0.52"/><path d="M20.41 -26.38 L27.01 -19.56 L30.18 -21.86 L22.80 -29.47Z" fill="#3D4BC4" fill-opacity="0.72"/><path d="M27.01 -19.56 L31.43 -11.16 L31.60 -11.22 L27.16 -19.67Z" fill="#3D4BC4" fill-opacity="0.52"/><path d="M31.43 -11.16 L33.30 -1.85 L37.20 -2.07 L35.11 -12.47Z" fill="#3D4BC4" fill-opacity="0.72"/><path d="M33.30 -1.85 L32.47 7.60 L32.65 7.64 L33.48 -1.86Z" fill="#3D4BC4" fill-opacity="0.52"/><path d="M0.00 -8.05 L5.29 0.00 L0.00 8.05 L-5.29 0.00Z" fill="#0E9E8C" fill-opacity="0.96"/><line x1="13.80" y1="0.00" x2="46.92" y2="0.00" stroke="#FFFFFF" stroke-width="0.6" stroke-opacity="0.26"/><line x1="9.76" y1="9.76" x2="33.18" y2="33.18" stroke="#FFFFFF" stroke-width="0.6" stroke-opacity="0.26"/><line x1="0.00" y1="13.80" x2="0.00" y2="46.92" stroke="#FFFFFF" stroke-width="0.6" stroke-opacity="0.26"/><line x1="-9.76" y1="9.76" x2="-33.18" y2="33.18" stroke="#FFFFFF" stroke-width="0.6" stroke-opacity="0.26"/><line x1="-13.80" y1="0.00" x2="-46.92" y2="0.00" stroke="#FFFFFF" stroke-width="0.6" stroke-opacity="0.26"/><line x1="-9.76" y1="-9.76" x2="-33.18" y2="-33.18" stroke="#FFFFFF" stroke-width="0.6" stroke-opacity="0.26"/><line x1="-0.00" y1="-13.80" x2="-0.00" y2="-46.92" stroke="#FFFFFF" stroke-width="0.6" stroke-opacity="0.26"/><line x1="9.76" y1="-9.76" x2="33.18" y2="-33.18" stroke="#FFFFFF" stroke-width="0.6" stroke-opacity="0.26"/></g><line x1="62" y1="274" x2="272" y2="274" stroke="#D2DBE7" stroke-width="1"/><line x1="62.0" y1="274" x2="62.0" y2="268.0" stroke="#D2DBE7" stroke-width="1" opacity="0.80"/><line x1="92.0" y1="274" x2="92.0" y2="271.5" stroke="#D2DBE7" stroke-width="1" opacity="0.35"/><line x1="122.0" y1="274" x2="122.0" y2="271.5" stroke="#D2DBE7" stroke-width="1" opacity="0.35"/><line x1="152.0" y1="274" x2="152.0" y2="271.5" stroke="#D2DBE7" stroke-width="1" opacity="0.35"/><line x1="182.0" y1="274" x2="182.0" y2="268.0" stroke="#D2DBE7" stroke-width="1" opacity="0.80"/><line x1="212.0" y1="274" x2="212.0" y2="271.5" stroke="#D2DBE7" stroke-width="1" opacity="0.35"/><line x1="242.0" y1="274" x2="242.0" y2="271.5" stroke="#D2DBE7" stroke-width="1" opacity="0.35"/><line x1="272.0" y1="274" x2="272.0" y2="271.5" stroke="#D2DBE7" stroke-width="1" opacity="0.35"/><text x="62.00" y="306.00" font-family="-apple-system, BlinkMacSystemFont, 'Segoe UI', Inter, Helvetica, Arial, sans-serif" font-size="9.5" font-weight="500" fill="#6B7688" letter-spacing="2.6" opacity="0.55">NOAERTH.COM</text><text x="62.00" y="326.00" font-family="-apple-system, BlinkMacSystemFont, 'Segoe UI', Inter, Helvetica, Arial, sans-serif" font-size="9.5" font-weight="500" fill="#6B7688" letter-spacing="2.6" opacity="0.55">GITHUB @M4G3LL4N0</text><text x="62.00" y="366.00" font-family="-apple-system, BlinkMacSystemFont, 'Segoe UI', Inter, Helvetica, Arial, sans-serif" font-size="8.5" font-weight="500" fill="#6B7688" letter-spacing="1.6" opacity="0.34">SYSTEMS BUILDER · HACKER · CREATIVE TECHNOLOGIST</text></svg>