<svg xmlns="http://www.w3.org/2000/svg" viewBox="0 0 1200 560" width="1200" height="560" role="img" aria-label="Oddbotix hero">
<title>Oddbotix hero</title>
<rect width="1200" height="560" fill="#0c1024"/>
<defs><linearGradient id="gh" x1="0" y1="0" x2="1" y2="1"><stop offset="0%" stop-color="#7c83ff"/><stop offset="100%" stop-color="#b794f4"/></linearGradient></defs><line x1="90" y1="308.0" x2="1110" y2="308.0" stroke="rgba(238,240,251,0.280)" stroke-width="1.4"/><line x1="96.00" y1="308.00" x2="118.22" y2="306.65" stroke="rgba(124,131,255,0.800)" stroke-width="2.20" opacity="0.55"/><line x1="118.22" y1="306.65" x2="140.44" y2="307.25" stroke="rgba(124,131,255,0.800)" stroke-width="2.20" opacity="0.55"/><line x1="140.44" y1="307.25" x2="162.67" y2="304.40" stroke="rgba(124,131,255,0.800)" stroke-width="2.20" opacity="0.55"/><line x1="162.67" y1="304.40" x2="184.89" y2="306.31" stroke="rgba(124,131,255,0.800)" stroke-width="2.20" opacity="0.55"/><line x1="184.89" y1="306.31" x2="207.11" y2="300.88" stroke="rgba(124,131,255,0.800)" stroke-width="2.20" opacity="0.55"/><line x1="207.11" y1="300.88" x2="229.33" y2="304.28" stroke="rgba(124,131,255,0.800)" stroke-width="2.20" opacity="0.55"/><line x1="229.33" y1="304.28" x2="251.56" y2="298.50" stroke="rgba(124,131,255,0.800)" stroke-width="2.20" opacity="0.55"/><line x1="251.56" y1="298.50" x2="273.78" y2="305.18" stroke="rgba(124,131,255,0.800)" stroke-width="2.20" opacity="0.55"/><line x1="273.78" y1="305.18" x2="296.00" y2="298.69" stroke="rgba(124,131,255,0.800)" stroke-width="2.20" opacity="0.55"/><line x1="296.00" y1="298.69" x2="318.22" y2="304.65" stroke="rgba(124,131,255,0.800)" stroke-width="2.20" opacity="0.55"/><line x1="318.22" y1="304.65" x2="340.44" y2="303.81" stroke="rgba(124,131,255,0.800)" stroke-width="2.20" opacity="0.55"/><line x1="340.44" y1="303.81" x2="362.67" y2="294.63" stroke="rgba(124,131,255,0.800)" stroke-width="2.20" opacity="0.55"/><line x1="362.67" y1="294.63" x2="384.89" y2="300.53" stroke="rgba(124,131,255,0.800)" stroke-width="2.20" opacity="0.55"/><line x1="384.89" y1="300.53" x2="407.11" y2="289.61" stroke="rgba(124,131,255,0.800)" stroke-width="2.20" opacity="0.55"/><line x1="407.11" y1="289.61" x2="429.33" y2="302.49" stroke="rgba(124,131,255,0.800)" stroke-width="2.20" opacity="0.55"/><line x1="429.33" y1="302.49" x2="451.56" y2="285.93" stroke="rgba(124,131,255,0.800)" stroke-width="2.20" opacity="0.55"/><line x1="451.56" y1="285.93" x2="473.78" y2="295.31" stroke="rgba(124,131,255,0.800)" stroke-width="2.20" opacity="0.55"/><line x1="473.78" y1="295.31" x2="496.00" y2="288.31" stroke="rgba(124,131,255,0.800)" stroke-width="2.20" opacity="0.55"/><line x1="496.00" y1="288.31" x2="518.22" y2="283.98" stroke="rgba(124,131,255,0.800)" stroke-width="2.20" opacity="0.55"/><line x1="518.22" y1="283.98" x2="540.44" y2="278.84" stroke="rgba(124,131,255,0.800)" stroke-width="2.20" opacity="0.55"/><line x1="540.44" y1="278.84" x2="562.67" y2="280.55" stroke="rgba(124,131,255,0.800)" stroke-width="2.20" opacity="0.55"/><line x1="562.67" y1="280.55" x2="584.89" y2="296.51" stroke="rgba(124,131,255,0.800)" stroke-width="2.20" opacity="0.55"/><line x1="584.89" y1="296.51" x2="607.11" y2="276.72" stroke="rgba(124,131,255,0.800)" stroke-width="2.20" opacity="0.55"/><line x1="607.11" y1="276.72" x2="629.33" y2="293.12" stroke="rgba(124,131,255,0.800)" stroke-width="2.20" opacity="0.55"/><line x1="629.33" y1="293.12" x2="651.56" y2="279.20" stroke="rgba(124,131,255,0.800)" stroke-width="2.20" opacity="0.55"/><line x1="651.56" y1="279.20" x2="673.78" y2="300.06" stroke="rgba(124,131,255,0.800)" stroke-width="2.20" opacity="0.55"/><line x1="673.78" y1="300.06" x2="696.00" y2="288.58" stroke="rgba(124,131,255,0.800)" stroke-width="2.20" opacity="0.55"/><line x1="696.00" y1="288.58" x2="718.22" y2="274.05" stroke="rgba(124,131,255,0.800)" stroke-width="2.20" opacity="0.55"/><line x1="718.22" y1="274.05" x2="740.44" y2="292.85" stroke="rgba(124,131,255,0.800)" stroke-width="2.20" opacity="0.55"/><line x1="740.44" y1="292.85" x2="762.67" y2="274.21" stroke="rgba(124,131,255,0.800)" stroke-width="2.20" opacity="0.55"/><line x1="762.67" y1="274.21" x2="784.89" y2="289.66" stroke="rgba(124,131,255,0.800)" stroke-width="2.20" opacity="0.55"/><line x1="784.89" y1="289.66" x2="807.11" y2="265.54" stroke="rgba(124,131,255,0.800)" stroke-width="2.20" opacity="0.55"/><line x1="807.11" y1="265.54" x2="829.33" y2="293.96" stroke="rgba(124,131,255,0.800)" stroke-width="2.20" opacity="0.55"/><line x1="829.33" y1="293.96" x2="851.56" y2="276.11" stroke="rgba(124,131,255,0.800)" stroke-width="2.20" opacity="0.55"/><line x1="851.56" y1="276.11" x2="873.78" y2="263.58" stroke="rgba(124,131,255,0.800)" stroke-width="2.20" opacity="0.55"/><line x1="873.78" y1="263.58" x2="896.00" y2="290.44" stroke="rgba(124,131,255,0.800)" stroke-width="2.20" opacity="0.55"/><line x1="896.00" y1="290.44" x2="918.22" y2="270.44" stroke="rgba(124,131,255,0.800)" stroke-width="2.20" opacity="0.55"/><line x1="918.22" y1="270.44" x2="940.44" y2="291.65" stroke="rgba(124,131,255,0.800)" stroke-width="2.20" opacity="0.55"/><line x1="940.44" y1="291.65" x2="962.67" y2="284.79" stroke="rgba(124,131,255,0.800)" stroke-width="2.20" opacity="0.55"/><line x1="962.67" y1="284.79" x2="984.89" y2="267.57" stroke="rgba(124,131,255,0.800)" stroke-width="2.20" opacity="0.55"/><line x1="984.89" y1="267.57" x2="1007.11" y2="261.19" stroke="rgba(124,131,255,0.800)" stroke-width="2.20" opacity="0.55"/><line x1="1007.11" y1="261.19" x2="1029.33" y2="252.60" stroke="rgba(124,131,255,0.800)" stroke-width="2.20" opacity="0.55"/><line x1="1029.33" y1="252.60" x2="1051.56" y2="263.81" stroke="rgba(124,131,255,0.800)" stroke-width="2.20" opacity="0.55"/><line x1="1051.56" y1="263.81" x2="1073.78" y2="272.62" stroke="rgba(124,131,255,0.800)" stroke-width="2.20" opacity="0.55"/><line x1="1073.78" y1="272.62" x2="1096.00" y2="272.19" stroke="rgba(124,131,255,0.800)" stroke-width="2.20" opacity="0.55"/><circle cx="96.00" cy="308.00" r="6.00" fill="#4cc9f0" opacity="1.00" stroke="#0c1024" stroke-width="2.00"/><g><circle cx="96.00" cy="308.00" r="10.00" fill="rgba(183,148,244,0.500)" opacity="1.00"/><animate attributeName="opacity" values="0.25;1.0;0.25" dur="8.1875s" begin="3.17s" repeatCount="indefinite" /></g><circle cx="251.56" cy="298.50" r="6.00" fill="#4cc9f0" opacity="1.00" stroke="#0c1024" stroke-width="2.00"/><g><circle cx="251.56" cy="298.50" r="10.00" fill="rgba(183,148,244,0.500)" opacity="1.00"/><animate attributeName="opacity" values="0.25;1.0;0.25" dur="8.1875s" begin="4.01s" repeatCount="indefinite" /></g><circle cx="407.11" cy="289.61" r="6.00" fill="#4cc9f0" opacity="1.00" stroke="#0c1024" stroke-width="2.00"/><g><circle cx="407.11" cy="289.61" r="10.00" fill="rgba(183,148,244,0.500)" opacity="1.00"/><animate attributeName="opacity" values="0.25;1.0;0.25" dur="8.1875s" begin="4.85s" repeatCount="indefinite" /></g><circle cx="562.67" cy="280.55" r="6.00" fill="#4cc9f0" opacity="1.00" stroke="#0c1024" stroke-width="2.00"/><g><circle cx="562.67" cy="280.55" r="10.00" fill="rgba(183,148,244,0.500)" opacity="1.00"/><animate attributeName="opacity" values="0.25;1.0;0.25" dur="8.1875s" begin="5.6899999999999995s" repeatCount="indefinite" /></g><circle cx="718.22" cy="274.05" r="6.00" fill="#4cc9f0" opacity="1.00" stroke="#0c1024" stroke-width="2.00"/><g><circle cx="718.22" cy="274.05" r="10.00" fill="rgba(183,148,244,0.500)" opacity="1.00"/><animate attributeName="opacity" values="0.25;1.0;0.25" dur="8.1875s" begin="6.529999999999999s" repeatCount="indefinite" /></g><circle cx="873.78" cy="263.58" r="6.00" fill="#4cc9f0" opacity="1.00" stroke="#0c1024" stroke-width="2.00"/><g><circle cx="873.78" cy="263.58" r="10.00" fill="rgba(183,148,244,0.500)" opacity="1.00"/><animate attributeName="opacity" values="0.25;1.0;0.25" dur="8.1875s" begin="7.37s" repeatCount="indefinite" /></g><circle cx="1029.33" cy="252.60" r="6.00" fill="#4cc9f0" opacity="1.00" stroke="#0c1024" stroke-width="2.00"/><g><circle cx="1029.33" cy="252.60" r="10.00" fill="rgba(183,148,244,0.500)" opacity="1.00"/><animate attributeName="opacity" values="0.25;1.0;0.25" dur="8.1875s" begin="8.21s" repeatCount="indefinite" /></g><rect x="110.00" y="400.00" width="96.00" height="5.00" rx="3.00" fill="rgba(183,148,244,0.420)" opacity="1.00"/><rect x="278.00" y="400.00" width="96.00" height="12.00" rx="3.00" fill="rgba(183,148,244,0.420)" opacity="1.00"/><rect x="446.00" y="400.00" width="96.00" height="19.00" rx="3.00" fill="rgba(183,148,244,0.420)" opacity="1.00"/><rect x="614.00" y="400.00" width="96.00" height="26.00" rx="3.00" fill="rgba(183,148,244,0.420)" opacity="1.00"/><rect x="782.00" y="400.00" width="96.00" height="33.00" rx="3.00" fill="rgba(183,148,244,0.420)" opacity="1.00"/><rect x="950.00" y="400.00" width="96.00" height="6.00" rx="3.00" fill="rgba(183,148,244,0.420)" opacity="1.00"/>
</svg>