<svg xmlns="http://www.w3.org/2000/svg" width="900" height="470" viewBox="0 0 900 470" role="img" aria-label="DUNG30N5 x NOAERTH - how data moves"><linearGradient id="skyd" x1="0" y1="0" x2="0" y2="1"><stop offset="0" stop-color="#1b2a4a"/><stop offset="0.55" stop-color="#1b2a4a"/><stop offset="0.88" stop-color="#f3b594"/><stop offset="1" stop-color="#f4c5a6"/></linearGradient><radialGradient id="halod"><stop offset="0.30" stop-color="#f5c95c" stop-opacity="0.42"/><stop offset="1" stop-color="#f5c95c" stop-opacity="0"/></radialGradient><linearGradient id="aod" x1="0" y1="0" x2="0" y2="1"><stop offset="0" stop-color="#1b2a4a" stop-opacity="0.20"/><stop offset="1" stop-color="#1b2a4a" stop-opacity="0"/></linearGradient><radialGradient id="castd"><stop offset="0" stop-color="#8a5a44" stop-opacity="0.34"/><stop offset="0.7" stop-color="#8a5a44" stop-opacity="0.10"/><stop offset="1" stop-color="#8a5a44" stop-opacity="0"/></radialGradient><linearGradient id="floord" x1="0" y1="0" x2="0" y2="1"><stop offset="0" stop-color="#e6c799"/><stop offset="0.35" stop-color="#e3c08d"/><stop offset="1" stop-color="#c3a882"/></linearGradient><radialGradient id="lampgd"><stop offset="0.15" stop-color="#f5c95c" stop-opacity="0.62"/><stop offset="1" stop-color="#f5c95c" stop-opacity="0"/></radialGradient><linearGradient id="nskyd" x1="0" y1="0" x2="0" y2="1"><stop offset="0" stop-color="#1b2a4a"/><stop offset="0.7" stop-color="#2c4768"/><stop offset="1" stop-color="#6c8498"/></linearGradient><rect width="900" height="470" fill="url(#nskyd)"/><circle cx="0" cy="0" r="1.1" fill="#f6e7ce" opacity="0.28"/><circle cx="173" cy="97" r="1.74" fill="#f6e7ce" opacity="0.38"/><circle cx="346" cy="194" r="2.38" fill="#f6e7ce" opacity="0.48"/><circle cx="519" cy="0" r="1.42" fill="#f6e7ce" opacity="0.58"/><circle cx="692" cy="97" r="2.06" fill="#f6e7ce" opacity="0.68"/><circle cx="865" cy="194" r="1.1" fill="#f6e7ce" opacity="0.78"/><circle cx="138" cy="0" r="1.74" fill="#f6e7ce" opacity="0.28"/><circle cx="311" cy="97" r="2.38" fill="#f6e7ce" opacity="0.38"/><circle cx="484" cy="194" r="1.42" fill="#f6e7ce" opacity="0.48"/><circle cx="657" cy="0" r="2.06" fill="#f6e7ce" opacity="0.58"/><circle cx="830" cy="97" r="1.1" fill="#f6e7ce" opacity="0.68"/><circle cx="103" cy="194" r="1.74" fill="#f6e7ce" opacity="0.78"/><circle cx="276" cy="0" r="2.38" fill="#f6e7ce" opacity="0.28"/><circle cx="449" cy="97" r="1.42" fill="#f6e7ce" opacity="0.38"/><circle cx="622" cy="194" r="2.06" fill="#f6e7ce" opacity="0.48"/><circle cx="795" cy="0" r="1.1" fill="#f6e7ce" opacity="0.58"/><circle cx="68" cy="97" r="1.74" fill="#f6e7ce" opacity="0.68"/><circle cx="241" cy="194" r="2.38" fill="#f6e7ce" opacity="0.78"/><circle cx="414" cy="0" r="1.42" fill="#f6e7ce" opacity="0.28"/><circle cx="587" cy="97" r="2.06" fill="#f6e7ce" opacity="0.38"/><circle cx="760" cy="194" r="1.1" fill="#f6e7ce" opacity="0.48"/><circle cx="33" cy="0" r="1.74" fill="#f6e7ce" opacity="0.58"/><circle cx="206" cy="97" r="2.38" fill="#f6e7ce" opacity="0.68"/><circle cx="379" cy="194" r="1.42" fill="#f6e7ce" opacity="0.78"/><circle cx="552" cy="0" r="2.06" fill="#f6e7ce" opacity="0.28"/><circle cx="725" cy="97" r="1.1" fill="#f6e7ce" opacity="0.38"/><circle cx="898" cy="194" r="1.74" fill="#f6e7ce" opacity="0.48"/><circle cx="171" cy="0" r="2.38" fill="#f6e7ce" opacity="0.58"/><circle cx="344" cy="97" r="1.42" fill="#f6e7ce" opacity="0.68"/><circle cx="517" cy="194" r="2.06" fill="#f6e7ce" opacity="0.78"/><circle cx="690" cy="0" r="1.1" fill="#f6e7ce" opacity="0.28"/><circle cx="863" cy="97" r="1.74" fill="#f6e7ce" opacity="0.38"/><circle cx="136" cy="194" r="2.38" fill="#f6e7ce" opacity="0.48"/><circle cx="309" cy="0" r="1.42" fill="#f6e7ce" opacity="0.58"/><circle cx="482" cy="97" r="2.06" fill="#f6e7ce" opacity="0.68"/><circle cx="655" cy="194" r="1.1" fill="#f6e7ce" opacity="0.78"/><circle cx="828" cy="0" r="1.74" fill="#f6e7ce" opacity="0.28"/><circle cx="101" cy="97" r="2.38" fill="#f6e7ce" opacity="0.38"/><circle cx="274" cy="194" r="1.42" fill="#f6e7ce" opacity="0.48"/><circle cx="447" cy="0" r="2.06" fill="#f6e7ce" opacity="0.58"/><circle cx="620" cy="97" r="1.1" fill="#f6e7ce" opacity="0.68"/><circle cx="793" cy="194" r="1.74" fill="#f6e7ce" opacity="0.78"/><circle cx="66" cy="0" r="2.38" fill="#f6e7ce" opacity="0.28"/><circle cx="239" cy="97" r="1.42" fill="#f6e7ce" opacity="0.38"/><circle cx="412" cy="194" r="2.06" fill="#f6e7ce" opacity="0.48"/><circle cx="585" cy="0" r="1.1" fill="#f6e7ce" opacity="0.58"/><g><circle cx="750" cy="96" r="71.4" fill="rgba(246,231,206,0.13)"/><circle cx="750" cy="96" r="34" fill="#f6e7ce"/><circle cx="761.56" cy="89.2" r="8.16" fill="#ceb088" opacity="0.5"/><circle cx="739.8" cy="107.56" r="6.12" fill="#d1b389" opacity="0.4"/></g><rect x="0" y="276" width="900" height="96" fill="rgba(242,160,123,0.06)"/><rect x="0" y="372" width="900" height="24" fill="#e3c08d"/><rect x="0" y="396" width="900" height="4" fill="#e1c59d"/><rect x="0" y="400" width="900" height="3" fill="#b79f80"/><rect x="0" y="396" width="900" height="74" fill="#3a5574"/><rect x="54" y="424.12" width="93.46" height="45.88" rx="3" fill="#f6e7ce" opacity="0.82"/><rect x="192.46" y="420.05" width="93.46" height="49.95" rx="3" fill="#f6e7ce" opacity="0.82"/><rect x="330.92" y="415.98" width="93.46" height="54.02" rx="3" fill="#f6e7ce" opacity="0.82"/><rect x="469.38" y="411.91" width="93.46" height="58.09" rx="3" fill="#f6e7ce" opacity="0.82"/><rect x="607.85" y="407.84" width="93.46" height="62.16" rx="3" fill="#f6e7ce" opacity="0.82"/><rect x="746.31" y="403.77" width="93.46" height="66.23" rx="3" fill="#f6e7ce" opacity="0.82"/><rect x="884.77" y="399.7" width="93.46" height="70.3" rx="3" fill="#f6e7ce" opacity="0.82"/><rect x="0" y="396" width="900" height="16" fill="rgba(242,160,123,0.10)"/><g opacity="0.66"><ellipse cx="77" cy="376" rx="72.8" ry="9" fill="url(#castd)" transform="skewX(-4)"/><path d="M0,130 L130,130 L145,115 L15,115 Z" fill="#bc7a62"/><rect x="0" y="130" width="130" height="242" fill="#a8543c"/><rect x="130" y="130" width="15" height="242" fill="#894b3f"/><rect x="0" y="130" width="130" height="4" fill="#b66e56" opacity="0.7"/><rect x="0" y="173.4" width="130" height="5" fill="#914d3e" opacity="0.6"/><rect x="14.3" y="140.65" width="36.4" height="22.26" rx="3.12" fill="#674142"/><rect x="17.94" y="143.32" width="29.12" height="16.92" fill="#7e4740"/><rect x="20.12" y="144.66" width="24.75" height="14.25" fill="#e8bf5b"/><circle cx="32.5" cy="151.78" r="32.76" fill="url(#lampgd)" opacity="0.85"/><rect x="31.04" y="144.66" width="2.18" height="14.25" fill="#998654"/><rect x="14.3" y="140.65" width="36.4" height="2" rx="1" fill="#bc7a62"/><rect x="79.3" y="140.65" width="36.4" height="22.26" rx="3.12" fill="#674142"/><rect x="82.94" y="143.32" width="29.12" height="16.92" fill="#7e4740"/><rect x="85.12" y="144.66" width="24.75" height="14.25" fill="#e8bf5b"/><circle cx="97.5" cy="151.78" r="32.76" fill="url(#lampgd)" opacity="0.85"/><rect x="96.04" y="144.66" width="2.18" height="14.25" fill="#998654"/><rect x="79.3" y="140.65" width="36.4" height="2" rx="1" fill="#bc7a62"/><rect x="0" y="178.4" width="130" height="4" fill="#b66e56" opacity="0.7"/><rect x="0" y="221.8" width="130" height="5" fill="#914d3e" opacity="0.6"/><rect x="14.3" y="189.05" width="36.4" height="22.26" rx="3.12" fill="#674142"/><rect x="17.94" y="191.72" width="29.12" height="16.92" fill="#7e4740"/><rect x="20.12" y="193.06" width="24.75" height="14.25" fill="#929fa7" opacity="0.5"/><rect x="14.3" y="189.05" width="36.4" height="2" rx="1" fill="#bc7a62"/><rect x="79.3" y="189.05" width="36.4" height="22.26" rx="3.12" fill="#674142"/><rect x="82.94" y="191.72" width="29.12" height="16.92" fill="#7e4740"/><rect x="85.12" y="193.06" width="24.75" height="14.25" fill="#e8bf5b"/><circle cx="97.5" cy="200.18" r="32.76" fill="url(#lampgd)" opacity="0.85"/><rect x="96.04" y="193.06" width="2.18" height="14.25" fill="#998654"/><rect x="79.3" y="189.05" width="36.4" height="2" rx="1" fill="#bc7a62"/><rect x="0" y="226.8" width="130" height="4" fill="#b66e56" opacity="0.7"/><rect x="0" y="270.2" width="130" height="5" fill="#914d3e" opacity="0.6"/><rect x="14.3" y="237.45" width="36.4" height="22.26" rx="3.12" fill="#674142"/><rect x="17.94" y="240.12" width="29.12" height="16.92" fill="#7e4740"/><rect x="20.12" y="241.46" width="24.75" height="14.25" fill="#e8bf5b"/><circle cx="32.5" cy="248.58" r="32.76" fill="url(#lampgd)" opacity="0.85"/><rect x="31.04" y="241.46" width="2.18" height="14.25" fill="#998654"/><rect x="14.3" y="237.45" width="36.4" height="2" rx="1" fill="#bc7a62"/><rect x="79.3" y="237.45" width="36.4" height="22.26" rx="3.12" fill="#674142"/><rect x="82.94" y="240.12" width="29.12" height="16.92" fill="#7e4740"/><rect x="85.12" y="241.46" width="24.75" height="14.25" fill="#929fa7" opacity="0.5"/><rect x="79.3" y="237.45" width="36.4" height="2" rx="1" fill="#bc7a62"/><rect x="0" y="275.2" width="130" height="4" fill="#b66e56" opacity="0.7"/><rect x="0" y="318.6" width="130" height="5" fill="#914d3e" opacity="0.6"/><rect x="14.3" y="285.85" width="36.4" height="22.26" rx="3.12" fill="#674142"/><rect x="17.94" y="288.52" width="29.12" height="16.92" fill="#7e4740"/><rect x="20.12" y="289.86" width="24.75" height="14.25" fill="#e8bf5b"/><circle cx="32.5" cy="296.98" r="32.76" fill="url(#lampgd)" opacity="0.85"/><rect x="31.04" y="289.86" width="2.18" height="14.25" fill="#998654"/><rect x="14.3" y="285.85" width="36.4" height="2" rx="1" fill="#bc7a62"/><rect x="79.3" y="285.85" width="36.4" height="22.26" rx="3.12" fill="#674142"/><rect x="82.94" y="288.52" width="29.12" height="16.92" fill="#7e4740"/><rect x="85.12" y="289.86" width="24.75" height="14.25" fill="#e8bf5b"/><circle cx="97.5" cy="296.98" r="32.76" fill="url(#lampgd)" opacity="0.85"/><rect x="96.04" y="289.86" width="2.18" height="14.25" fill="#998654"/><rect x="79.3" y="285.85" width="36.4" height="2" rx="1" fill="#bc7a62"/><rect x="0" y="323.6" width="130" height="4" fill="#b66e56" opacity="0.7"/><rect x="0" y="367" width="130" height="5" fill="#914d3e" opacity="0.6"/><rect x="14.3" y="334.25" width="36.4" height="22.26" rx="3.12" fill="#674142"/><rect x="17.94" y="336.92" width="29.12" height="16.92" fill="#7e4740"/><rect x="20.12" y="338.26" width="24.75" height="14.25" fill="#929fa7" opacity="0.5"/><rect x="14.3" y="334.25" width="36.4" height="2" rx="1" fill="#bc7a62"/><rect x="79.3" y="334.25" width="36.4" height="22.26" rx="3.12" fill="#674142"/><rect x="82.94" y="336.92" width="29.12" height="16.92" fill="#7e4740"/><rect x="85.12" y="338.26" width="24.75" height="14.25" fill="#e8bf5b"/><circle cx="97.5" cy="345.38" r="32.76" fill="url(#lampgd)" opacity="0.85"/><rect x="96.04" y="338.26" width="2.18" height="14.25" fill="#998654"/><rect x="79.3" y="334.25" width="36.4" height="2" rx="1" fill="#bc7a62"/></g><g opacity="0.74"><ellipse cx="812" cy="376" rx="112" ry="9" fill="url(#castd)" transform="skewX(-4)"/><path d="M700,110 L900,110 L915,95 L715,95 Z" fill="#e79079"/><rect x="700" y="110" width="200" height="262" fill="#e2725b"/><rect x="900" y="110" width="15" height="262" fill="#b66257"/><rect x="700" y="110" width="200" height="4" fill="#e68770" opacity="0.7"/><rect x="700" y="148.67" width="200" height="5" fill="#c26658" opacity="0.6"/><rect x="711" y="119.61" width="28" height="20.09" rx="2.81" fill="#865153"/><rect x="713.8" y="122.02" width="22.4" height="15.27" fill="#a65c56"/><rect x="715.48" y="123.22" width="19.04" height="12.86" fill="#e8bf5b"/><circle cx="725" cy="129.65" r="25.2" fill="url(#lampgd)" opacity="0.85"/><rect x="723.88" y="123.22" width="1.68" height="12.86" fill="#998654"/><rect x="711" y="119.61" width="28" height="2" rx="1" fill="#e79079"/><rect x="761" y="119.61" width="28" height="20.09" rx="2.81" fill="#865153"/><rect x="763.8" y="122.02" width="22.4" height="15.27" fill="#a65c56"/><rect x="765.48" y="123.22" width="19.04" height="12.86" fill="#929fa7" opacity="0.5"/><rect x="761" y="119.61" width="28" height="2" rx="1" fill="#e79079"/><rect x="811" y="119.61" width="28" height="20.09" rx="2.81" fill="#865153"/><rect x="813.8" y="122.02" width="22.4" height="15.27" fill="#a65c56"/><rect x="815.48" y="123.22" width="19.04" height="12.86" fill="#e8bf5b"/><circle cx="825" cy="129.65" r="25.2" fill="url(#lampgd)" opacity="0.85"/><rect x="823.88" y="123.22" width="1.68" height="12.86" fill="#998654"/><rect x="811" y="119.61" width="28" height="2" rx="1" fill="#e79079"/><rect x="861" y="119.61" width="28" height="20.09" rx="2.81" fill="#865153"/><rect x="863.8" y="122.02" width="22.4" height="15.27" fill="#a65c56"/><rect x="865.48" y="123.22" width="19.04" height="12.86" fill="#e8bf5b"/><circle cx="875" cy="129.65" r="25.2" fill="url(#lampgd)" opacity="0.85"/><rect x="873.88" y="123.22" width="1.68" height="12.86" fill="#998654"/><rect x="861" y="119.61" width="28" height="2" rx="1" fill="#e79079"/><rect x="700" y="153.67" width="200" height="4" fill="#e68770" opacity="0.7"/><rect x="700" y="192.33" width="200" height="5" fill="#c26658" opacity="0.6"/><rect x="711" y="163.27" width="28" height="20.09" rx="2.81" fill="#865153"/><rect x="713.8" y="165.68" width="22.4" height="15.27" fill="#a65c56"/><rect x="715.48" y="166.89" width="19.04" height="12.86" fill="#e8bf5b"/><circle cx="725" cy="173.32" r="25.2" fill="url(#lampgd)" opacity="0.85"/><rect x="723.88" y="166.89" width="1.68" height="12.86" fill="#998654"/><rect x="711" y="163.27" width="28" height="2" rx="1" fill="#e79079"/><rect x="761" y="163.27" width="28" height="20.09" rx="2.81" fill="#865153"/><rect x="763.8" y="165.68" width="22.4" height="15.27" fill="#a65c56"/><rect x="765.48" y="166.89" width="19.04" height="12.86" fill="#e8bf5b"/><circle cx="775" cy="173.32" r="25.2" fill="url(#lampgd)" opacity="0.85"/><rect x="773.88" y="166.89" width="1.68" height="12.86" fill="#998654"/><rect x="761" y="163.27" width="28" height="2" rx="1" fill="#e79079"/><rect x="811" y="163.27" width="28" height="20.09" rx="2.81" fill="#865153"/><rect x="813.8" y="165.68" width="22.4" height="15.27" fill="#a65c56"/><rect x="815.48" y="166.89" width="19.04" height="12.86" fill="#929fa7" opacity="0.5"/><rect x="811" y="163.27" width="28" height="2" rx="1" fill="#e79079"/><rect x="861" y="163.27" width="28" height="20.09" rx="2.81" fill="#865153"/><rect x="863.8" y="165.68" width="22.4" height="15.27" fill="#a65c56"/><rect x="865.48" y="166.89" width="19.04" height="12.86" fill="#e8bf5b"/><circle cx="875" cy="173.32" r="25.2" fill="url(#lampgd)" opacity="0.85"/><rect x="873.88" y="166.89" width="1.68" height="12.86" fill="#998654"/><rect x="861" y="163.27" width="28" height="2" rx="1" fill="#e79079"/><rect x="700" y="197.33" width="200" height="4" fill="#e68770" opacity="0.7"/><rect x="700" y="236" width="200" height="5" fill="#c26658" opacity="0.6"/><rect x="711" y="206.94" width="28" height="20.09" rx="2.81" fill="#865153"/><rect x="713.8" y="209.35" width="22.4" height="15.27" fill="#a65c56"/><rect x="715.48" y="210.56" width="19.04" height="12.86" fill="#929fa7" opacity="0.5"/><rect x="711" y="206.94" width="28" height="2" rx="1" fill="#e79079"/><rect x="761" y="206.94" width="28" height="20.09" rx="2.81" fill="#865153"/><rect x="763.8" y="209.35" width="22.4" height="15.27" fill="#a65c56"/><rect x="765.48" y="210.56" width="19.04" height="12.86" fill="#e8bf5b"/><circle cx="775" cy="216.98" r="25.2" fill="url(#lampgd)" opacity="0.85"/><rect x="773.88" y="210.56" width="1.68" height="12.86" fill="#998654"/><rect x="761" y="206.94" width="28" height="2" rx="1" fill="#e79079"/><rect x="811" y="206.94" width="28" height="20.09" rx="2.81" fill="#865153"/><rect x="813.8" y="209.35" width="22.4" height="15.27" fill="#a65c56"/><rect x="815.48" y="210.56" width="19.04" height="12.86" fill="#e8bf5b"/><circle cx="825" cy="216.98" r="25.2" fill="url(#lampgd)" opacity="0.85"/><rect x="823.88" y="210.56" width="1.68" height="12.86" fill="#998654"/><rect x="811" y="206.94" width="28" height="2" rx="1" fill="#e79079"/><rect x="861" y="206.94" width="28" height="20.09" rx="2.81" fill="#865153"/><rect x="863.8" y="209.35" width="22.4" height="15.27" fill="#a65c56"/><rect x="865.48" y="210.56" width="19.04" height="12.86" fill="#929fa7" opacity="0.5"/><rect x="861" y="206.94" width="28" height="2" rx="1" fill="#e79079"/><rect x="725" y="232.27" width="150" height="9" fill="#f6e7ce"/><rect x="725" y="241.27" width="150" height="7.2" fill="#f6e7ce"/><rect x="725" y="226.27" width="150" height="4" rx="2" fill="#f6e7ce"/><rect x="725" y="210.27" width="3.4" height="20" rx="1.6" fill="#f6e7ce"/><rect x="762.5" y="210.27" width="3.4" height="20" rx="1.6" fill="#f6e7ce"/><rect x="800" y="210.27" width="3.4" height="20" rx="1.6" fill="#f6e7ce"/><rect x="837.5" y="210.27" width="3.4" height="20" rx="1.6" fill="#f6e7ce"/><rect x="875" y="210.27" width="3.4" height="20" rx="1.6" fill="#f6e7ce"/><rect x="700" y="241" width="200" height="4" fill="#e68770" opacity="0.7"/><rect x="700" y="279.67" width="200" height="5" fill="#c26658" opacity="0.6"/><rect x="711" y="250.61" width="28" height="20.09" rx="2.81" fill="#865153"/><rect x="713.8" y="253.02" width="22.4" height="15.27" fill="#a65c56"/><rect x="715.48" y="254.22" width="19.04" height="12.86" fill="#929fa7" opacity="0.5"/><rect x="711" y="250.61" width="28" height="2" rx="1" fill="#e79079"/><rect x="761" y="250.61" width="28" height="20.09" rx="2.81" fill="#865153"/><rect x="763.8" y="253.02" width="22.4" height="15.27" fill="#a65c56"/><rect x="765.48" y="254.22" width="19.04" height="12.86" fill="#929fa7" opacity="0.5"/><rect x="761" y="250.61" width="28" height="2" rx="1" fill="#e79079"/><rect x="811" y="250.61" width="28" height="20.09" rx="2.81" fill="#865153"/><rect x="813.8" y="253.02" width="22.4" height="15.27" fill="#a65c56"/><rect x="815.48" y="254.22" width="19.04" height="12.86" fill="#e8bf5b"/><circle cx="825" cy="260.65" r="25.2" fill="url(#lampgd)" opacity="0.85"/><rect x="823.88" y="254.22" width="1.68" height="12.86" fill="#998654"/><rect x="811" y="250.61" width="28" height="2" rx="1" fill="#e79079"/><rect x="861" y="250.61" width="28" height="20.09" rx="2.81" fill="#865153"/><rect x="863.8" y="253.02" width="22.4" height="15.27" fill="#a65c56"/><rect x="865.48" y="254.22" width="19.04" height="12.86" fill="#e8bf5b"/><circle cx="875" cy="260.65" r="25.2" fill="url(#lampgd)" opacity="0.85"/><rect x="873.88" y="254.22" width="1.68" height="12.86" fill="#998654"/><rect x="861" y="250.61" width="28" height="2" rx="1" fill="#e79079"/><rect x="700" y="284.67" width="200" height="4" fill="#e68770" opacity="0.7"/><rect x="700" y="323.33" width="200" height="5" fill="#c26658" opacity="0.6"/><rect x="711" y="294.27" width="28" height="20.09" rx="2.81" fill="#865153"/><rect x="713.8" y="296.68" width="22.4" height="15.27" fill="#a65c56"/><rect x="715.48" y="297.89" width="19.04" height="12.86" fill="#e8bf5b"/><circle cx="725" cy="304.32" r="25.2" fill="url(#lampgd)" opacity="0.85"/><rect x="723.88" y="297.89" width="1.68" height="12.86" fill="#998654"/><rect x="711" y="294.27" width="28" height="2" rx="1" fill="#e79079"/><rect x="761" y="294.27" width="28" height="20.09" rx="2.81" fill="#865153"/><rect x="763.8" y="296.68" width="22.4" height="15.27" fill="#a65c56"/><rect x="765.48" y="297.89" width="19.04" height="12.86" fill="#929fa7" opacity="0.5"/><rect x="761" y="294.27" width="28" height="2" rx="1" fill="#e79079"/><rect x="811" y="294.27" width="28" height="20.09" rx="2.81" fill="#865153"/><rect x="813.8" y="296.68" width="22.4" height="15.27" fill="#a65c56"/><rect x="815.48" y="297.89" width="19.04" height="12.86" fill="#929fa7" opacity="0.5"/><rect x="811" y="294.27" width="28" height="2" rx="1" fill="#e79079"/><rect x="861" y="294.27" width="28" height="20.09" rx="2.81" fill="#865153"/><rect x="863.8" y="296.68" width="22.4" height="15.27" fill="#a65c56"/><rect x="865.48" y="297.89" width="19.04" height="12.86" fill="#e8bf5b"/><circle cx="875" cy="304.32" r="25.2" fill="url(#lampgd)" opacity="0.85"/><rect x="873.88" y="297.89" width="1.68" height="12.86" fill="#998654"/><rect x="861" y="294.27" width="28" height="2" rx="1" fill="#e79079"/><rect x="725" y="319.6" width="150" height="9" fill="#f6e7ce"/><rect x="725" y="328.6" width="150" height="7.2" fill="#f6e7ce"/><rect x="725" y="313.6" width="150" height="4" rx="2" fill="#f6e7ce"/><rect x="725" y="297.6" width="3.4" height="20" rx="1.6" fill="#f6e7ce"/><rect x="762.5" y="297.6" width="3.4" height="20" rx="1.6" fill="#f6e7ce"/><rect x="800" y="297.6" width="3.4" height="20" rx="1.6" fill="#f6e7ce"/><rect x="837.5" y="297.6" width="3.4" height="20" rx="1.6" fill="#f6e7ce"/><rect x="875" y="297.6" width="3.4" height="20" rx="1.6" fill="#f6e7ce"/><rect x="700" y="328.33" width="200" height="4" fill="#e68770" opacity="0.7"/><rect x="700" y="367" width="200" height="5" fill="#c26658" opacity="0.6"/><rect x="711" y="337.94" width="28" height="20.09" rx="2.81" fill="#865153"/><rect x="713.8" y="340.35" width="22.4" height="15.27" fill="#a65c56"/><rect x="715.48" y="341.56" width="19.04" height="12.86" fill="#e8bf5b"/><circle cx="725" cy="347.98" r="25.2" fill="url(#lampgd)" opacity="0.85"/><rect x="723.88" y="341.56" width="1.68" height="12.86" fill="#998654"/><rect x="711" y="337.94" width="28" height="2" rx="1" fill="#e79079"/><rect x="761" y="337.94" width="28" height="20.09" rx="2.81" fill="#865153"/><rect x="763.8" y="340.35" width="22.4" height="15.27" fill="#a65c56"/><rect x="765.48" y="341.56" width="19.04" height="12.86" fill="#e8bf5b"/><circle cx="775" cy="347.98" r="25.2" fill="url(#lampgd)" opacity="0.85"/><rect x="773.88" y="341.56" width="1.68" height="12.86" fill="#998654"/><rect x="761" y="337.94" width="28" height="2" rx="1" fill="#e79079"/><rect x="811" y="337.94" width="28" height="20.09" rx="2.81" fill="#865153"/><rect x="813.8" y="340.35" width="22.4" height="15.27" fill="#a65c56"/><rect x="815.48" y="341.56" width="19.04" height="12.86" fill="#929fa7" opacity="0.5"/><rect x="811" y="337.94" width="28" height="2" rx="1" fill="#e79079"/><rect x="861" y="337.94" width="28" height="20.09" rx="2.81" fill="#865153"/><rect x="863.8" y="340.35" width="22.4" height="15.27" fill="#a65c56"/><rect x="865.48" y="341.56" width="19.04" height="12.86" fill="#929fa7" opacity="0.5"/><rect x="861" y="337.94" width="28" height="2" rx="1" fill="#e79079"/></g><g><ellipse cx="490.2" cy="371" rx="38.44" ry="13" fill="url(#castd)"/><path d="M452,322 L514,322 L526,310 L464,310 Z" fill="#d08c67" stroke="#c1683f" stroke-width="6" stroke-linejoin="round"/><path d="M514,322 L526,310 L526,354 L514,366 Z" fill="#a05c41" stroke="#c1683f" stroke-width="6" stroke-linejoin="round"/><path d="M452,322 L514,322 L500.36,330.46 L465.64,330.46 Z" fill="#d9a281" opacity="0.85"/><path d="M514,322 L505.54,330.46 L505.54,366 L514,366 Z" fill="#895343" opacity="0.7"/><rect x="452" y="322" width="62" height="44" rx="9" fill="#c1683f"/><rect x="452" y="353" width="62" height="13" fill="url(#aod)" rx="5"/><animateTransform attributeName="transform" type="translate" values="0 0;0 -4;0 0" dur="7s" begin="0s" repeatCount="indefinite" calcMode="spline" keyTimes="0;0.5;1" keySplines="0.42 0 0.58 1;0.42 0 0.58 1"/></g><g><ellipse cx="582.2" cy="371" rx="38.44" ry="13" fill="url(#castd)"/><path d="M544,322 L606,322 L618,310 L556,310 Z" fill="#e8cb9f" stroke="#e3c08d" stroke-width="6" stroke-linejoin="round"/><path d="M606,322 L618,310 L618,354 L606,366 Z" fill="#bba280" stroke="#e3c08d" stroke-width="6" stroke-linejoin="round"/><path d="M544,322 L606,322 L592.36,330.46 L557.64,330.46 Z" fill="#ecd2ab" opacity="0.85"/><path d="M606,322 L597.54,330.46 L597.54,366 L606,366 Z" fill="#9f8d76" opacity="0.7"/><rect x="544" y="322" width="62" height="44" rx="9" fill="#e3c08d"/><rect x="544" y="353" width="62" height="13" fill="url(#aod)" rx="5"/><animateTransform attributeName="transform" type="translate" values="0 0;0 -4;0 0" dur="9s" begin="2.72s" repeatCount="indefinite" calcMode="spline" keyTimes="0;0.5;1" keySplines="0.42 0 0.58 1;0.42 0 0.58 1"/></g><g><ellipse cx="674.2" cy="371" rx="38.44" ry="13" fill="url(#castd)"/><path d="M636,322 L698,322 L710,310 L648,310 Z" fill="#d08c67" stroke="#c1683f" stroke-width="6" stroke-linejoin="round"/><path d="M698,322 L710,310 L710,354 L698,366 Z" fill="#a05c41" stroke="#c1683f" stroke-width="6" stroke-linejoin="round"/><path d="M636,322 L698,322 L684.36,330.46 L649.64,330.46 Z" fill="#d9a281" opacity="0.85"/><path d="M698,322 L689.54,330.46 L689.54,366 L698,366 Z" fill="#895343" opacity="0.7"/><rect x="636" y="322" width="62" height="44" rx="9" fill="#c1683f"/><rect x="636" y="353" width="62" height="13" fill="url(#aod)" rx="5"/><animateTransform attributeName="transform" type="translate" values="0 0;0 -4;0 0" dur="11s" begin="5.44s" repeatCount="indefinite" calcMode="spline" keyTimes="0;0.5;1" keySplines="0.42 0 0.58 1;0.42 0 0.58 1"/></g><g><ellipse cx="766.2" cy="371" rx="38.44" ry="13" fill="url(#castd)"/><path d="M728,322 L790,322 L802,310 L740,310 Z" fill="#e8cb9f" stroke="#e3c08d" stroke-width="6" stroke-linejoin="round"/><path d="M790,322 L802,310 L802,354 L790,366 Z" fill="#bba280" stroke="#e3c08d" stroke-width="6" stroke-linejoin="round"/><path d="M728,322 L790,322 L776.36,330.46 L741.64,330.46 Z" fill="#ecd2ab" opacity="0.85"/><path d="M790,322 L781.54,330.46 L781.54,366 L790,366 Z" fill="#9f8d76" opacity="0.7"/><rect x="728" y="322" width="62" height="44" rx="9" fill="#e3c08d"/><rect x="728" y="353" width="62" height="13" fill="url(#aod)" rx="5"/><animateTransform attributeName="transform" type="translate" values="0 0;0 -4;0 0" dur="13s" begin="8.15s" repeatCount="indefinite" calcMode="spline" keyTimes="0;0.5;1" keySplines="0.42 0 0.58 1;0.42 0 0.58 1"/></g><g><ellipse cx="858.2" cy="371" rx="38.44" ry="13" fill="url(#castd)"/><path d="M820,322 L882,322 L894,310 L832,310 Z" fill="#d08c67" stroke="#c1683f" stroke-width="6" stroke-linejoin="round"/><path d="M882,322 L894,310 L894,354 L882,366 Z" fill="#a05c41" stroke="#c1683f" stroke-width="6" stroke-linejoin="round"/><path d="M820,322 L882,322 L868.36,330.46 L833.64,330.46 Z" fill="#d9a281" opacity="0.85"/><path d="M882,322 L873.54,330.46 L873.54,366 L882,366 Z" fill="#895343" opacity="0.7"/><rect x="820" y="322" width="62" height="44" rx="9" fill="#c1683f"/><rect x="820" y="353" width="62" height="13" fill="url(#aod)" rx="5"/><animateTransform attributeName="transform" type="translate" values="0 0;0 -4;0 0" dur="17s" begin="10.87s" repeatCount="indefinite" calcMode="spline" keyTimes="0;0.5;1" keySplines="0.42 0 0.58 1;0.42 0 0.58 1"/></g><g><ellipse cx="392" cy="374" rx="31.08" ry="7" fill="rgba(245,201,92,0.16)"/><rect x="389.4" y="298" width="5.2" height="74" rx="2.6" fill="#2e4a6b"/><circle cx="392" cy="292" r="15" fill="url(#lampgd)"/><circle cx="392" cy="292" r="9.3" fill="#f5c95c"/><rect x="384.5" y="281.5" width="15" height="4" rx="2" fill="#1b2a4a"/><animate attributeName="opacity" values="0.86;1.0;0.86" dur="19s" begin="13.59s" repeatCount="indefinite" calcMode="spline" keyTimes="0;0.5;1" keySplines="0.42 0 0.58 1;0.42 0 0.58 1"/></g><g><ellipse cx="806" cy="374" rx="31.08" ry="7" fill="rgba(245,201,92,0.16)"/><rect x="803.4" y="298" width="5.2" height="74" rx="2.6" fill="#2e4a6b"/><circle cx="806" cy="292" r="15" fill="url(#lampgd)"/><circle cx="806" cy="292" r="9.3" fill="#f5c95c"/><rect x="798.5" y="281.5" width="15" height="4" rx="2" fill="#1b2a4a"/><animate attributeName="opacity" values="0.86;1.0;0.86" dur="23s" begin="16.31s" repeatCount="indefinite" calcMode="spline" keyTimes="0;0.5;1" keySplines="0.42 0 0.58 1;0.42 0 0.58 1"/></g><g><ellipse cx="600" cy="373" rx="14.56" ry="3.5" fill="url(#castcastb)"/><rect x="589.76" y="354.32" width="4.99" height="17.68" rx="2" fill="#1b2a4a"/><rect x="597.25" y="354.32" width="4.99" height="17.68" rx="2" fill="#1b2a4a"/><rect x="586.85" y="336.64" width="18.3" height="19.76" rx="4.16" fill="#5b9a97"/><rect x="583.52" y="337.68" width="3.54" height="15.6" rx="1.66" fill="#5b9a97"/><rect x="604.94" y="337.68" width="3.54" height="15.6" rx="1.66" fill="#5b9a97"/><rect x="589.34" y="321.04" width="13.31" height="15.6" rx="4.37" fill="#dcbe93"/><rect x="588.93" y="318.96" width="14.14" height="7.18" rx="3.12" fill="#a8543c"/><animateTransform attributeName="transform" type="translate" values="0 0;7 -0;0 0" dur="7s" begin="0s" repeatCount="indefinite" calcMode="spline" keyTimes="0;0.5;1" keySplines="0.42 0 0.58 1;0.42 0 0.58 1"/></g><rect x="0" y="332" width="900" height="40" fill="rgba(46,74,107,0.10)"/><ellipse cx="222" cy="106" rx="199.36" ry="14" fill="url(#castcastsl)"/><rect x="34" y="28" width="356" height="72" rx="12" fill="#935742"/><path d="M46,28 L378,28 Q390,28 390,40 L390,33.04 L34,33.04 L34,40 Q34,28 46,28 Z" fill="#a97761" opacity="0.9"/><path d="M384.96,28 Q390,28 390,40 L390,88 Q390,100 378,100 L384.96,100 Z" fill="#764c44" opacity="0.85"/><text x="54" y="68" font-family="Verdana,DejaVu Sans,sans-serif" font-size="25" font-weight="700" letter-spacing="0.6" fill="#f6e7ce" text-anchor="start">DUNG30N5 x NOAERTH</text><text x="55" y="90" font-family="Verdana,DejaVu Sans,sans-serif" font-size="13" font-weight="700" letter-spacing="0.6" fill="#f6e7ce" text-anchor="start">ROUTES</text><text x="372" y="90" font-family="Verdana,DejaVu Sans,sans-serif" font-size="13" font-weight="700" letter-spacing="0.6" fill="#f6e7ce" text-anchor="end">2,075 routes</text><ellipse cx="228" cy="294" rx="206.08" ry="14" fill="url(#castcastsl)"/><rect x="34" y="112" width="368" height="176" rx="14" fill="#9a503d"/><path d="M48,112 L388,112 Q402,112 402,126 L402,117.88 L34,117.88 L34,126 Q34,112 48,112 Z" fill="#ae715d" opacity="0.9"/><path d="M396.12,112 Q402,112 402,126 L402,274 Q402,288 388,288 L396.12,288 Z" fill="#7c4740" opacity="0.85"/><text x="54" y="142" font-family="Verdana,DejaVu Sans,sans-serif" font-size="13" font-weight="700" letter-spacing="0.6" fill="#f6e7ce" text-anchor="start">ENDPOINTS IN SEQUENCE</text><text x="54" y="172" font-family="Verdana,DejaVu Sans,sans-serif" font-size="14" font-weight="700" letter-spacing="0.6" fill="#f6e7ce" text-anchor="start">/</text><text x="382" y="172" font-family="Verdana,DejaVu Sans,sans-serif" font-size="17" font-weight="700" letter-spacing="0.6" fill="#f6e7ce" text-anchor="end">hop 1</text><text x="54" y="202" font-family="Verdana,DejaVu Sans,sans-serif" font-size="14" font-weight="700" letter-spacing="0.6" fill="#f6e7ce" text-anchor="start">/docs</text><text x="382" y="202" font-family="Verdana,DejaVu Sans,sans-serif" font-size="17" font-weight="700" letter-spacing="0.6" fill="#f6e7ce" text-anchor="end">hop 2</text><text x="54" y="232" font-family="Verdana,DejaVu Sans,sans-serif" font-size="14" font-weight="700" letter-spacing="0.6" fill="#f6e7ce" text-anchor="start">/about</text><text x="382" y="232" font-family="Verdana,DejaVu Sans,sans-serif" font-size="17" font-weight="700" letter-spacing="0.6" fill="#f6e7ce" text-anchor="end">hop 3</text><text x="54" y="262" font-family="Verdana,DejaVu Sans,sans-serif" font-size="14" font-weight="700" letter-spacing="0.6" fill="#f6e7ce" text-anchor="start">/contact</text><text x="382" y="262" font-family="Verdana,DejaVu Sans,sans-serif" font-size="17" font-weight="700" letter-spacing="0.6" fill="#f6e7ce" text-anchor="end">hop 4</text><rect x="0" y="424" width="900" height="46" rx="0" fill="#1b2a4a"/><path d="M0,424 L900,424 Q900,424 900,424 L900,424 L0,424 L0,424 Q0,424 0,424 Z" fill="#4b5467" opacity="0.9"/><path d="M900,424 Q900,424 900,424 L900,470 Q900,470 900,470 L900,470 Z" fill="#1b2a4a" opacity="0.85"/><text x="34" y="454" font-family="Verdana,DejaVu Sans,sans-serif" font-size="14" font-weight="700" letter-spacing="0.6" fill="#f6e7ce" text-anchor="start">DUNG30N5 x NOAERTH  /  Portfolio</text><text x="866" y="454" font-family="Verdana,DejaVu Sans,sans-serif" font-size="13" font-weight="700" letter-spacing="0.6" fill="#f6e7ce" text-anchor="end">PORTFOLIO  -  evidence E3</text></svg>