<svg xmlns="http://www.w3.org/2000/svg" width="900" height="470" viewBox="0 0 900 470" role="img" aria-label="DUNG30N5 x NOAERTH - how it behaves"><linearGradient id="skys" x1="0" y1="0" x2="0" y2="1"><stop offset="0" stop-color="#1b2a4a"/><stop offset="0.55" stop-color="#1b2a4a"/><stop offset="0.88" stop-color="#f3b594"/><stop offset="1" stop-color="#f4c5a6"/></linearGradient><radialGradient id="halos"><stop offset="0.30" stop-color="#f5c95c" stop-opacity="0.42"/><stop offset="1" stop-color="#f5c95c" stop-opacity="0"/></radialGradient><linearGradient id="aos" x1="0" y1="0" x2="0" y2="1"><stop offset="0" stop-color="#1b2a4a" stop-opacity="0.20"/><stop offset="1" stop-color="#1b2a4a" stop-opacity="0"/></linearGradient><radialGradient id="casts"><stop offset="0" stop-color="#8a5a44" stop-opacity="0.34"/><stop offset="0.7" stop-color="#8a5a44" stop-opacity="0.10"/><stop offset="1" stop-color="#8a5a44" stop-opacity="0"/></radialGradient><linearGradient id="floors" x1="0" y1="0" x2="0" y2="1"><stop offset="0" stop-color="#e6c799"/><stop offset="0.35" stop-color="#e3c08d"/><stop offset="1" stop-color="#c3a882"/></linearGradient><radialGradient id="lampgs"><stop offset="0.15" stop-color="#f5c95c" stop-opacity="0.62"/><stop offset="1" stop-color="#f5c95c" stop-opacity="0"/></radialGradient><linearGradient id="nskys" x1="0" y1="0" x2="0" y2="1"><stop offset="0" stop-color="#1b2a4a"/><stop offset="0.7" stop-color="#2c4768"/><stop offset="1" stop-color="#6c8498"/></linearGradient><rect width="900" height="470" fill="url(#nskys)"/><circle cx="0" cy="0" r="1.1" fill="#f6e7ce" opacity="0.28"/><circle cx="173" cy="97" r="1.74" fill="#f6e7ce" opacity="0.38"/><circle cx="346" cy="194" r="2.38" fill="#f6e7ce" opacity="0.48"/><circle cx="519" cy="0" r="1.42" fill="#f6e7ce" opacity="0.58"/><circle cx="692" cy="97" r="2.06" fill="#f6e7ce" opacity="0.68"/><circle cx="865" cy="194" r="1.1" fill="#f6e7ce" opacity="0.78"/><circle cx="138" cy="0" r="1.74" fill="#f6e7ce" opacity="0.28"/><circle cx="311" cy="97" r="2.38" fill="#f6e7ce" opacity="0.38"/><circle cx="484" cy="194" r="1.42" fill="#f6e7ce" opacity="0.48"/><circle cx="657" cy="0" r="2.06" fill="#f6e7ce" opacity="0.58"/><circle cx="830" cy="97" r="1.1" fill="#f6e7ce" opacity="0.68"/><circle cx="103" cy="194" r="1.74" fill="#f6e7ce" opacity="0.78"/><circle cx="276" cy="0" r="2.38" fill="#f6e7ce" opacity="0.28"/><circle cx="449" cy="97" r="1.42" fill="#f6e7ce" opacity="0.38"/><circle cx="622" cy="194" r="2.06" fill="#f6e7ce" opacity="0.48"/><circle cx="795" cy="0" r="1.1" fill="#f6e7ce" opacity="0.58"/><circle cx="68" cy="97" r="1.74" fill="#f6e7ce" opacity="0.68"/><circle cx="241" cy="194" r="2.38" fill="#f6e7ce" opacity="0.78"/><circle cx="414" cy="0" r="1.42" fill="#f6e7ce" opacity="0.28"/><circle cx="587" cy="97" r="2.06" fill="#f6e7ce" opacity="0.38"/><circle cx="760" cy="194" r="1.1" fill="#f6e7ce" opacity="0.48"/><circle cx="33" cy="0" r="1.74" fill="#f6e7ce" opacity="0.58"/><circle cx="206" cy="97" r="2.38" fill="#f6e7ce" opacity="0.68"/><circle cx="379" cy="194" r="1.42" fill="#f6e7ce" opacity="0.78"/><circle cx="552" cy="0" r="2.06" fill="#f6e7ce" opacity="0.28"/><circle cx="725" cy="97" r="1.1" fill="#f6e7ce" opacity="0.38"/><circle cx="898" cy="194" r="1.74" fill="#f6e7ce" opacity="0.48"/><circle cx="171" cy="0" r="2.38" fill="#f6e7ce" opacity="0.58"/><circle cx="344" cy="97" r="1.42" fill="#f6e7ce" opacity="0.68"/><circle cx="517" cy="194" r="2.06" fill="#f6e7ce" opacity="0.78"/><circle cx="690" cy="0" r="1.1" fill="#f6e7ce" opacity="0.28"/><circle cx="863" cy="97" r="1.74" fill="#f6e7ce" opacity="0.38"/><circle cx="136" cy="194" r="2.38" fill="#f6e7ce" opacity="0.48"/><circle cx="309" cy="0" r="1.42" fill="#f6e7ce" opacity="0.58"/><circle cx="482" cy="97" r="2.06" fill="#f6e7ce" opacity="0.68"/><circle cx="655" cy="194" r="1.1" fill="#f6e7ce" opacity="0.78"/><circle cx="828" cy="0" r="1.74" fill="#f6e7ce" opacity="0.28"/><circle cx="101" cy="97" r="2.38" fill="#f6e7ce" opacity="0.38"/><circle cx="274" cy="194" r="1.42" fill="#f6e7ce" opacity="0.48"/><circle cx="447" cy="0" r="2.06" fill="#f6e7ce" opacity="0.58"/><circle cx="620" cy="97" r="1.1" fill="#f6e7ce" opacity="0.68"/><circle cx="793" cy="194" r="1.74" fill="#f6e7ce" opacity="0.78"/><circle cx="66" cy="0" r="2.38" fill="#f6e7ce" opacity="0.28"/><circle cx="239" cy="97" r="1.42" fill="#f6e7ce" opacity="0.38"/><circle cx="412" cy="194" r="2.06" fill="#f6e7ce" opacity="0.48"/><circle cx="585" cy="0" r="1.1" fill="#f6e7ce" opacity="0.58"/><g><circle cx="750" cy="96" r="71.4" fill="rgba(246,231,206,0.13)"/><circle cx="750" cy="96" r="34" fill="#f6e7ce"/><circle cx="761.56" cy="89.2" r="8.16" fill="#ceb088" opacity="0.5"/><circle cx="739.8" cy="107.56" r="6.12" fill="#d1b389" opacity="0.4"/></g><rect x="0" y="276" width="900" height="96" fill="rgba(242,160,123,0.06)"/><rect x="0" y="372" width="900" height="24" fill="#e3c08d"/><rect x="0" y="396" width="900" height="4" fill="#e1c59d"/><rect x="0" y="400" width="900" height="3" fill="#b79f80"/><rect x="0" y="396" width="900" height="74" fill="#3a5574"/><rect x="54" y="424.12" width="93.46" height="45.88" rx="3" fill="#f6e7ce" opacity="0.82"/><rect x="192.46" y="420.05" width="93.46" height="49.95" rx="3" fill="#f6e7ce" opacity="0.82"/><rect x="330.92" y="415.98" width="93.46" height="54.02" rx="3" fill="#f6e7ce" opacity="0.82"/><rect x="469.38" y="411.91" width="93.46" height="58.09" rx="3" fill="#f6e7ce" opacity="0.82"/><rect x="607.85" y="407.84" width="93.46" height="62.16" rx="3" fill="#f6e7ce" opacity="0.82"/><rect x="746.31" y="403.77" width="93.46" height="66.23" rx="3" fill="#f6e7ce" opacity="0.82"/><rect x="884.77" y="399.7" width="93.46" height="70.3" rx="3" fill="#f6e7ce" opacity="0.82"/><rect x="0" y="396" width="900" height="16" fill="rgba(242,160,123,0.10)"/><g opacity="0.62"><ellipse cx="87" cy="376" rx="84" ry="9" fill="url(#casts)" transform="skewX(-4)"/><path d="M0,150 L150,150 L165,135 L15,135 Z" fill="#627385"/><rect x="0" y="150" width="150" height="222" fill="#2e4a6b"/><rect x="150" y="150" width="15" height="222" fill="#2a4364"/><rect x="0" y="150" width="150" height="4" fill="#52667d" opacity="0.7"/><rect x="0" y="200.5" width="150" height="5" fill="#2b4566" opacity="0.6"/><rect x="11" y="162.21" width="28" height="25.53" rx="3.57" fill="#253b5c"/><rect x="13.8" y="165.27" width="22.4" height="19.4" fill="#284061"/><rect x="15.48" y="166.81" width="19.04" height="16.34" fill="#e8bf5b"/><circle cx="25" cy="174.98" r="25.2" fill="url(#lampgs)" opacity="0.85"/><rect x="23.88" y="166.81" width="1.68" height="16.34" fill="#998654"/><rect x="11" y="162.21" width="28" height="2.04" rx="1" fill="#627385"/><rect x="61" y="162.21" width="28" height="25.53" rx="3.57" fill="#253b5c"/><rect x="63.8" y="165.27" width="22.4" height="19.4" fill="#284061"/><rect x="65.48" y="166.81" width="19.04" height="16.34" fill="#929fa7" opacity="0.5"/><rect x="61" y="162.21" width="28" height="2.04" rx="1" fill="#627385"/><rect x="111" y="162.21" width="28" height="25.53" rx="3.57" fill="#253b5c"/><rect x="113.8" y="165.27" width="22.4" height="19.4" fill="#284061"/><rect x="115.48" y="166.81" width="19.04" height="16.34" fill="#e8bf5b"/><circle cx="125" cy="174.98" r="25.2" fill="url(#lampgs)" opacity="0.85"/><rect x="123.88" y="166.81" width="1.68" height="16.34" fill="#998654"/><rect x="111" y="162.21" width="28" height="2.04" rx="1" fill="#627385"/><rect x="0" y="205.5" width="150" height="4" fill="#52667d" opacity="0.7"/><rect x="0" y="256" width="150" height="5" fill="#2b4566" opacity="0.6"/><rect x="11" y="217.71" width="28" height="25.53" rx="3.57" fill="#253b5c"/><rect x="13.8" y="220.77" width="22.4" height="19.4" fill="#284061"/><rect x="15.48" y="222.31" width="19.04" height="16.34" fill="#e8bf5b"/><circle cx="25" cy="230.48" r="25.2" fill="url(#lampgs)" opacity="0.85"/><rect x="23.88" y="222.31" width="1.68" height="16.34" fill="#998654"/><rect x="11" y="217.71" width="28" height="2.04" rx="1" fill="#627385"/><rect x="61" y="217.71" width="28" height="25.53" rx="3.57" fill="#253b5c"/><rect x="63.8" y="220.77" width="22.4" height="19.4" fill="#284061"/><rect x="65.48" y="222.31" width="19.04" height="16.34" fill="#e8bf5b"/><circle cx="75" cy="230.48" r="25.2" fill="url(#lampgs)" opacity="0.85"/><rect x="73.88" y="222.31" width="1.68" height="16.34" fill="#998654"/><rect x="61" y="217.71" width="28" height="2.04" rx="1" fill="#627385"/><rect x="111" y="217.71" width="28" height="25.53" rx="3.57" fill="#253b5c"/><rect x="113.8" y="220.77" width="22.4" height="19.4" fill="#284061"/><rect x="115.48" y="222.31" width="19.04" height="16.34" fill="#929fa7" opacity="0.5"/><rect x="111" y="217.71" width="28" height="2.04" rx="1" fill="#627385"/><rect x="0" y="261" width="150" height="4" fill="#52667d" opacity="0.7"/><rect x="0" y="311.5" width="150" height="5" fill="#2b4566" opacity="0.6"/><rect x="11" y="273.21" width="28" height="25.53" rx="3.57" fill="#253b5c"/><rect x="13.8" y="276.27" width="22.4" height="19.4" fill="#284061"/><rect x="15.48" y="277.81" width="19.04" height="16.34" fill="#929fa7" opacity="0.5"/><rect x="11" y="273.21" width="28" height="2.04" rx="1" fill="#627385"/><rect x="61" y="273.21" width="28" height="25.53" rx="3.57" fill="#253b5c"/><rect x="63.8" y="276.27" width="22.4" height="19.4" fill="#284061"/><rect x="65.48" y="277.81" width="19.04" height="16.34" fill="#e8bf5b"/><circle cx="75" cy="285.97" r="25.2" fill="url(#lampgs)" opacity="0.85"/><rect x="73.88" y="277.81" width="1.68" height="16.34" fill="#998654"/><rect x="61" y="273.21" width="28" height="2.04" rx="1" fill="#627385"/><rect x="111" y="273.21" width="28" height="25.53" rx="3.57" fill="#253b5c"/><rect x="113.8" y="276.27" width="22.4" height="19.4" fill="#284061"/><rect x="115.48" y="277.81" width="19.04" height="16.34" fill="#e8bf5b"/><circle cx="125" cy="285.97" r="25.2" fill="url(#lampgs)" opacity="0.85"/><rect x="123.88" y="277.81" width="1.68" height="16.34" fill="#998654"/><rect x="111" y="273.21" width="28" height="2.04" rx="1" fill="#627385"/><rect x="25" y="305.4" width="100" height="9" fill="#f6e7ce"/><rect x="25" y="314.4" width="100" height="7.2" fill="#f6e7ce"/><rect x="25" y="299.4" width="100" height="4" rx="2" fill="#f6e7ce"/><rect x="25" y="283.4" width="3.4" height="20" rx="1.6" fill="#f6e7ce"/><rect x="50" y="283.4" width="3.4" height="20" rx="1.6" fill="#f6e7ce"/><rect x="75" y="283.4" width="3.4" height="20" rx="1.6" fill="#f6e7ce"/><rect x="100" y="283.4" width="3.4" height="20" rx="1.6" fill="#f6e7ce"/><rect x="125" y="283.4" width="3.4" height="20" rx="1.6" fill="#f6e7ce"/><rect x="0" y="316.5" width="150" height="4" fill="#52667d" opacity="0.7"/><rect x="0" y="367" width="150" height="5" fill="#2b4566" opacity="0.6"/><rect x="11" y="328.71" width="28" height="25.53" rx="3.57" fill="#253b5c"/><rect x="13.8" y="331.77" width="22.4" height="19.4" fill="#284061"/><rect x="15.48" y="333.31" width="19.04" height="16.34" fill="#929fa7" opacity="0.5"/><rect x="11" y="328.71" width="28" height="2.04" rx="1" fill="#627385"/><rect x="61" y="328.71" width="28" height="25.53" rx="3.57" fill="#253b5c"/><rect x="63.8" y="331.77" width="22.4" height="19.4" fill="#284061"/><rect x="65.48" y="333.31" width="19.04" height="16.34" fill="#929fa7" opacity="0.5"/><rect x="61" y="328.71" width="28" height="2.04" rx="1" fill="#627385"/><rect x="111" y="328.71" width="28" height="25.53" rx="3.57" fill="#253b5c"/><rect x="113.8" y="331.77" width="22.4" height="19.4" fill="#284061"/><rect x="115.48" y="333.31" width="19.04" height="16.34" fill="#e8bf5b"/><circle cx="125" cy="341.47" r="25.2" fill="url(#lampgs)" opacity="0.85"/><rect x="123.88" y="333.31" width="1.68" height="16.34" fill="#998654"/><rect x="111" y="328.71" width="28" height="2.04" rx="1" fill="#627385"/></g><g opacity="0.76"><ellipse cx="206" cy="376" rx="53.76" ry="9" fill="url(#casts)" transform="skewX(-4)"/><path d="M146,150 L242,150 L257,135 L161,135 Z" fill="#bc7a62"/><rect x="146" y="150" width="96" height="222" fill="#a8543c"/><rect x="242" y="150" width="15" height="222" fill="#894b3f"/><rect x="146" y="150" width="96" height="4" fill="#b66e56" opacity="0.7"/><rect x="146" y="182" width="96" height="5" fill="#914d3e" opacity="0.6"/><rect x="156.56" y="158.14" width="26.88" height="17.02" rx="2.38" fill="#674142"/><rect x="159.25" y="160.18" width="21.5" height="12.94" fill="#7e4740"/><rect x="160.86" y="161.2" width="18.28" height="10.89" fill="#e8bf5b"/><circle cx="170" cy="166.65" r="24.19" fill="url(#lampgs)" opacity="0.85"/><rect x="168.92" y="161.2" width="1.61" height="10.89" fill="#998654"/><rect x="156.56" y="158.14" width="26.88" height="2" rx="1" fill="#bc7a62"/><rect x="204.56" y="158.14" width="26.88" height="17.02" rx="2.38" fill="#674142"/><rect x="207.25" y="160.18" width="21.5" height="12.94" fill="#7e4740"/><rect x="208.86" y="161.2" width="18.28" height="10.89" fill="#e8bf5b"/><circle cx="218" cy="166.65" r="24.19" fill="url(#lampgs)" opacity="0.85"/><rect x="216.92" y="161.2" width="1.61" height="10.89" fill="#998654"/><rect x="204.56" y="158.14" width="26.88" height="2" rx="1" fill="#bc7a62"/><rect x="146" y="187" width="96" height="4" fill="#b66e56" opacity="0.7"/><rect x="146" y="219" width="96" height="5" fill="#914d3e" opacity="0.6"/><rect x="156.56" y="195.14" width="26.88" height="17.02" rx="2.38" fill="#674142"/><rect x="159.25" y="197.18" width="21.5" height="12.94" fill="#7e4740"/><rect x="160.86" y="198.2" width="18.28" height="10.89" fill="#929fa7" opacity="0.5"/><rect x="156.56" y="195.14" width="26.88" height="2" rx="1" fill="#bc7a62"/><rect x="204.56" y="195.14" width="26.88" height="17.02" rx="2.38" fill="#674142"/><rect x="207.25" y="197.18" width="21.5" height="12.94" fill="#7e4740"/><rect x="208.86" y="198.2" width="18.28" height="10.89" fill="#e8bf5b"/><circle cx="218" cy="203.65" r="24.19" fill="url(#lampgs)" opacity="0.85"/><rect x="216.92" y="198.2" width="1.61" height="10.89" fill="#998654"/><rect x="204.56" y="195.14" width="26.88" height="2" rx="1" fill="#bc7a62"/><rect x="146" y="224" width="96" height="4" fill="#b66e56" opacity="0.7"/><rect x="146" y="256" width="96" height="5" fill="#914d3e" opacity="0.6"/><rect x="156.56" y="232.14" width="26.88" height="17.02" rx="2.38" fill="#674142"/><rect x="159.25" y="234.18" width="21.5" height="12.94" fill="#7e4740"/><rect x="160.86" y="235.2" width="18.28" height="10.89" fill="#e8bf5b"/><circle cx="170" cy="240.65" r="24.19" fill="url(#lampgs)" opacity="0.85"/><rect x="168.92" y="235.2" width="1.61" height="10.89" fill="#998654"/><rect x="156.56" y="232.14" width="26.88" height="2" rx="1" fill="#bc7a62"/><rect x="204.56" y="232.14" width="26.88" height="17.02" rx="2.38" fill="#674142"/><rect x="207.25" y="234.18" width="21.5" height="12.94" fill="#7e4740"/><rect x="208.86" y="235.2" width="18.28" height="10.89" fill="#929fa7" opacity="0.5"/><rect x="204.56" y="232.14" width="26.88" height="2" rx="1" fill="#bc7a62"/><rect x="170" y="253.6" width="48" height="9" fill="#f6e7ce"/><rect x="170" y="262.6" width="48" height="7.2" fill="#f6e7ce"/><rect x="170" y="247.6" width="48" height="4" rx="2" fill="#f6e7ce"/><rect x="170" y="231.6" width="3.4" height="20" rx="1.6" fill="#f6e7ce"/><rect x="182" y="231.6" width="3.4" height="20" rx="1.6" fill="#f6e7ce"/><rect x="194" y="231.6" width="3.4" height="20" rx="1.6" fill="#f6e7ce"/><rect x="206" y="231.6" width="3.4" height="20" rx="1.6" fill="#f6e7ce"/><rect x="218" y="231.6" width="3.4" height="20" rx="1.6" fill="#f6e7ce"/><rect x="146" y="261" width="96" height="4" fill="#b66e56" opacity="0.7"/><rect x="146" y="293" width="96" height="5" fill="#914d3e" opacity="0.6"/><rect x="156.56" y="269.14" width="26.88" height="17.02" rx="2.38" fill="#674142"/><rect x="159.25" y="271.18" width="21.5" height="12.94" fill="#7e4740"/><rect x="160.86" y="272.2" width="18.28" height="10.89" fill="#e8bf5b"/><circle cx="170" cy="277.65" r="24.19" fill="url(#lampgs)" opacity="0.85"/><rect x="168.92" y="272.2" width="1.61" height="10.89" fill="#998654"/><rect x="156.56" y="269.14" width="26.88" height="2" rx="1" fill="#bc7a62"/><rect x="204.56" y="269.14" width="26.88" height="17.02" rx="2.38" fill="#674142"/><rect x="207.25" y="271.18" width="21.5" height="12.94" fill="#7e4740"/><rect x="208.86" y="272.2" width="18.28" height="10.89" fill="#e8bf5b"/><circle cx="218" cy="277.65" r="24.19" fill="url(#lampgs)" opacity="0.85"/><rect x="216.92" y="272.2" width="1.61" height="10.89" fill="#998654"/><rect x="204.56" y="269.14" width="26.88" height="2" rx="1" fill="#bc7a62"/><rect x="146" y="298" width="96" height="4" fill="#b66e56" opacity="0.7"/><rect x="146" y="330" width="96" height="5" fill="#914d3e" opacity="0.6"/><rect x="156.56" y="306.14" width="26.88" height="17.02" rx="2.38" fill="#674142"/><rect x="159.25" y="308.18" width="21.5" height="12.94" fill="#7e4740"/><rect x="160.86" y="309.2" width="18.28" height="10.89" fill="#929fa7" opacity="0.5"/><rect x="156.56" y="306.14" width="26.88" height="2" rx="1" fill="#bc7a62"/><rect x="204.56" y="306.14" width="26.88" height="17.02" rx="2.38" fill="#674142"/><rect x="207.25" y="308.18" width="21.5" height="12.94" fill="#7e4740"/><rect x="208.86" y="309.2" width="18.28" height="10.89" fill="#e8bf5b"/><circle cx="218" cy="314.65" r="24.19" fill="url(#lampgs)" opacity="0.85"/><rect x="216.92" y="309.2" width="1.61" height="10.89" fill="#998654"/><rect x="204.56" y="306.14" width="26.88" height="2" rx="1" fill="#bc7a62"/><rect x="170" y="327.6" width="48" height="9" fill="#f6e7ce"/><rect x="170" y="336.6" width="48" height="7.2" fill="#f6e7ce"/><rect x="170" y="321.6" width="48" height="4" rx="2" fill="#f6e7ce"/><rect x="170" y="305.6" width="3.4" height="20" rx="1.6" fill="#f6e7ce"/><rect x="182" y="305.6" width="3.4" height="20" rx="1.6" fill="#f6e7ce"/><rect x="194" y="305.6" width="3.4" height="20" rx="1.6" fill="#f6e7ce"/><rect x="206" y="305.6" width="3.4" height="20" rx="1.6" fill="#f6e7ce"/><rect x="218" y="305.6" width="3.4" height="20" rx="1.6" fill="#f6e7ce"/><rect x="146" y="335" width="96" height="4" fill="#b66e56" opacity="0.7"/><rect x="146" y="367" width="96" height="5" fill="#914d3e" opacity="0.6"/><rect x="156.56" y="343.14" width="26.88" height="17.02" rx="2.38" fill="#674142"/><rect x="159.25" y="345.18" width="21.5" height="12.94" fill="#7e4740"/><rect x="160.86" y="346.2" width="18.28" height="10.89" fill="#e8bf5b"/><circle cx="170" cy="351.65" r="24.19" fill="url(#lampgs)" opacity="0.85"/><rect x="168.92" y="346.2" width="1.61" height="10.89" fill="#998654"/><rect x="156.56" y="343.14" width="26.88" height="2" rx="1" fill="#bc7a62"/><rect x="204.56" y="343.14" width="26.88" height="17.02" rx="2.38" fill="#674142"/><rect x="207.25" y="345.18" width="21.5" height="12.94" fill="#7e4740"/><rect x="208.86" y="346.2" width="18.28" height="10.89" fill="#929fa7" opacity="0.5"/><rect x="204.56" y="343.14" width="26.88" height="2" rx="1" fill="#bc7a62"/></g><g opacity="0.90"><ellipse cx="812" cy="376" rx="112" ry="9" fill="url(#casts)" transform="skewX(-4)"/><path d="M700,150 L900,150 L915,135 L715,135 Z" fill="#627385"/><rect x="700" y="150" width="200" height="222" fill="#2e4a6b"/><rect x="900" y="150" width="15" height="222" fill="#2a4364"/><rect x="700" y="150" width="200" height="4" fill="#52667d" opacity="0.7"/><rect x="700" y="189.4" width="200" height="5" fill="#2b4566" opacity="0.6"/><rect x="711" y="159.77" width="28" height="20.42" rx="2.86" fill="#253b5c"/><rect x="713.8" y="162.22" width="22.4" height="15.52" fill="#284061"/><rect x="715.48" y="163.44" width="19.04" height="13.07" fill="#e8bf5b"/><circle cx="725" cy="169.98" r="25.2" fill="url(#lampgs)" opacity="0.85"/><rect x="723.88" y="163.44" width="1.68" height="13.07" fill="#998654"/><rect x="711" y="159.77" width="28" height="2" rx="1" fill="#627385"/><rect x="761" y="159.77" width="28" height="20.42" rx="2.86" fill="#253b5c"/><rect x="763.8" y="162.22" width="22.4" height="15.52" fill="#284061"/><rect x="765.48" y="163.44" width="19.04" height="13.07" fill="#929fa7" opacity="0.5"/><rect x="761" y="159.77" width="28" height="2" rx="1" fill="#627385"/><rect x="811" y="159.77" width="28" height="20.42" rx="2.86" fill="#253b5c"/><rect x="813.8" y="162.22" width="22.4" height="15.52" fill="#284061"/><rect x="815.48" y="163.44" width="19.04" height="13.07" fill="#e8bf5b"/><circle cx="825" cy="169.98" r="25.2" fill="url(#lampgs)" opacity="0.85"/><rect x="823.88" y="163.44" width="1.68" height="13.07" fill="#998654"/><rect x="811" y="159.77" width="28" height="2" rx="1" fill="#627385"/><rect x="861" y="159.77" width="28" height="20.42" rx="2.86" fill="#253b5c"/><rect x="863.8" y="162.22" width="22.4" height="15.52" fill="#284061"/><rect x="865.48" y="163.44" width="19.04" height="13.07" fill="#e8bf5b"/><circle cx="875" cy="169.98" r="25.2" fill="url(#lampgs)" opacity="0.85"/><rect x="873.88" y="163.44" width="1.68" height="13.07" fill="#998654"/><rect x="861" y="159.77" width="28" height="2" rx="1" fill="#627385"/><rect x="700" y="194.4" width="200" height="4" fill="#52667d" opacity="0.7"/><rect x="700" y="233.8" width="200" height="5" fill="#2b4566" opacity="0.6"/><rect x="711" y="204.17" width="28" height="20.42" rx="2.86" fill="#253b5c"/><rect x="713.8" y="206.62" width="22.4" height="15.52" fill="#284061"/><rect x="715.48" y="207.84" width="19.04" height="13.07" fill="#e8bf5b"/><circle cx="725" cy="214.38" r="25.2" fill="url(#lampgs)" opacity="0.85"/><rect x="723.88" y="207.84" width="1.68" height="13.07" fill="#998654"/><rect x="711" y="204.17" width="28" height="2" rx="1" fill="#627385"/><rect x="761" y="204.17" width="28" height="20.42" rx="2.86" fill="#253b5c"/><rect x="763.8" y="206.62" width="22.4" height="15.52" fill="#284061"/><rect x="765.48" y="207.84" width="19.04" height="13.07" fill="#e8bf5b"/><circle cx="775" cy="214.38" r="25.2" fill="url(#lampgs)" opacity="0.85"/><rect x="773.88" y="207.84" width="1.68" height="13.07" fill="#998654"/><rect x="761" y="204.17" width="28" height="2" rx="1" fill="#627385"/><rect x="811" y="204.17" width="28" height="20.42" rx="2.86" fill="#253b5c"/><rect x="813.8" y="206.62" width="22.4" height="15.52" fill="#284061"/><rect x="815.48" y="207.84" width="19.04" height="13.07" fill="#929fa7" opacity="0.5"/><rect x="811" y="204.17" width="28" height="2" rx="1" fill="#627385"/><rect x="861" y="204.17" width="28" height="20.42" rx="2.86" fill="#253b5c"/><rect x="863.8" y="206.62" width="22.4" height="15.52" fill="#284061"/><rect x="865.48" y="207.84" width="19.04" height="13.07" fill="#e8bf5b"/><circle cx="875" cy="214.38" r="25.2" fill="url(#lampgs)" opacity="0.85"/><rect x="873.88" y="207.84" width="1.68" height="13.07" fill="#998654"/><rect x="861" y="204.17" width="28" height="2" rx="1" fill="#627385"/><rect x="700" y="238.8" width="200" height="4" fill="#52667d" opacity="0.7"/><rect x="700" y="278.2" width="200" height="5" fill="#2b4566" opacity="0.6"/><rect x="711" y="248.57" width="28" height="20.42" rx="2.86" fill="#253b5c"/><rect x="713.8" y="251.02" width="22.4" height="15.52" fill="#284061"/><rect x="715.48" y="252.24" width="19.04" height="13.07" fill="#929fa7" opacity="0.5"/><rect x="711" y="248.57" width="28" height="2" rx="1" fill="#627385"/><rect x="761" y="248.57" width="28" height="20.42" rx="2.86" fill="#253b5c"/><rect x="763.8" y="251.02" width="22.4" height="15.52" fill="#284061"/><rect x="765.48" y="252.24" width="19.04" height="13.07" fill="#e8bf5b"/><circle cx="775" cy="258.78" r="25.2" fill="url(#lampgs)" opacity="0.85"/><rect x="773.88" y="252.24" width="1.68" height="13.07" fill="#998654"/><rect x="761" y="248.57" width="28" height="2" rx="1" fill="#627385"/><rect x="811" y="248.57" width="28" height="20.42" rx="2.86" fill="#253b5c"/><rect x="813.8" y="251.02" width="22.4" height="15.52" fill="#284061"/><rect x="815.48" y="252.24" width="19.04" height="13.07" fill="#e8bf5b"/><circle cx="825" cy="258.78" r="25.2" fill="url(#lampgs)" opacity="0.85"/><rect x="823.88" y="252.24" width="1.68" height="13.07" fill="#998654"/><rect x="811" y="248.57" width="28" height="2" rx="1" fill="#627385"/><rect x="861" y="248.57" width="28" height="20.42" rx="2.86" fill="#253b5c"/><rect x="863.8" y="251.02" width="22.4" height="15.52" fill="#284061"/><rect x="865.48" y="252.24" width="19.04" height="13.07" fill="#929fa7" opacity="0.5"/><rect x="861" y="248.57" width="28" height="2" rx="1" fill="#627385"/><rect x="725" y="274.32" width="150" height="9" fill="#f6e7ce"/><rect x="725" y="283.32" width="150" height="7.2" fill="#f6e7ce"/><rect x="725" y="268.32" width="150" height="4" rx="2" fill="#f6e7ce"/><rect x="725" y="252.32" width="3.4" height="20" rx="1.6" fill="#f6e7ce"/><rect x="762.5" y="252.32" width="3.4" height="20" rx="1.6" fill="#f6e7ce"/><rect x="800" y="252.32" width="3.4" height="20" rx="1.6" fill="#f6e7ce"/><rect x="837.5" y="252.32" width="3.4" height="20" rx="1.6" fill="#f6e7ce"/><rect x="875" y="252.32" width="3.4" height="20" rx="1.6" fill="#f6e7ce"/><rect x="700" y="283.2" width="200" height="4" fill="#52667d" opacity="0.7"/><rect x="700" y="322.6" width="200" height="5" fill="#2b4566" opacity="0.6"/><rect x="711" y="292.97" width="28" height="20.42" rx="2.86" fill="#253b5c"/><rect x="713.8" y="295.42" width="22.4" height="15.52" fill="#284061"/><rect x="715.48" y="296.64" width="19.04" height="13.07" fill="#929fa7" opacity="0.5"/><rect x="711" y="292.97" width="28" height="2" rx="1" fill="#627385"/><rect x="761" y="292.97" width="28" height="20.42" rx="2.86" fill="#253b5c"/><rect x="763.8" y="295.42" width="22.4" height="15.52" fill="#284061"/><rect x="765.48" y="296.64" width="19.04" height="13.07" fill="#929fa7" opacity="0.5"/><rect x="761" y="292.97" width="28" height="2" rx="1" fill="#627385"/><rect x="811" y="292.97" width="28" height="20.42" rx="2.86" fill="#253b5c"/><rect x="813.8" y="295.42" width="22.4" height="15.52" fill="#284061"/><rect x="815.48" y="296.64" width="19.04" height="13.07" fill="#e8bf5b"/><circle cx="825" cy="303.18" r="25.2" fill="url(#lampgs)" opacity="0.85"/><rect x="823.88" y="296.64" width="1.68" height="13.07" fill="#998654"/><rect x="811" y="292.97" width="28" height="2" rx="1" fill="#627385"/><rect x="861" y="292.97" width="28" height="20.42" rx="2.86" fill="#253b5c"/><rect x="863.8" y="295.42" width="22.4" height="15.52" fill="#284061"/><rect x="865.48" y="296.64" width="19.04" height="13.07" fill="#e8bf5b"/><circle cx="875" cy="303.18" r="25.2" fill="url(#lampgs)" opacity="0.85"/><rect x="873.88" y="296.64" width="1.68" height="13.07" fill="#998654"/><rect x="861" y="292.97" width="28" height="2" rx="1" fill="#627385"/><rect x="700" y="327.6" width="200" height="4" fill="#52667d" opacity="0.7"/><rect x="700" y="367" width="200" height="5" fill="#2b4566" opacity="0.6"/><rect x="711" y="337.37" width="28" height="20.42" rx="2.86" fill="#253b5c"/><rect x="713.8" y="339.82" width="22.4" height="15.52" fill="#284061"/><rect x="715.48" y="341.04" width="19.04" height="13.07" fill="#e8bf5b"/><circle cx="725" cy="347.58" r="25.2" fill="url(#lampgs)" opacity="0.85"/><rect x="723.88" y="341.04" width="1.68" height="13.07" fill="#998654"/><rect x="711" y="337.37" width="28" height="2" rx="1" fill="#627385"/><rect x="761" y="337.37" width="28" height="20.42" rx="2.86" fill="#253b5c"/><rect x="763.8" y="339.82" width="22.4" height="15.52" fill="#284061"/><rect x="765.48" y="341.04" width="19.04" height="13.07" fill="#929fa7" opacity="0.5"/><rect x="761" y="337.37" width="28" height="2" rx="1" fill="#627385"/><rect x="811" y="337.37" width="28" height="20.42" rx="2.86" fill="#253b5c"/><rect x="813.8" y="339.82" width="22.4" height="15.52" fill="#284061"/><rect x="815.48" y="341.04" width="19.04" height="13.07" fill="#929fa7" opacity="0.5"/><rect x="811" y="337.37" width="28" height="2" rx="1" fill="#627385"/><rect x="861" y="337.37" width="28" height="20.42" rx="2.86" fill="#253b5c"/><rect x="863.8" y="339.82" width="22.4" height="15.52" fill="#284061"/><rect x="865.48" y="341.04" width="19.04" height="13.07" fill="#e8bf5b"/><circle cx="875" cy="347.58" r="25.2" fill="url(#lampgs)" opacity="0.85"/><rect x="873.88" y="341.04" width="1.68" height="13.07" fill="#998654"/><rect x="861" y="337.37" width="28" height="2" rx="1" fill="#627385"/><rect x="725" y="363.12" width="150" height="9" fill="#f6e7ce"/><rect x="725" y="372.12" width="150" height="7.2" fill="#f6e7ce"/><rect x="725" y="357.12" width="150" height="4" rx="2" fill="#f6e7ce"/><rect x="725" y="341.12" width="3.4" height="20" rx="1.6" fill="#f6e7ce"/><rect x="762.5" y="341.12" width="3.4" height="20" rx="1.6" fill="#f6e7ce"/><rect x="800" y="341.12" width="3.4" height="20" rx="1.6" fill="#f6e7ce"/><rect x="837.5" y="341.12" width="3.4" height="20" rx="1.6" fill="#f6e7ce"/><rect x="875" y="341.12" width="3.4" height="20" rx="1.6" fill="#f6e7ce"/></g><g><path d="M374.8,366 L374.8,218.08 A31.2,31.2 0 0 1 437.2,218.08 L437.2,366 Z" fill="#1b2a4a"/><path d="M346,372 L346,221.2 A60,60 0 0 1 466,221.2 L466,372 Z M374.8,366 L374.8,218.08 A31.2,31.2 0 0 1 437.2,218.08 L437.2,366 Z" fill="#e3c08d" fill-rule="evenodd" stroke="#e3c08d" stroke-width="7" stroke-linejoin="round"/><path d="M346,372 L346,221.2 A60,60 0 0 1 466,221.2 L466,372 Z" fill="none" stroke="#e9cda3" stroke-width="9" stroke-linecap="round" opacity="0.9"/><rect x="353.2" y="221.2" width="6.6" height="150.8" fill="#bfa581"/><rect x="346" y="359" width="120" height="13" fill="url(#aos)" rx="5"/><animateTransform attributeName="transform" type="translate" values="0 0;0 -3.5;0 0" dur="7s" begin="1.2s" repeatCount="indefinite" calcMode="spline" keyTimes="0;0.5;1" keySplines="0.42 0 0.58 1;0.42 0 0.58 1"/></g><g><circle cx="128.0" cy="328" r="22" fill="#9bb07a"/><circle cx="120.96" cy="320.08" r="9.68" fill="#b3be90" opacity="0.6"/><circle cx="134.6" cy="335.48" r="6.6" fill="#7c906e" opacity="0.5"/><animateTransform attributeName="transform" type="translate" values="0 0;0 -5;0 0" dur="7s" begin="0s" repeatCount="indefinite" calcMode="spline" keyTimes="0;0.5;1" keySplines="0.42 0 0.58 1;0.42 0 0.58 1"/></g><g><circle cx="278.0" cy="328" r="22" fill="#c1683f"/><circle cx="270.96" cy="320.08" r="9.68" fill="#cf8964" opacity="0.6"/><circle cx="284.6" cy="335.48" r="6.6" fill="#995942" opacity="0.5"/><animateTransform attributeName="transform" type="translate" values="0 0;0 -5;0 0" dur="9s" begin="2.72s" repeatCount="indefinite" calcMode="spline" keyTimes="0;0.5;1" keySplines="0.42 0 0.58 1;0.42 0 0.58 1"/></g><g><circle cx="428.0" cy="328" r="22" fill="#c1683f"/><circle cx="420.96" cy="320.08" r="9.68" fill="#cf8964" opacity="0.6"/><circle cx="434.6" cy="335.48" r="6.6" fill="#995942" opacity="0.5"/><animateTransform attributeName="transform" type="translate" values="0 0;0 -5;0 0" dur="11s" begin="5.44s" repeatCount="indefinite" calcMode="spline" keyTimes="0;0.5;1" keySplines="0.42 0 0.58 1;0.42 0 0.58 1"/></g><g><circle cx="578.0" cy="328" r="22" fill="#c1683f"/><circle cx="570.96" cy="320.08" r="9.68" fill="#cf8964" opacity="0.6"/><circle cx="584.6" cy="335.48" r="6.6" fill="#995942" opacity="0.5"/><animateTransform attributeName="transform" type="translate" values="0 0;0 -5;0 0" dur="13s" begin="8.15s" repeatCount="indefinite" calcMode="spline" keyTimes="0;0.5;1" keySplines="0.42 0 0.58 1;0.42 0 0.58 1"/></g><g><circle cx="728.0" cy="328" r="22" fill="#9bb07a"/><circle cx="720.96" cy="320.08" r="9.68" fill="#b3be90" opacity="0.6"/><circle cx="734.6" cy="335.48" r="6.6" fill="#7c906e" opacity="0.5"/><animateTransform attributeName="transform" type="translate" values="0 0;0 -5;0 0" dur="17s" begin="10.87s" repeatCount="indefinite" calcMode="spline" keyTimes="0;0.5;1" keySplines="0.42 0 0.58 1;0.42 0 0.58 1"/></g><g><ellipse cx="300" cy="374" rx="30.24" ry="7" fill="rgba(245,201,92,0.16)"/><rect x="297.4" y="300" width="5.2" height="72" rx="2.6" fill="#2e4a6b"/><circle cx="300" cy="294" r="15" fill="url(#lampgs)"/><circle cx="300" cy="294" r="9.3" fill="#f5c95c"/><rect x="292.5" y="283.5" width="15" height="4" rx="2" fill="#1b2a4a"/><animate attributeName="opacity" values="0.86;1.0;0.86" dur="11s" begin="5.44s" repeatCount="indefinite" calcMode="spline" keyTimes="0;0.5;1" keySplines="0.42 0 0.58 1;0.42 0 0.58 1"/></g><ellipse cx="573.44" cy="374" rx="34.72" ry="7" fill="url(#castcastb)"/><path d="M535,372 Q535,346 552.36,346 L580.88,346 Q597,346 597,372 Z" fill="#d9b98c"/><path d="M552.36,346 L580.88,346 L572.2,357.7 L557.32,359 Z" fill="#dfc39b"/><ellipse cx="222" cy="106" rx="199.36" ry="14" fill="url(#castcastsl)"/><rect x="34" y="28" width="356" height="72" rx="12" fill="#935742"/><path d="M46,28 L378,28 Q390,28 390,40 L390,33.04 L34,33.04 L34,40 Q34,28 46,28 Z" fill="#a97761" opacity="0.9"/><path d="M384.96,28 Q390,28 390,40 L390,88 Q390,100 378,100 L384.96,100 Z" fill="#764c44" opacity="0.85"/><text x="54" y="68" font-family="Verdana,DejaVu Sans,sans-serif" font-size="25" font-weight="700" letter-spacing="0.6" fill="#f6e7ce" text-anchor="start">DUNG30N5 x NOAERTH</text><text x="55" y="90" font-family="Verdana,DejaVu Sans,sans-serif" font-size="13" font-weight="700" letter-spacing="0.6" fill="#f6e7ce" text-anchor="start">PRIMITIVES</text><text x="372" y="90" font-family="Verdana,DejaVu Sans,sans-serif" font-size="13" font-weight="700" letter-spacing="0.6" fill="#f6e7ce" text-anchor="end">4 detected</text><ellipse cx="228" cy="294" rx="206.08" ry="14" fill="url(#castcastsl)"/><rect x="34" y="112" width="368" height="176" rx="14" fill="#9a503d"/><path d="M48,112 L388,112 Q402,112 402,126 L402,117.88 L34,117.88 L34,126 Q34,112 48,112 Z" fill="#ae715d" opacity="0.9"/><path d="M396.12,112 Q402,112 402,126 L402,274 Q402,288 388,288 L396.12,288 Z" fill="#7c4740" opacity="0.85"/><text x="54" y="142" font-family="Verdana,DejaVu Sans,sans-serif" font-size="13" font-weight="700" letter-spacing="0.6" fill="#f6e7ce" text-anchor="start">TRANSITION ORDER</text><text x="54" y="172" font-family="Verdana,DejaVu Sans,sans-serif" font-size="14" font-weight="700" letter-spacing="0.6" fill="#f6e7ce" text-anchor="start">in</text><text x="382" y="172" font-family="Verdana,DejaVu Sans,sans-serif" font-size="17" font-weight="700" letter-spacing="0.6" fill="#f6e7ce" text-anchor="end">state 1</text><text x="54" y="202" font-family="Verdana,DejaVu Sans,sans-serif" font-size="14" font-weight="700" letter-spacing="0.6" fill="#f6e7ce" text-anchor="start">index</text><text x="382" y="202" font-family="Verdana,DejaVu Sans,sans-serif" font-size="17" font-weight="700" letter-spacing="0.6" fill="#f6e7ce" text-anchor="end">state 2</text><text x="54" y="232" font-family="Verdana,DejaVu Sans,sans-serif" font-size="14" font-weight="700" letter-spacing="0.6" fill="#f6e7ce" text-anchor="start">stack</text><text x="382" y="232" font-family="Verdana,DejaVu Sans,sans-serif" font-size="17" font-weight="700" letter-spacing="0.6" fill="#f6e7ce" text-anchor="end">state 3</text><text x="54" y="262" font-family="Verdana,DejaVu Sans,sans-serif" font-size="14" font-weight="700" letter-spacing="0.6" fill="#f6e7ce" text-anchor="start">policy</text><text x="382" y="262" font-family="Verdana,DejaVu Sans,sans-serif" font-size="17" font-weight="700" letter-spacing="0.6" fill="#f6e7ce" text-anchor="end">state 4</text><rect x="0" y="424" width="900" height="46" rx="0" fill="#1b2a4a"/><path d="M0,424 L900,424 Q900,424 900,424 L900,424 L0,424 L0,424 Q0,424 0,424 Z" fill="#4b5467" opacity="0.9"/><path d="M900,424 Q900,424 900,424 L900,470 Q900,470 900,470 L900,470 Z" fill="#1b2a4a" opacity="0.85"/><text x="34" y="454" font-family="Verdana,DejaVu Sans,sans-serif" font-size="14" font-weight="700" letter-spacing="0.6" fill="#f6e7ce" text-anchor="start">DUNG30N5 x NOAERTH  /  Portfolio</text><text x="866" y="454" font-family="Verdana,DejaVu Sans,sans-serif" font-size="13" font-weight="700" letter-spacing="0.6" fill="#f6e7ce" text-anchor="end">PORTFOLIO  -  evidence E3</text></svg>