<svg xmlns="http://www.w3.org/2000/svg" width="900" height="470" viewBox="0 0 900 470" role="img" aria-label="DUNG30N5 x NOAERTH - how it is used"><linearGradient id="skyw" x1="0" y1="0" x2="0" y2="1"><stop offset="0" stop-color="#b5afa7"/><stop offset="0.55" stop-color="#e0d4c1"/><stop offset="0.88" stop-color="#f3b594"/><stop offset="1" stop-color="#f4c5a6"/></linearGradient><radialGradient id="halow"><stop offset="0.30" stop-color="#f5c95c" stop-opacity="0.3"/><stop offset="1" stop-color="#f5c95c" stop-opacity="0"/></radialGradient><linearGradient id="aow" x1="0" y1="0" x2="0" y2="1"><stop offset="0" stop-color="#1b2a4a" stop-opacity="0.20"/><stop offset="1" stop-color="#1b2a4a" stop-opacity="0"/></linearGradient><radialGradient id="castw"><stop offset="0" stop-color="#8a5a44" stop-opacity="0.34"/><stop offset="0.7" stop-color="#8a5a44" stop-opacity="0.10"/><stop offset="1" stop-color="#8a5a44" stop-opacity="0"/></radialGradient><linearGradient id="floorw" x1="0" y1="0" x2="0" y2="1"><stop offset="0" stop-color="#e6c799"/><stop offset="0.35" stop-color="#e3c08d"/><stop offset="1" stop-color="#c3a882"/></linearGradient><radialGradient id="lampgw"><stop offset="0.15" stop-color="#f5c95c" stop-opacity="0.62"/><stop offset="1" stop-color="#f5c95c" stop-opacity="0"/></radialGradient><rect width="900" height="470" fill="url(#skyw)"/><g><circle cx="750" cy="74" r="85" fill="url(#halow)"><animate attributeName="r" values="74.8;95.2;74.8" dur="7s" begin="0s" repeatCount="indefinite" calcMode="spline" keyTimes="0;0.5;1" keySplines="0.42 0 0.58 1;0.42 0 0.58 1"/></circle><circle cx="750" cy="74" r="34" fill="#f5c95c"/></g><rect x="0" y="276" width="900" height="96" fill="rgba(242,160,123,0.14)"/><rect x="54" y="338" width="40.73" height="7" fill="#5b9a97" opacity="0.10"/><rect x="110.57" y="338" width="40.73" height="7" fill="#5b9a97" opacity="0.25"/><rect x="167.14" y="338" width="40.73" height="7" fill="#5b9a97" opacity="0.19"/><rect x="223.71" y="338" width="40.73" height="7" fill="#5b9a97" opacity="0.13"/><rect x="280.29" y="338" width="40.73" height="7" fill="#5b9a97" opacity="0.28"/><rect x="336.86" y="338" width="40.73" height="7" fill="#5b9a97" opacity="0.22"/><rect x="393.43" y="338" width="40.73" height="7" fill="#5b9a97" opacity="0.16"/><rect x="450" y="338" width="40.73" height="7" fill="#5b9a97" opacity="0.10"/><rect x="506.57" y="338" width="40.73" height="7" fill="#5b9a97" opacity="0.25"/><rect x="563.14" y="338" width="40.73" height="7" fill="#5b9a97" opacity="0.19"/><rect x="619.71" y="338" width="40.73" height="7" fill="#5b9a97" opacity="0.13"/><rect x="676.29" y="338" width="40.73" height="7" fill="#5b9a97" opacity="0.28"/><rect x="732.86" y="338" width="40.73" height="7" fill="#5b9a97" opacity="0.22"/><rect x="789.43" y="338" width="40.73" height="7" fill="#5b9a97" opacity="0.16"/><rect x="54" y="348" width="40.73" height="7" fill="#5b9a97" opacity="0.19"/><rect x="110.57" y="348" width="40.73" height="7" fill="#5b9a97" opacity="0.13"/><rect x="167.14" y="348" width="40.73" height="7" fill="#5b9a97" opacity="0.28"/><rect x="223.71" y="348" width="40.73" height="7" fill="#5b9a97" opacity="0.22"/><rect x="280.29" y="348" width="40.73" height="7" fill="#5b9a97" opacity="0.16"/><rect x="336.86" y="348" width="40.73" height="7" fill="#5b9a97" opacity="0.10"/><rect x="393.43" y="348" width="40.73" height="7" fill="#5b9a97" opacity="0.25"/><rect x="450" y="348" width="40.73" height="7" fill="#5b9a97" opacity="0.19"/><rect x="506.57" y="348" width="40.73" height="7" fill="#5b9a97" opacity="0.13"/><rect x="563.14" y="348" width="40.73" height="7" fill="#5b9a97" opacity="0.28"/><rect x="619.71" y="348" width="40.73" height="7" fill="#5b9a97" opacity="0.22"/><rect x="676.29" y="348" width="40.73" height="7" fill="#5b9a97" opacity="0.16"/><rect x="732.86" y="348" width="40.73" height="7" fill="#5b9a97" opacity="0.10"/><rect x="789.43" y="348" width="40.73" height="7" fill="#5b9a97" opacity="0.25"/><rect x="54" y="358" width="40.73" height="7" fill="#5b9a97" opacity="0.14"/><rect x="110.57" y="358" width="40.73" height="7" fill="#5b9a97" opacity="0.11"/><rect x="167.14" y="358" width="40.73" height="7" fill="#5b9a97" opacity="0.08"/><rect x="223.71" y="358" width="40.73" height="7" fill="#5b9a97" opacity="0.05"/><rect x="280.29" y="358" width="40.73" height="7" fill="#5b9a97" opacity="0.12"/><rect x="336.86" y="358" width="40.73" height="7" fill="#5b9a97" opacity="0.10"/><rect x="393.43" y="358" width="40.73" height="7" fill="#5b9a97" opacity="0.07"/><rect x="450" y="358" width="40.73" height="7" fill="#5b9a97" opacity="0.14"/><rect x="506.57" y="358" width="40.73" height="7" fill="#5b9a97" opacity="0.11"/><rect x="563.14" y="358" width="40.73" height="7" fill="#5b9a97" opacity="0.08"/><rect x="619.71" y="358" width="40.73" height="7" fill="#5b9a97" opacity="0.05"/><rect x="676.29" y="358" width="40.73" height="7" fill="#5b9a97" opacity="0.12"/><rect x="732.86" y="358" width="40.73" height="7" fill="#5b9a97" opacity="0.10"/><rect x="789.43" y="358" width="40.73" height="7" fill="#5b9a97" opacity="0.07"/><rect x="0" y="372" width="900" height="24" fill="#e3c08d"/><rect x="0" y="396" width="900" height="4" fill="#e1c59d"/><rect x="0" y="400" width="900" height="3" fill="#b79f80"/><rect x="0" y="396" width="900" height="74" fill="#3a5574"/><rect x="54" y="424.12" width="93.46" height="45.88" rx="3" fill="#f6e7ce" opacity="0.82"/><rect x="192.46" y="420.05" width="93.46" height="49.95" rx="3" fill="#f6e7ce" opacity="0.82"/><rect x="330.92" y="415.98" width="93.46" height="54.02" rx="3" fill="#f6e7ce" opacity="0.82"/><rect x="469.38" y="411.91" width="93.46" height="58.09" rx="3" fill="#f6e7ce" opacity="0.82"/><rect x="607.85" y="407.84" width="93.46" height="62.16" rx="3" fill="#f6e7ce" opacity="0.82"/><rect x="746.31" y="403.77" width="93.46" height="66.23" rx="3" fill="#f6e7ce" opacity="0.82"/><rect x="884.77" y="399.7" width="93.46" height="70.3" rx="3" fill="#f6e7ce" opacity="0.82"/><rect x="0" y="396" width="900" height="16" fill="rgba(242,160,123,0.10)"/><ellipse cx="100" cy="376" rx="98.56" ry="9" fill="url(#castw)" transform="skewX(-4)"/><path d="M0,96 L176,96 L191,81 L15,81 Z" fill="#e69e82"/><rect x="0" y="96" width="176" height="276" fill="#e08467"/><rect x="176" y="96" width="15" height="276" fill="#b57061"/><rect x="0" y="96" width="176" height="4" fill="#e4967a" opacity="0.7"/><rect x="0" y="137" width="176" height="5" fill="#c07662" opacity="0.6"/><rect x="12.91" y="106.12" width="32.85" height="21.16" rx="2.96" fill="#855b5a"/><rect x="16.19" y="108.66" width="26.28" height="16.08" fill="#a5695e"/><rect x="18.16" y="109.93" width="22.34" height="13.54" fill="#e8bf5b"/><circle cx="29.33" cy="116.7" r="29.57" fill="url(#lampgw)" opacity="0.85"/><rect x="28.02" y="109.93" width="1.97" height="13.54" fill="#998654"/><rect x="12.91" y="106.12" width="32.85" height="2" rx="1" fill="#e69e82"/><rect x="71.57" y="106.12" width="32.85" height="21.16" rx="2.96" fill="#855b5a"/><rect x="74.86" y="108.66" width="26.28" height="16.08" fill="#a5695e"/><rect x="76.83" y="109.93" width="22.34" height="13.54" fill="#e8bf5b"/><circle cx="88" cy="116.7" r="29.57" fill="url(#lampgw)" opacity="0.85"/><rect x="86.69" y="109.93" width="1.97" height="13.54" fill="#998654"/><rect x="71.57" y="106.12" width="32.85" height="2" rx="1" fill="#e69e82"/><rect x="130.24" y="106.12" width="32.85" height="21.16" rx="2.96" fill="#855b5a"/><rect x="133.53" y="108.66" width="26.28" height="16.08" fill="#a5695e"/><rect x="135.5" y="109.93" width="22.34" height="13.54" fill="#929fa7" opacity="0.5"/><rect x="130.24" y="106.12" width="32.85" height="2" rx="1" fill="#e69e82"/><rect x="0" y="142" width="176" height="4" fill="#e4967a" opacity="0.7"/><rect x="0" y="183" width="176" height="5" fill="#c07662" opacity="0.6"/><rect x="12.91" y="152.12" width="32.85" height="21.16" rx="2.96" fill="#855b5a"/><rect x="16.19" y="154.66" width="26.28" height="16.08" fill="#a5695e"/><rect x="18.16" y="155.93" width="22.34" height="13.54" fill="#929fa7" opacity="0.5"/><rect x="12.91" y="152.12" width="32.85" height="2" rx="1" fill="#e69e82"/><rect x="71.57" y="152.12" width="32.85" height="21.16" rx="2.96" fill="#855b5a"/><rect x="74.86" y="154.66" width="26.28" height="16.08" fill="#a5695e"/><rect x="76.83" y="155.93" width="22.34" height="13.54" fill="#e8bf5b"/><circle cx="88" cy="162.7" r="29.57" fill="url(#lampgw)" opacity="0.85"/><rect x="86.69" y="155.93" width="1.97" height="13.54" fill="#998654"/><rect x="71.57" y="152.12" width="32.85" height="2" rx="1" fill="#e69e82"/><rect x="130.24" y="152.12" width="32.85" height="21.16" rx="2.96" fill="#855b5a"/><rect x="133.53" y="154.66" width="26.28" height="16.08" fill="#a5695e"/><rect x="135.5" y="155.93" width="22.34" height="13.54" fill="#e8bf5b"/><circle cx="146.67" cy="162.7" r="29.57" fill="url(#lampgw)" opacity="0.85"/><rect x="145.35" y="155.93" width="1.97" height="13.54" fill="#998654"/><rect x="130.24" y="152.12" width="32.85" height="2" rx="1" fill="#e69e82"/><rect x="0" y="188" width="176" height="4" fill="#e4967a" opacity="0.7"/><rect x="0" y="229" width="176" height="5" fill="#c07662" opacity="0.6"/><rect x="12.91" y="198.12" width="32.85" height="21.16" rx="2.96" fill="#855b5a"/><rect x="16.19" y="200.66" width="26.28" height="16.08" fill="#a5695e"/><rect x="18.16" y="201.93" width="22.34" height="13.54" fill="#e8bf5b"/><circle cx="29.33" cy="208.7" r="29.57" fill="url(#lampgw)" opacity="0.85"/><rect x="28.02" y="201.93" width="1.97" height="13.54" fill="#998654"/><rect x="12.91" y="198.12" width="32.85" height="2" rx="1" fill="#e69e82"/><rect x="71.57" y="198.12" width="32.85" height="21.16" rx="2.96" fill="#855b5a"/><rect x="74.86" y="200.66" width="26.28" height="16.08" fill="#a5695e"/><rect x="76.83" y="201.93" width="22.34" height="13.54" fill="#929fa7" opacity="0.5"/><rect x="71.57" y="198.12" width="32.85" height="2" rx="1" fill="#e69e82"/><rect x="130.24" y="198.12" width="32.85" height="21.16" rx="2.96" fill="#855b5a"/><rect x="133.53" y="200.66" width="26.28" height="16.08" fill="#a5695e"/><rect x="135.5" y="201.93" width="22.34" height="13.54" fill="#e8bf5b"/><circle cx="146.67" cy="208.7" r="29.57" fill="url(#lampgw)" opacity="0.85"/><rect x="145.35" y="201.93" width="1.97" height="13.54" fill="#998654"/><rect x="130.24" y="198.12" width="32.85" height="2" rx="1" fill="#e69e82"/><rect x="29.33" y="224.8" width="117.33" height="9" fill="#f6e7ce"/><rect x="29.33" y="233.8" width="117.33" height="7.2" fill="#f6e7ce"/><rect x="29.33" y="218.8" width="117.33" height="4" rx="2" fill="#f6e7ce"/><rect x="29.33" y="202.8" width="3.4" height="20" rx="1.6" fill="#f6e7ce"/><rect x="58.67" y="202.8" width="3.4" height="20" rx="1.6" fill="#f6e7ce"/><rect x="88" y="202.8" width="3.4" height="20" rx="1.6" fill="#f6e7ce"/><rect x="117.33" y="202.8" width="3.4" height="20" rx="1.6" fill="#f6e7ce"/><rect x="146.67" y="202.8" width="3.4" height="20" rx="1.6" fill="#f6e7ce"/><rect x="0" y="234" width="176" height="4" fill="#e4967a" opacity="0.7"/><rect x="0" y="275" width="176" height="5" fill="#c07662" opacity="0.6"/><rect x="12.91" y="244.12" width="32.85" height="21.16" rx="2.96" fill="#855b5a"/><rect x="16.19" y="246.66" width="26.28" height="16.08" fill="#a5695e"/><rect x="18.16" y="247.93" width="22.34" height="13.54" fill="#e8bf5b"/><circle cx="29.33" cy="254.7" r="29.57" fill="url(#lampgw)" opacity="0.85"/><rect x="28.02" y="247.93" width="1.97" height="13.54" fill="#998654"/><rect x="12.91" y="244.12" width="32.85" height="2" rx="1" fill="#e69e82"/><rect x="71.57" y="244.12" width="32.85" height="21.16" rx="2.96" fill="#855b5a"/><rect x="74.86" y="246.66" width="26.28" height="16.08" fill="#a5695e"/><rect x="76.83" y="247.93" width="22.34" height="13.54" fill="#e8bf5b"/><circle cx="88" cy="254.7" r="29.57" fill="url(#lampgw)" opacity="0.85"/><rect x="86.69" y="247.93" width="1.97" height="13.54" fill="#998654"/><rect x="71.57" y="244.12" width="32.85" height="2" rx="1" fill="#e69e82"/><rect x="130.24" y="244.12" width="32.85" height="21.16" rx="2.96" fill="#855b5a"/><rect x="133.53" y="246.66" width="26.28" height="16.08" fill="#a5695e"/><rect x="135.5" y="247.93" width="22.34" height="13.54" fill="#929fa7" opacity="0.5"/><rect x="130.24" y="244.12" width="32.85" height="2" rx="1" fill="#e69e82"/><rect x="0" y="280" width="176" height="4" fill="#e4967a" opacity="0.7"/><rect x="0" y="321" width="176" height="5" fill="#c07662" opacity="0.6"/><rect x="12.91" y="290.12" width="32.85" height="21.16" rx="2.96" fill="#855b5a"/><rect x="16.19" y="292.66" width="26.28" height="16.08" fill="#a5695e"/><rect x="18.16" y="293.93" width="22.34" height="13.54" fill="#929fa7" opacity="0.5"/><rect x="12.91" y="290.12" width="32.85" height="2" rx="1" fill="#e69e82"/><rect x="71.57" y="290.12" width="32.85" height="21.16" rx="2.96" fill="#855b5a"/><rect x="74.86" y="292.66" width="26.28" height="16.08" fill="#a5695e"/><rect x="76.83" y="293.93" width="22.34" height="13.54" fill="#e8bf5b"/><circle cx="88" cy="300.7" r="29.57" fill="url(#lampgw)" opacity="0.85"/><rect x="86.69" y="293.93" width="1.97" height="13.54" fill="#998654"/><rect x="71.57" y="290.12" width="32.85" height="2" rx="1" fill="#e69e82"/><rect x="130.24" y="290.12" width="32.85" height="21.16" rx="2.96" fill="#855b5a"/><rect x="133.53" y="292.66" width="26.28" height="16.08" fill="#a5695e"/><rect x="135.5" y="293.93" width="22.34" height="13.54" fill="#e8bf5b"/><circle cx="146.67" cy="300.7" r="29.57" fill="url(#lampgw)" opacity="0.85"/><rect x="145.35" y="293.93" width="1.97" height="13.54" fill="#998654"/><rect x="130.24" y="290.12" width="32.85" height="2" rx="1" fill="#e69e82"/><rect x="29.33" y="316.8" width="117.33" height="9" fill="#f6e7ce"/><rect x="29.33" y="325.8" width="117.33" height="7.2" fill="#f6e7ce"/><rect x="29.33" y="310.8" width="117.33" height="4" rx="2" fill="#f6e7ce"/><rect x="29.33" y="294.8" width="3.4" height="20" rx="1.6" fill="#f6e7ce"/><rect x="58.67" y="294.8" width="3.4" height="20" rx="1.6" fill="#f6e7ce"/><rect x="88" y="294.8" width="3.4" height="20" rx="1.6" fill="#f6e7ce"/><rect x="117.33" y="294.8" width="3.4" height="20" rx="1.6" fill="#f6e7ce"/><rect x="146.67" y="294.8" width="3.4" height="20" rx="1.6" fill="#f6e7ce"/><rect x="0" y="326" width="176" height="4" fill="#e4967a" opacity="0.7"/><rect x="0" y="367" width="176" height="5" fill="#c07662" opacity="0.6"/><rect x="12.91" y="336.12" width="32.85" height="21.16" rx="2.96" fill="#855b5a"/><rect x="16.19" y="338.66" width="26.28" height="16.08" fill="#a5695e"/><rect x="18.16" y="339.93" width="22.34" height="13.54" fill="#e8bf5b"/><circle cx="29.33" cy="346.7" r="29.57" fill="url(#lampgw)" opacity="0.85"/><rect x="28.02" y="339.93" width="1.97" height="13.54" fill="#998654"/><rect x="12.91" y="336.12" width="32.85" height="2" rx="1" fill="#e69e82"/><rect x="71.57" y="336.12" width="32.85" height="21.16" rx="2.96" fill="#855b5a"/><rect x="74.86" y="338.66" width="26.28" height="16.08" fill="#a5695e"/><rect x="76.83" y="339.93" width="22.34" height="13.54" fill="#929fa7" opacity="0.5"/><rect x="71.57" y="336.12" width="32.85" height="2" rx="1" fill="#e69e82"/><rect x="130.24" y="336.12" width="32.85" height="21.16" rx="2.96" fill="#855b5a"/><rect x="133.53" y="338.66" width="26.28" height="16.08" fill="#a5695e"/><rect x="135.5" y="339.93" width="22.34" height="13.54" fill="#e8bf5b"/><circle cx="146.67" cy="346.7" r="29.57" fill="url(#lampgw)" opacity="0.85"/><rect x="145.35" y="339.93" width="1.97" height="13.54" fill="#998654"/><rect x="130.24" y="336.12" width="32.85" height="2" rx="1" fill="#e69e82"/><g><ellipse cx="356.4" cy="377" rx="59.52" ry="13" fill="url(#castw)"/><path d="M300,320 L396,320 L410,306 L314,306 Z" fill="#d08c67" stroke="#c1683f" stroke-width="6" stroke-linejoin="round"/><path d="M396,320 L410,306 L410,358 L396,372 Z" fill="#a05c41" stroke="#c1683f" stroke-width="6" stroke-linejoin="round"/><path d="M300,320 L396,320 L380,329.92 L316,329.92 Z" fill="#d9a281" opacity="0.85"/><path d="M396,320 L386.08,329.92 L386.08,372 L396,372 Z" fill="#895343" opacity="0.7"/><rect x="300" y="320" width="96" height="52" rx="10" fill="#c1683f"/><rect x="300" y="359" width="96" height="13" fill="url(#aow)" rx="5"/><animateTransform attributeName="transform" type="translate" values="0 0;0 -3.2;0 0" dur="7s" begin="0s" repeatCount="indefinite" calcMode="spline" keyTimes="0;0.5;1" keySplines="0.42 0 0.58 1;0.42 0 0.58 1"/></g><g><ellipse cx="474.4" cy="377" rx="59.52" ry="13" fill="url(#castw)"/><path d="M418,292 L514,292 L528,278 L432,278 Z" fill="#e8cb9f" stroke="#e3c08d" stroke-width="6" stroke-linejoin="round"/><path d="M514,292 L528,278 L528,358 L514,372 Z" fill="#bba280" stroke="#e3c08d" stroke-width="6" stroke-linejoin="round"/><path d="M418,292 L514,292 L498,301.92 L434,301.92 Z" fill="#ecd2ab" opacity="0.85"/><path d="M514,292 L504.08,301.92 L504.08,372 L514,372 Z" fill="#9f8d76" opacity="0.7"/><rect x="418" y="292" width="96" height="80" rx="10" fill="#e3c08d"/><rect x="418" y="359" width="96" height="13" fill="url(#aow)" rx="5"/><animateTransform attributeName="transform" type="translate" values="0 0;0 -4.2;0 0" dur="9s" begin="2.72s" repeatCount="indefinite" calcMode="spline" keyTimes="0;0.5;1" keySplines="0.42 0 0.58 1;0.42 0 0.58 1"/></g><g><ellipse cx="592.4" cy="377" rx="59.52" ry="13" fill="url(#castw)"/><path d="M536,264 L632,264 L646,250 L550,250 Z" fill="#d08c67" stroke="#c1683f" stroke-width="6" stroke-linejoin="round"/><path d="M632,264 L646,250 L646,358 L632,372 Z" fill="#a05c41" stroke="#c1683f" stroke-width="6" stroke-linejoin="round"/><path d="M536,264 L632,264 L616,273.92 L552,273.92 Z" fill="#d9a281" opacity="0.85"/><path d="M632,264 L622.08,273.92 L622.08,372 L632,372 Z" fill="#895343" opacity="0.7"/><rect x="536" y="264" width="96" height="108" rx="10" fill="#c1683f"/><rect x="536" y="359" width="96" height="13" fill="url(#aow)" rx="5"/><animateTransform attributeName="transform" type="translate" values="0 0;0 -5.2;0 0" dur="11s" begin="5.44s" repeatCount="indefinite" calcMode="spline" keyTimes="0;0.5;1" keySplines="0.42 0 0.58 1;0.42 0 0.58 1"/></g><g><ellipse cx="710.4" cy="377" rx="59.52" ry="13" fill="url(#castw)"/><path d="M654,236 L750,236 L764,222 L668,222 Z" fill="#e8cb9f" stroke="#e3c08d" stroke-width="6" stroke-linejoin="round"/><path d="M750,236 L764,222 L764,358 L750,372 Z" fill="#bba280" stroke="#e3c08d" stroke-width="6" stroke-linejoin="round"/><path d="M654,236 L750,236 L734,245.92 L670,245.92 Z" fill="#ecd2ab" opacity="0.85"/><path d="M750,236 L740.08,245.92 L740.08,372 L750,372 Z" fill="#9f8d76" opacity="0.7"/><rect x="654" y="236" width="96" height="136" rx="10" fill="#e3c08d"/><rect x="654" y="359" width="96" height="13" fill="url(#aow)" rx="5"/><animateTransform attributeName="transform" type="translate" values="0 0;0 -6.2;0 0" dur="13s" begin="8.15s" repeatCount="indefinite" calcMode="spline" keyTimes="0;0.5;1" keySplines="0.42 0 0.58 1;0.42 0 0.58 1"/></g><g><ellipse cx="828.4" cy="377" rx="59.52" ry="13" fill="url(#castw)"/><path d="M772,208 L868,208 L882,194 L786,194 Z" fill="#d08c67" stroke="#c1683f" stroke-width="6" stroke-linejoin="round"/><path d="M868,208 L882,194 L882,358 L868,372 Z" fill="#a05c41" stroke="#c1683f" stroke-width="6" stroke-linejoin="round"/><path d="M772,208 L868,208 L852,217.92 L788,217.92 Z" fill="#d9a281" opacity="0.85"/><path d="M868,208 L858.08,217.92 L858.08,372 L868,372 Z" fill="#895343" opacity="0.7"/><rect x="772" y="208" width="96" height="164" rx="10" fill="#c1683f"/><rect x="772" y="359" width="96" height="13" fill="url(#aow)" rx="5"/><animateTransform attributeName="transform" type="translate" values="0 0;0 -7.2;0 0" dur="17s" begin="10.87s" repeatCount="indefinite" calcMode="spline" keyTimes="0;0.5;1" keySplines="0.42 0 0.58 1;0.42 0 0.58 1"/></g><ellipse cx="822" cy="376" rx="100.8" ry="9" fill="url(#castw)" transform="skewX(-4)"/><path d="M720,130 L900,130 L915,115 L735,115 Z" fill="#cf8964"/><rect x="720" y="130" width="180" height="242" fill="#c1683f"/><rect x="900" y="130" width="15" height="242" fill="#9c5a41"/><rect x="720" y="130" width="180" height="4" fill="#cb7f59" opacity="0.7"/><rect x="720" y="173.4" width="180" height="5" fill="#a65e41" opacity="0.6"/><rect x="733.2" y="140.65" width="33.6" height="22.26" rx="3.12" fill="#754b44"/><rect x="736.56" y="143.32" width="26.88" height="16.92" fill="#8f5542"/><rect x="738.58" y="144.66" width="22.85" height="14.25" fill="#e8bf5b"/><circle cx="750" cy="151.78" r="30.24" fill="url(#lampgw)" opacity="0.85"/><rect x="748.66" y="144.66" width="2.02" height="14.25" fill="#998654"/><rect x="733.2" y="140.65" width="33.6" height="2" rx="1" fill="#cf8964"/><rect x="793.2" y="140.65" width="33.6" height="22.26" rx="3.12" fill="#754b44"/><rect x="796.56" y="143.32" width="26.88" height="16.92" fill="#8f5542"/><rect x="798.58" y="144.66" width="22.85" height="14.25" fill="#e8bf5b"/><circle cx="810" cy="151.78" r="30.24" fill="url(#lampgw)" opacity="0.85"/><rect x="808.66" y="144.66" width="2.02" height="14.25" fill="#998654"/><rect x="793.2" y="140.65" width="33.6" height="2" rx="1" fill="#cf8964"/><rect x="853.2" y="140.65" width="33.6" height="22.26" rx="3.12" fill="#754b44"/><rect x="856.56" y="143.32" width="26.88" height="16.92" fill="#8f5542"/><rect x="858.58" y="144.66" width="22.85" height="14.25" fill="#929fa7" opacity="0.5"/><rect x="853.2" y="140.65" width="33.6" height="2" rx="1" fill="#cf8964"/><rect x="720" y="178.4" width="180" height="4" fill="#cb7f59" opacity="0.7"/><rect x="720" y="221.8" width="180" height="5" fill="#a65e41" opacity="0.6"/><rect x="733.2" y="189.05" width="33.6" height="22.26" rx="3.12" fill="#754b44"/><rect x="736.56" y="191.72" width="26.88" height="16.92" fill="#8f5542"/><rect x="738.58" y="193.06" width="22.85" height="14.25" fill="#929fa7" opacity="0.5"/><rect x="733.2" y="189.05" width="33.6" height="2" rx="1" fill="#cf8964"/><rect x="793.2" y="189.05" width="33.6" height="22.26" rx="3.12" fill="#754b44"/><rect x="796.56" y="191.72" width="26.88" height="16.92" fill="#8f5542"/><rect x="798.58" y="193.06" width="22.85" height="14.25" fill="#e8bf5b"/><circle cx="810" cy="200.18" r="30.24" fill="url(#lampgw)" opacity="0.85"/><rect x="808.66" y="193.06" width="2.02" height="14.25" fill="#998654"/><rect x="793.2" y="189.05" width="33.6" height="2" rx="1" fill="#cf8964"/><rect x="853.2" y="189.05" width="33.6" height="22.26" rx="3.12" fill="#754b44"/><rect x="856.56" y="191.72" width="26.88" height="16.92" fill="#8f5542"/><rect x="858.58" y="193.06" width="22.85" height="14.25" fill="#e8bf5b"/><circle cx="870" cy="200.18" r="30.24" fill="url(#lampgw)" opacity="0.85"/><rect x="868.66" y="193.06" width="2.02" height="14.25" fill="#998654"/><rect x="853.2" y="189.05" width="33.6" height="2" rx="1" fill="#cf8964"/><rect x="720" y="226.8" width="180" height="4" fill="#cb7f59" opacity="0.7"/><rect x="720" y="270.2" width="180" height="5" fill="#a65e41" opacity="0.6"/><rect x="733.2" y="237.45" width="33.6" height="22.26" rx="3.12" fill="#754b44"/><rect x="736.56" y="240.12" width="26.88" height="16.92" fill="#8f5542"/><rect x="738.58" y="241.46" width="22.85" height="14.25" fill="#e8bf5b"/><circle cx="750" cy="248.58" r="30.24" fill="url(#lampgw)" opacity="0.85"/><rect x="748.66" y="241.46" width="2.02" height="14.25" fill="#998654"/><rect x="733.2" y="237.45" width="33.6" height="2" rx="1" fill="#cf8964"/><rect x="793.2" y="237.45" width="33.6" height="22.26" rx="3.12" fill="#754b44"/><rect x="796.56" y="240.12" width="26.88" height="16.92" fill="#8f5542"/><rect x="798.58" y="241.46" width="22.85" height="14.25" fill="#929fa7" opacity="0.5"/><rect x="793.2" y="237.45" width="33.6" height="2" rx="1" fill="#cf8964"/><rect x="853.2" y="237.45" width="33.6" height="22.26" rx="3.12" fill="#754b44"/><rect x="856.56" y="240.12" width="26.88" height="16.92" fill="#8f5542"/><rect x="858.58" y="241.46" width="22.85" height="14.25" fill="#e8bf5b"/><circle cx="870" cy="248.58" r="30.24" fill="url(#lampgw)" opacity="0.85"/><rect x="868.66" y="241.46" width="2.02" height="14.25" fill="#998654"/><rect x="853.2" y="237.45" width="33.6" height="2" rx="1" fill="#cf8964"/><rect x="720" y="275.2" width="180" height="4" fill="#cb7f59" opacity="0.7"/><rect x="720" y="318.6" width="180" height="5" fill="#a65e41" opacity="0.6"/><rect x="733.2" y="285.85" width="33.6" height="22.26" rx="3.12" fill="#754b44"/><rect x="736.56" y="288.52" width="26.88" height="16.92" fill="#8f5542"/><rect x="738.58" y="289.86" width="22.85" height="14.25" fill="#e8bf5b"/><circle cx="750" cy="296.98" r="30.24" fill="url(#lampgw)" opacity="0.85"/><rect x="748.66" y="289.86" width="2.02" height="14.25" fill="#998654"/><rect x="733.2" y="285.85" width="33.6" height="2" rx="1" fill="#cf8964"/><rect x="793.2" y="285.85" width="33.6" height="22.26" rx="3.12" fill="#754b44"/><rect x="796.56" y="288.52" width="26.88" height="16.92" fill="#8f5542"/><rect x="798.58" y="289.86" width="22.85" height="14.25" fill="#e8bf5b"/><circle cx="810" cy="296.98" r="30.24" fill="url(#lampgw)" opacity="0.85"/><rect x="808.66" y="289.86" width="2.02" height="14.25" fill="#998654"/><rect x="793.2" y="285.85" width="33.6" height="2" rx="1" fill="#cf8964"/><rect x="853.2" y="285.85" width="33.6" height="22.26" rx="3.12" fill="#754b44"/><rect x="856.56" y="288.52" width="26.88" height="16.92" fill="#8f5542"/><rect x="858.58" y="289.86" width="22.85" height="14.25" fill="#929fa7" opacity="0.5"/><rect x="853.2" y="285.85" width="33.6" height="2" rx="1" fill="#cf8964"/><rect x="720" y="323.6" width="180" height="4" fill="#cb7f59" opacity="0.7"/><rect x="720" y="367" width="180" height="5" fill="#a65e41" opacity="0.6"/><rect x="733.2" y="334.25" width="33.6" height="22.26" rx="3.12" fill="#754b44"/><rect x="736.56" y="336.92" width="26.88" height="16.92" fill="#8f5542"/><rect x="738.58" y="338.26" width="22.85" height="14.25" fill="#929fa7" opacity="0.5"/><rect x="733.2" y="334.25" width="33.6" height="2" rx="1" fill="#cf8964"/><rect x="793.2" y="334.25" width="33.6" height="22.26" rx="3.12" fill="#754b44"/><rect x="796.56" y="336.92" width="26.88" height="16.92" fill="#8f5542"/><rect x="798.58" y="338.26" width="22.85" height="14.25" fill="#e8bf5b"/><circle cx="810" cy="345.38" r="30.24" fill="url(#lampgw)" opacity="0.85"/><rect x="808.66" y="338.26" width="2.02" height="14.25" fill="#998654"/><rect x="793.2" y="334.25" width="33.6" height="2" rx="1" fill="#cf8964"/><rect x="853.2" y="334.25" width="33.6" height="22.26" rx="3.12" fill="#754b44"/><rect x="856.56" y="336.92" width="26.88" height="16.92" fill="#8f5542"/><rect x="858.58" y="338.26" width="22.85" height="14.25" fill="#e8bf5b"/><circle cx="870" cy="345.38" r="30.24" fill="url(#lampgw)" opacity="0.85"/><rect x="868.66" y="338.26" width="2.02" height="14.25" fill="#998654"/><rect x="853.2" y="334.25" width="33.6" height="2" rx="1" fill="#cf8964"/><g><ellipse cx="268" cy="374" rx="29.4" ry="7" fill="rgba(245,201,92,0.16)"/><rect x="265.4" y="302" width="5.2" height="70" rx="2.6" fill="#2e4a6b"/><circle cx="268" cy="296" r="15" fill="url(#lampgw)"/><circle cx="268" cy="296" r="9.3" fill="#f5c95c"/><rect x="260.5" y="285.5" width="15" height="4" rx="2" fill="#1b2a4a"/><animate attributeName="opacity" values="0.86;1.0;0.86" dur="7s" begin="0s" repeatCount="indefinite" calcMode="spline" keyTimes="0;0.5;1" keySplines="0.42 0 0.58 1;0.42 0 0.58 1"/></g><ellipse cx="690" cy="374" rx="23" ry="6" fill="url(#castcastb)"/><path d="M670.68,372 Q663.32,337.28 669.21,322.4 Q672.15,322.4 678.04,337.28 Q675.1,372 670.68,372 Z" fill="#9bb07a"/><path d="M679.88,372 Q670.68,328.6 678.04,310 Q681.72,310 689.08,328.6 Q685.4,372 679.88,372 Z" fill="#a0b37f"/><path d="M690,372 Q679.7,323.39 687.94,302.56 Q692.06,302.56 700.3,323.39 Q696.18,372 690,372 Z" fill="#a6b784"/><path d="M701.04,372 Q691.84,328.6 699.2,310 Q702.88,310 710.24,328.6 Q706.56,372 701.04,372 Z" fill="#abba89"/><path d="M710.24,372 Q703.06,338.15 708.8,323.64 Q711.68,323.64 717.42,338.15 Q714.55,372 710.24,372 Z" fill="#b1bd8e"/><rect x="0" y="332" width="900" height="40" fill="rgba(242,160,123,0.10)"/><ellipse cx="222" cy="106" rx="199.36" ry="14" fill="url(#castcastsl)"/><rect x="34" y="28" width="356" height="72" rx="12" fill="#f6e7ce"/><path d="M46,28 L378,28 Q390,28 390,40 L390,33.04 L34,33.04 L34,40 Q34,28 46,28 Z" fill="#b4aea6" opacity="0.9"/><path d="M384.96,28 Q390,28 390,40 L390,88 Q390,100 378,100 L384.96,100 Z" fill="#f6e7ce" opacity="0.85"/><text x="54" y="68" font-family="Verdana,DejaVu Sans,sans-serif" font-size="25" font-weight="700" letter-spacing="0.6" fill="#1b2a4a" text-anchor="start">DUNG30N5 x NOAERTH</text><text x="55" y="90" font-family="Verdana,DejaVu Sans,sans-serif" font-size="13" font-weight="700" letter-spacing="0.6" fill="#6a4242" text-anchor="start">WORKFLOW</text><text x="372" y="90" font-family="Verdana,DejaVu Sans,sans-serif" font-size="13" font-weight="700" letter-spacing="0.6" fill="#6a4242" text-anchor="end">5 steps</text><ellipse cx="208" cy="294" rx="183.68" ry="14" fill="url(#castcastsl)"/><rect x="34" y="112" width="328" height="176" rx="14" fill="#d9b98c"/><path d="M48,112 L348,112 Q362,112 362,126 L362,117.88 L34,117.88 L34,126 Q34,112 48,112 Z" fill="#a08e78" opacity="0.9"/><path d="M356.12,112 Q362,112 362,126 L362,274 Q362,288 348,288 L356.12,288 Z" fill="#dfc299" opacity="0.85"/><text x="54" y="142" font-family="Verdana,DejaVu Sans,sans-serif" font-size="13" font-weight="700" letter-spacing="0.6" fill="#6a4242" text-anchor="start">ORDERED STEPS</text><text x="54" y="172" font-family="Verdana,DejaVu Sans,sans-serif" font-size="14" font-weight="700" letter-spacing="0.6" fill="#6a4242" text-anchor="start">Web Application</text><text x="342" y="172" font-family="Verdana,DejaVu Sans,sans-serif" font-size="17" font-weight="700" letter-spacing="0.6" fill="#1b2a4a" text-anchor="end">step 1</text><text x="54" y="202" font-family="Verdana,DejaVu Sans,sans-serif" font-size="14" font-weight="700" letter-spacing="0.6" fill="#6a4242" text-anchor="start">Software</text><text x="342" y="202" font-family="Verdana,DejaVu Sans,sans-serif" font-size="17" font-weight="700" letter-spacing="0.6" fill="#1b2a4a" text-anchor="end">step 2</text><text x="54" y="232" font-family="Verdana,DejaVu Sans,sans-serif" font-size="14" font-weight="700" letter-spacing="0.6" fill="#6a4242" text-anchor="start">Scaffold</text><text x="342" y="232" font-family="Verdana,DejaVu Sans,sans-serif" font-size="17" font-weight="700" letter-spacing="0.6" fill="#1b2a4a" text-anchor="end">step 3</text><text x="54" y="262" font-family="Verdana,DejaVu Sans,sans-serif" font-size="14" font-weight="700" letter-spacing="0.6" fill="#6a4242" text-anchor="start">Security</text><text x="342" y="262" font-family="Verdana,DejaVu Sans,sans-serif" font-size="17" font-weight="700" letter-spacing="0.6" fill="#1b2a4a" text-anchor="end">step 4</text><rect x="0" y="424" width="900" height="46" rx="0" fill="#f6e7ce"/><path d="M0,424 L900,424 Q900,424 900,424 L900,424 L0,424 L0,424 Q0,424 0,424 Z" fill="#b4aea6" opacity="0.9"/><path d="M900,424 Q900,424 900,424 L900,470 Q900,470 900,470 L900,470 Z" fill="#f6e7ce" opacity="0.85"/><text x="34" y="454" font-family="Verdana,DejaVu Sans,sans-serif" font-size="14" font-weight="700" letter-spacing="0.6" fill="#1b2a4a" text-anchor="start">DUNG30N5 x NOAERTH  /  Portfolio</text><text x="866" y="454" font-family="Verdana,DejaVu Sans,sans-serif" font-size="13" font-weight="700" letter-spacing="0.6" fill="#6a4242" text-anchor="end">PORTFOLIO  -  evidence E3</text></svg>