<svg xmlns="http://www.w3.org/2000/svg" width="900" height="470" viewBox="0 0 900 470" role="img" aria-label="DUNG30N5 x NOAERTH - the flight path"><linearGradient id="skyw" x1="0" y1="0" x2="0" y2="1"><stop offset="0" stop-color="#2e7bd6"/><stop offset="0.62" stop-color="#4f96dd"/><stop offset="1" stop-color="#7db4ea"/></linearGradient><radialGradient id="halow"><stop offset="0.3" stop-color="#ffd966" stop-opacity="0.5"/><stop offset="1" stop-color="#ffd966" stop-opacity="0"/></radialGradient><linearGradient id="rockw" x1="0" y1="0" x2="1" y2="0"><stop offset="0" stop-color="#da6e50"/><stop offset="0.55" stop-color="#d65a3c"/><stop offset="1" stop-color="#a94c3d"/></linearGradient><radialGradient id="shw"><stop offset="0" stop-color="#0b1c3f" stop-opacity="0.30"/><stop offset="1" stop-color="#0b1c3f" stop-opacity="0"/></radialGradient><rect width="900" height="470" fill="url(#skyw)"/><g><circle cx="752" cy="82" r="61.6" fill="url(#halow)"/><circle cx="752" cy="82" r="28" fill="#ffd966"></circle></g><g><rect x="118.5" y="54.96" width="63" height="17.64" rx="8.4" fill="#f6e7ce"/><rect x="132.36" y="39.84" width="35.28" height="21" rx="8.4" fill="#f6e7ce"/><rect x="154.2" y="44.88" width="21.84" height="15.96" rx="7.56" fill="#f6e7ce"/></g><g><rect x="537.5" y="40.4" width="45" height="12.6" rx="6" fill="#f6e7ce"/><rect x="547.4" y="29.6" width="25.2" height="15" rx="6" fill="#f6e7ce"/><rect x="563" y="33.2" width="15.6" height="11.4" rx="5.4" fill="#f6e7ce"/></g><rect x="0" y="150" width="92" height="200" fill="url(#rockw)"/><rect x="0" y="150.18" width="92" height="15.33" fill="#c74f33"/><rect x="0" y="165.51" width="92" height="2" fill="#983c2c" opacity="0.55"/><rect x="0" y="185.54" width="92" height="15.33" fill="#e88a5c"/><rect x="0" y="200.88" width="92" height="2" fill="#983c2c" opacity="0.55"/><rect x="0" y="215.23" width="92" height="15.33" fill="#c74f33"/><rect x="0" y="230.57" width="92" height="2" fill="#983c2c" opacity="0.55"/><rect x="0" y="250.77" width="92" height="15.33" fill="#e88a5c"/><rect x="0" y="266.11" width="92" height="2" fill="#983c2c" opacity="0.55"/><rect x="0" y="281.09" width="92" height="15.33" fill="#c74f33"/><rect x="0" y="296.43" width="92" height="2" fill="#983c2c" opacity="0.55"/><rect x="0" y="314.04" width="92" height="15.33" fill="#e88a5c"/><rect x="0" y="329.38" width="92" height="2" fill="#983c2c" opacity="0.55"/><rect x="0" y="150" width="92" height="5" fill="#e88a5c"/><rect x="808" y="150" width="92" height="200" fill="url(#rockw)"/><rect x="808" y="151.04" width="92" height="15.33" fill="#e88a5c"/><rect x="808" y="166.38" width="92" height="2" fill="#983c2c" opacity="0.55"/><rect x="808" y="184.28" width="92" height="15.33" fill="#c74f33"/><rect x="808" y="199.62" width="92" height="2" fill="#983c2c" opacity="0.55"/><rect x="808" y="219.21" width="92" height="15.33" fill="#e88a5c"/><rect x="808" y="234.54" width="92" height="2" fill="#983c2c" opacity="0.55"/><rect x="808" y="249.51" width="92" height="15.33" fill="#c74f33"/><rect x="808" y="264.84" width="92" height="2" fill="#983c2c" opacity="0.55"/><rect x="808" y="285.72" width="92" height="15.33" fill="#e88a5c"/><rect x="808" y="301.06" width="92" height="2" fill="#983c2c" opacity="0.55"/><rect x="808" y="315.98" width="92" height="15.33" fill="#c74f33"/><rect x="808" y="331.31" width="92" height="2" fill="#983c2c" opacity="0.55"/><rect x="808" y="150" width="92" height="5" fill="#e88a5c"/><rect x="0" y="350" width="900" height="120" fill="#e8c88a"/><rect x="0" y="350" width="900" height="3" fill="#eacd95"/><rect x="807.88" y="413.8" width="9.24" height="6.65" rx="2.03" fill="#e9ca8e"/><rect x="358.2" y="399.93" width="12.2" height="8.79" rx="2.68" fill="#d8bb84"/><rect x="396.41" y="408.33" width="13.98" height="10.06" rx="3.07" fill="#e8c98c"/><rect x="689.38" y="371.54" width="12.42" height="8.94" rx="2.73" fill="#eacc92"/><rect x="686.16" y="417.05" width="13.26" height="9.55" rx="2.92" fill="#d5b984"/><rect x="161.95" y="402.57" width="11.16" height="8.04" rx="2.46" fill="#e9c98c"/><rect x="21.43" y="359" width="13.8" height="9.93" rx="3.03" fill="#e9ca8d"/><rect x="149.49" y="365.83" width="14.12" height="10.16" rx="3.11" fill="#d5b984"/><rect x="584.84" y="428.58" width="22.37" height="16.11" rx="4.92" fill="#e9cb90"/><rect x="763.7" y="450.46" width="10.84" height="7.8" rx="2.38" fill="#dabd85"/><rect x="77.96" y="435.73" width="11.99" height="8.63" rx="2.64" fill="#d7bb84"/><rect x="112.21" y="454.43" width="21.83" height="15.72" rx="4.8" fill="#e6c789"/><rect x="361.93" y="383.34" width="22" height="15.84" rx="4.84" fill="#e8c88a"/><rect x="205.4" y="409.52" width="16.63" height="11.97" rx="3.66" fill="#e9ca8f"/><rect x="92" y="328" width="716" height="64" fill="#2aa3d8"/><rect x="92" y="328" width="716" height="19.2" fill="#57b2d6"/><g><rect x="149.28" y="343.36" width="214.8" height="5.76" rx="3" fill="#f4fafd" opacity="0.75"/></g><g><rect x="149.28" y="363.2" width="179" height="5.76" rx="3" fill="#f4fafd" opacity="0.75"/></g><g><rect x="149.28" y="379.2" width="143.2" height="5.76" rx="3" fill="#f4fafd" opacity="0.75"/></g><rect x="112.42" y="344.79" width="4.63" height="9.72" fill="#7a4a2e"/><g><path d="M114.73,325.34 L131.26,344.79 L98.2,344.79 Z" fill="#6faf4a"/><path d="M114.73,325.34 L131.26,344.79 L117.38,344.79 L117.38,337.01 Z" fill="#2e6b2a"/></g><g><path d="M114.73,315.85 L129.11,335.3 L100.35,335.3 Z" fill="#6faf4a"/><path d="M114.73,315.85 L129.11,335.3 L117.03,335.3 L117.03,327.52 Z" fill="#2e6b2a"/></g><g><path d="M114.73,306.36 L126.96,325.81 L102.5,325.81 Z" fill="#6faf4a"/><path d="M114.73,306.36 L126.96,325.81 L116.69,325.81 L116.69,318.03 Z" fill="#2e6b2a"/></g><g><path d="M114.73,296.87 L124.82,316.33 L104.65,316.33 Z" fill="#6faf4a"/><path d="M114.73,296.87 L124.82,316.33 L116.35,316.33 L116.35,308.55 Z" fill="#2e6b2a"/></g><g><path d="M114.73,287.39 L122.67,306.84 L106.8,306.84 Z" fill="#6faf4a"/><path d="M114.73,287.39 L122.67,306.84 L116,306.84 L116,299.06 Z" fill="#2e6b2a"/></g><g><path d="M114.73,277.9 L120.52,297.35 L108.95,297.35 Z" fill="#6faf4a"/><path d="M114.73,277.9 L120.52,297.35 L115.66,297.35 L115.66,289.57 Z" fill="#2e6b2a"/></g><rect x="242.17" y="341.13" width="5.51" height="11.56" fill="#7a4a2e"/><g><path d="M244.92,318 L264.59,341.13 L225.26,341.13 Z" fill="#6faf4a"/><path d="M244.92,318 L264.59,341.13 L248.07,341.13 L248.07,331.88 Z" fill="#2e6b2a"/></g><g><path d="M244.92,306.71 L262.03,329.85 L227.82,329.85 Z" fill="#6faf4a"/><path d="M244.92,306.71 L262.03,329.85 L247.66,329.85 L247.66,320.59 Z" fill="#2e6b2a"/></g><g><path d="M244.92,295.42 L259.47,318.56 L230.37,318.56 Z" fill="#6faf4a"/><path d="M244.92,295.42 L259.47,318.56 L247.25,318.56 L247.25,309.31 Z" fill="#2e6b2a"/></g><g><path d="M244.92,284.14 L256.92,307.27 L232.93,307.27 Z" fill="#6faf4a"/><path d="M244.92,284.14 L256.92,307.27 L246.84,307.27 L246.84,298.02 Z" fill="#2e6b2a"/></g><g><path d="M244.92,272.85 L254.36,295.99 L235.48,295.99 Z" fill="#6faf4a"/><path d="M244.92,272.85 L254.36,295.99 L246.43,295.99 L246.43,286.73 Z" fill="#2e6b2a"/></g><g><path d="M244.92,261.56 L251.8,284.7 L238.04,284.7 Z" fill="#6faf4a"/><path d="M244.92,261.56 L251.8,284.7 L246.02,284.7 L246.02,275.44 Z" fill="#2e6b2a"/></g><rect x="313.81" y="336.45" width="6" height="12.61" fill="#7a4a2e"/><g><path d="M316.81,311.23 L338.25,336.45 L295.37,336.45 Z" fill="#6faf4a"/><path d="M316.81,311.23 L338.25,336.45 L320.24,336.45 L320.24,326.36 Z" fill="#2e6b2a"/></g><g><path d="M316.81,298.92 L335.46,324.15 L298.16,324.15 Z" fill="#6faf4a"/><path d="M316.81,298.92 L335.46,324.15 L319.79,324.15 L319.79,314.06 Z" fill="#2e6b2a"/></g><g><path d="M316.81,286.62 L332.67,311.84 L300.94,311.84 Z" fill="#6faf4a"/><path d="M316.81,286.62 L332.67,311.84 L319.35,311.84 L319.35,301.75 Z" fill="#2e6b2a"/></g><g><path d="M316.81,274.31 L329.89,299.54 L303.73,299.54 Z" fill="#6faf4a"/><path d="M316.81,274.31 L329.89,299.54 L318.9,299.54 L318.9,289.45 Z" fill="#2e6b2a"/></g><g><path d="M316.81,262 L327.1,287.23 L306.52,287.23 Z" fill="#6faf4a"/><path d="M316.81,262 L327.1,287.23 L318.45,287.23 L318.45,277.14 Z" fill="#2e6b2a"/></g><g><path d="M316.81,249.7 L324.31,274.93 L309.3,274.93 Z" fill="#6faf4a"/><path d="M316.81,249.7 L324.31,274.93 L318.01,274.93 L318.01,264.83 Z" fill="#2e6b2a"/></g><rect x="390.66" y="338.21" width="5.46" height="11.46" fill="#7a4a2e"/><g><path d="M393.39,315.28 L412.88,338.21 L373.89,338.21 Z" fill="#6faf4a"/><path d="M393.39,315.28 L412.88,338.21 L396.5,338.21 L396.5,329.04 Z" fill="#2e6b2a"/></g><g><path d="M393.39,304.09 L410.34,327.03 L376.43,327.03 Z" fill="#6faf4a"/><path d="M393.39,304.09 L410.34,327.03 L396.1,327.03 L396.1,317.85 Z" fill="#2e6b2a"/></g><g><path d="M393.39,292.9 L407.81,315.84 L378.96,315.84 Z" fill="#6faf4a"/><path d="M393.39,292.9 L407.81,315.84 L395.69,315.84 L395.69,306.66 Z" fill="#2e6b2a"/></g><g><path d="M393.39,281.71 L405.28,304.65 L381.5,304.65 Z" fill="#6faf4a"/><path d="M393.39,281.71 L405.28,304.65 L395.29,304.65 L395.29,295.48 Z" fill="#2e6b2a"/></g><g><path d="M393.39,270.53 L402.74,293.46 L384.03,293.46 Z" fill="#6faf4a"/><path d="M393.39,270.53 L402.74,293.46 L394.88,293.46 L394.88,284.29 Z" fill="#2e6b2a"/></g><g><path d="M393.39,259.34 L400.21,282.27 L386.56,282.27 Z" fill="#6faf4a"/><path d="M393.39,259.34 L400.21,282.27 L394.48,282.27 L394.48,273.1 Z" fill="#2e6b2a"/></g><rect x="491.71" y="342.59" width="5.82" height="12.22" fill="#7a4a2e"/><g><path d="M494.62,318.14 L515.4,342.59 L473.84,342.59 Z" fill="#6faf4a"/><path d="M494.62,318.14 L515.4,342.59 L497.95,342.59 L497.95,332.81 Z" fill="#2e6b2a"/></g><g><path d="M494.62,306.21 L512.7,330.66 L476.55,330.66 Z" fill="#6faf4a"/><path d="M494.62,306.21 L512.7,330.66 L497.52,330.66 L497.52,320.88 Z" fill="#2e6b2a"/></g><g><path d="M494.62,294.29 L510,318.74 L479.25,318.74 Z" fill="#6faf4a"/><path d="M494.62,294.29 L510,318.74 L497.08,318.74 L497.08,308.96 Z" fill="#2e6b2a"/></g><g><path d="M494.62,282.36 L507.3,306.81 L481.95,306.81 Z" fill="#6faf4a"/><path d="M494.62,282.36 L507.3,306.81 L496.65,306.81 L496.65,297.03 Z" fill="#2e6b2a"/></g><g><path d="M494.62,270.43 L504.6,294.88 L484.65,294.88 Z" fill="#6faf4a"/><path d="M494.62,270.43 L504.6,294.88 L496.22,294.88 L496.22,285.1 Z" fill="#2e6b2a"/></g><g><path d="M494.62,258.51 L501.9,282.96 L487.35,282.96 Z" fill="#6faf4a"/><path d="M494.62,258.51 L501.9,282.96 L495.79,282.96 L495.79,273.18 Z" fill="#2e6b2a"/></g><rect x="604.45" y="338.43" width="6.11" height="12.84" fill="#7a4a2e"/><g><path d="M607.51,312.73 L629.35,338.43 L585.67,338.43 Z" fill="#6faf4a"/><path d="M607.51,312.73 L629.35,338.43 L611,338.43 L611,328.15 Z" fill="#2e6b2a"/></g><g><path d="M607.51,300.2 L626.51,325.89 L588.51,325.89 Z" fill="#6faf4a"/><path d="M607.51,300.2 L626.51,325.89 L610.55,325.89 L610.55,315.61 Z" fill="#2e6b2a"/></g><g><path d="M607.51,287.66 L623.67,313.36 L591.35,313.36 Z" fill="#6faf4a"/><path d="M607.51,287.66 L623.67,313.36 L610.1,313.36 L610.1,303.08 Z" fill="#2e6b2a"/></g><g><path d="M607.51,275.13 L620.83,300.82 L594.19,300.82 Z" fill="#6faf4a"/><path d="M607.51,275.13 L620.83,300.82 L609.64,300.82 L609.64,290.54 Z" fill="#2e6b2a"/></g><g><path d="M607.51,262.59 L617.99,288.29 L597.03,288.29 Z" fill="#6faf4a"/><path d="M607.51,262.59 L617.99,288.29 L609.19,288.29 L609.19,278.01 Z" fill="#2e6b2a"/></g><g><path d="M607.51,250.06 L615.15,275.75 L599.87,275.75 Z" fill="#6faf4a"/><path d="M607.51,250.06 L615.15,275.75 L608.73,275.75 L608.73,265.48 Z" fill="#2e6b2a"/></g><rect x="671.31" y="335.29" width="6.77" height="14.22" fill="#7a4a2e"/><g><path d="M674.69,306.83 L698.87,335.29 L650.51,335.29 Z" fill="#6faf4a"/><path d="M674.69,306.83 L698.87,335.29 L678.56,335.29 L678.56,323.9 Z" fill="#2e6b2a"/></g><g><path d="M674.69,292.95 L695.73,321.4 L653.65,321.4 Z" fill="#6faf4a"/><path d="M674.69,292.95 L695.73,321.4 L678.06,321.4 L678.06,310.02 Z" fill="#2e6b2a"/></g><g><path d="M674.69,279.07 L692.59,307.52 L656.8,307.52 Z" fill="#6faf4a"/><path d="M674.69,279.07 L692.59,307.52 L677.55,307.52 L677.55,296.14 Z" fill="#2e6b2a"/></g><g><path d="M674.69,265.19 L689.44,293.64 L659.94,293.64 Z" fill="#6faf4a"/><path d="M674.69,265.19 L689.44,293.64 L677.05,293.64 L677.05,282.26 Z" fill="#2e6b2a"/></g><g><path d="M674.69,251.31 L686.3,279.76 L663.08,279.76 Z" fill="#6faf4a"/><path d="M674.69,251.31 L686.3,279.76 L676.55,279.76 L676.55,268.38 Z" fill="#2e6b2a"/></g><g><path d="M674.69,237.43 L683.16,265.88 L666.23,265.88 Z" fill="#6faf4a"/><path d="M674.69,237.43 L683.16,265.88 L676.05,265.88 L676.05,254.5 Z" fill="#2e6b2a"/></g><g><rect x="389.1" y="187.1" width="29" height="5.8" rx="2.9" fill="#f2e8d8"/><rect x="481.9" y="187.1" width="29" height="5.8" rx="2.9" fill="#f2e8d8"/><rect x="430.28" y="180.72" width="39.44" height="19.72" rx="6.96" fill="#e0d8cc"/><rect x="437.24" y="180.72" width="25.52" height="9.28" rx="3.48" fill="#ffd966"/><circle cx="450" cy="206.24" r="7.54" fill="#0b1c3f"/><circle cx="450" cy="206.24" r="3.48" fill="#e7c662"/><g><ellipse cx="403.6" cy="183.04" rx="24.36" ry="5.22" fill="#f6e7ce" opacity="0.75"></ellipse></g><g><ellipse cx="496.4" cy="183.04" rx="24.36" ry="5.22" fill="#f6e7ce" opacity="0.75"></ellipse></g></g><ellipse cx="450" cy="300" rx="70" ry="8" fill="url(#shw)"/><circle cx="200" cy="174" r="4" fill="#ffd966"/><circle cx="320" cy="196" r="4" fill="#ffd966"/><circle cx="440" cy="174" r="4" fill="#ffd966"/><circle cx="560" cy="196" r="4" fill="#ffd966"/><rect x="52" y="26" width="10" height="74" fill="#3a2a1e"/><rect x="378" y="26" width="10" height="74" fill="#3a2a1e"/><rect x="34" y="26" width="372" height="74" rx="10" fill="#f7ecd4"/><rect x="34" y="26" width="372" height="11.84" rx="10" fill="#d1cbbc" opacity="0.8"/><text x="54" y="64" font-family="Verdana,DejaVu Sans,sans-serif" font-size="24" font-weight="700" letter-spacing="0.8" fill="#4a3226" text-anchor="start">DUNG30N5 x NOAERTH</text><text x="55" y="86" font-family="Verdana,DejaVu Sans,sans-serif" font-size="13" font-weight="700" letter-spacing="0.8" fill="#4a3226" text-anchor="start">THE FLIGHT PATH</text><text x="388" y="86" font-family="Verdana,DejaVu Sans,sans-serif" font-size="13" font-weight="700" letter-spacing="0.8" fill="#4a3226" text-anchor="end">5 waypoints</text><rect x="52" y="112" width="10" height="254" fill="#3a2a1e"/><rect x="336" y="112" width="10" height="254" fill="#3a2a1e"/><rect x="34" y="112" width="330" height="228" rx="10" fill="#f7ecd4"/><rect x="34" y="112" width="330" height="36.48" rx="10" fill="#d1cbbc" opacity="0.8"/><text x="54" y="144" font-family="Verdana,DejaVu Sans,sans-serif" font-size="13" font-weight="700" letter-spacing="0.8" fill="#4a3226" text-anchor="start">THE FLIGHT PATH</text><text x="54" y="174" font-family="Verdana,DejaVu Sans,sans-serif" font-size="14" font-weight="700" letter-spacing="0.8" fill="#4a3226" text-anchor="start">Web Application</text><text x="344" y="174" font-family="Verdana,DejaVu Sans,sans-serif" font-size="18" font-weight="700" letter-spacing="0.4" fill="#a8402a" text-anchor="end">wp 1</text><text x="54" y="204" font-family="Verdana,DejaVu Sans,sans-serif" font-size="14" font-weight="700" letter-spacing="0.8" fill="#4a3226" text-anchor="start">Software</text><text x="344" y="204" font-family="Verdana,DejaVu Sans,sans-serif" font-size="18" font-weight="700" letter-spacing="0.4" fill="#a8402a" text-anchor="end">wp 2</text><text x="54" y="234" font-family="Verdana,DejaVu Sans,sans-serif" font-size="14" font-weight="700" letter-spacing="0.8" fill="#4a3226" text-anchor="start">Scaffold</text><text x="344" y="234" font-family="Verdana,DejaVu Sans,sans-serif" font-size="18" font-weight="700" letter-spacing="0.4" fill="#a8402a" text-anchor="end">wp 3</text><text x="54" y="264" font-family="Verdana,DejaVu Sans,sans-serif" font-size="14" font-weight="700" letter-spacing="0.8" fill="#4a3226" text-anchor="start">Security</text><text x="344" y="264" font-family="Verdana,DejaVu Sans,sans-serif" font-size="18" font-weight="700" letter-spacing="0.4" fill="#a8402a" text-anchor="end">wp 4</text><text x="54" y="294" font-family="Verdana,DejaVu Sans,sans-serif" font-size="14" font-weight="700" letter-spacing="0.8" fill="#4a3226" text-anchor="start">Portfolio</text><text x="344" y="294" font-family="Verdana,DejaVu Sans,sans-serif" font-size="18" font-weight="700" letter-spacing="0.4" fill="#a8402a" text-anchor="end">wp 5</text><rect x="0" y="424" width="900" height="46" rx="0" fill="#f7ecd4"/><text x="34" y="453.44" font-family="Verdana,DejaVu Sans,sans-serif" font-size="14" font-weight="700" letter-spacing="0.8" fill="#4a3226">DUNG30N5 x NOAERTH / Portfolio</text><text x="866" y="453.44" font-family="Verdana,DejaVu Sans,sans-serif" font-size="13" font-weight="700" letter-spacing="0.8" fill="#4a3226" text-anchor="end">PORTFOLIO - E3</text></svg>